<svg width="80" height="80" viewBox="0 0 80 80" fill="none" xmlns="http://www.w3.org/2000/svg">
<path d="M80 70.3042H0V70.3578H80V70.3042Z" fill="#EBEBEB"/>
<path d="M71.984 73.7585H66.6848V73.8122H71.984V73.7585Z" fill="#EBEBEB"/>
<path d="M52.9953 74.3425H51.6049V74.3962H52.9953V74.3425Z" fill="#EBEBEB"/>
<path d="M66.5247 71.7661H63.4543V71.8198H66.5247V71.7661Z" fill="#EBEBEB"/>
<path d="M15.304 72.127H8.39355V72.1806H15.304V72.127Z" fill="#EBEBEB"/>
<path d="M17.7424 72.127H16.7296V72.1806H17.7424V72.127Z" fill="#EBEBEB"/>
<path d="M36.024 73.033H21.0352V73.0867H36.024V73.033Z" fill="#EBEBEB"/>
<path d="M37.9201 60.7284H7.02565C6.78362 60.7278 6.55166 60.5984 6.38067 60.3686C6.20968 60.1387 6.11365 59.8272 6.11365 59.5024V1.22595C6.11575 0.903048 6.21272 0.594297 6.38348 0.366765C6.55424 0.139232 6.785 0.0112953 7.02565 0.0107422H37.9201C38.1624 0.0107422 38.3947 0.139904 38.5661 0.369814C38.7374 0.599723 38.8337 0.911547 38.8337 1.23669V59.5024C38.8337 59.8276 38.7374 60.1394 38.5661 60.3693C38.3947 60.5992 38.1624 60.7284 37.9201 60.7284ZM7.02565 0.0536827C6.79423 0.0542514 6.57244 0.178009 6.40895 0.397791C6.24547 0.617573 6.15365 0.91542 6.15365 1.22595V59.5024C6.15365 59.813 6.24547 60.1108 6.40895 60.3306C6.57244 60.5504 6.79423 60.6741 7.02565 60.6747H37.9201C38.1516 60.6741 38.3736 60.5505 38.5373 60.3307C38.7011 60.111 38.7932 59.8132 38.7937 59.5024V1.22595C38.7932 0.915222 38.7011 0.61738 38.5373 0.39766C38.3736 0.177939 38.1516 0.0542502 37.9201 0.0536827H7.02565Z" fill="#EBEBEB"/>
<path d="M72.5296 60.7284H41.6336C41.3914 60.7278 41.1593 60.5985 40.988 60.3687C40.8168 60.1389 40.7204 59.8274 40.72 59.5024V1.22595C40.7225 0.902852 40.8198 0.594103 40.9908 0.36663C41.1618 0.139157 41.3928 0.0112893 41.6336 0.0107422H72.5296C72.7699 0.0118596 73.0003 0.140046 73.1707 0.367518C73.3411 0.59499 73.4379 0.903419 73.44 1.22595V59.5024C73.44 59.8268 73.3442 60.138 73.1735 60.3678C73.0029 60.5976 72.7713 60.7272 72.5296 60.7284ZM41.6336 0.0536827C41.402 0.0542502 41.18 0.177939 41.0163 0.39766C40.8526 0.61738 40.7604 0.915222 40.76 1.22595V59.5024C40.7604 59.8132 40.8526 60.111 41.0163 60.3307C41.18 60.5505 41.402 60.6741 41.6336 60.6747H72.5296C72.7611 60.6741 72.9831 60.5505 73.1468 60.3307C73.3106 60.111 73.4027 59.8132 73.4032 59.5024V1.22595C73.4027 0.915222 73.3106 0.61738 73.1468 0.39766C72.9831 0.177939 72.7611 0.0542502 72.5296 0.0536827H41.6336Z" fill="#EBEBEB"/>
<path d="M23.9088 30.8162H22.832V70.3556H23.9088V30.8162Z" fill="#F5F5F5"/>
<path d="M28.1664 35.8379H27.0896V70.3576H28.1664V35.8379Z" fill="#F5F5F5"/>
<path d="M32.3841 40.8577H31.3073V70.3577H32.3841V40.8577Z" fill="#F5F5F5"/>
<path d="M36.6032 37.5105H35.5264V70.3577H36.6032V37.5105Z" fill="#F5F5F5"/>
<path d="M40.8224 35.8379H39.7456V70.3576H40.8224V35.8379Z" fill="#F5F5F5"/>
<path d="M45.0401 32.4907H43.9633V70.3577H45.0401V32.4907Z" fill="#F5F5F5"/>
<path d="M49.2592 34.1633H48.1824V70.3556H49.2592V34.1633Z" fill="#F5F5F5"/>
<path d="M53.4784 32.4907H52.4016V70.3577H53.4784V32.4907Z" fill="#F5F5F5"/>
<path d="M57.6959 29.1436H56.6191V70.3556H57.6959V29.1436Z" fill="#F5F5F5"/>
<path d="M61.9152 25.7964H60.8384V70.3556H61.9152V25.7964Z" fill="#F5F5F5"/>
<path d="M66.1328 22.4514H65.056V70.3578H66.1328V22.4514Z" fill="#F5F5F5"/>
<path d="M31.84 38.5068C31.78 38.5036 31.723 38.4707 31.68 38.4145L22.6656 26.6209C22.62 26.5612 22.5939 26.4795 22.5932 26.3939C22.5924 26.3084 22.617 26.2259 22.6616 26.1647C22.7061 26.1035 22.767 26.0685 22.8307 26.0675C22.8945 26.0665 22.956 26.0995 23.0016 26.1593L31.8704 37.764L44.3616 25.526C44.4099 25.4797 44.4693 25.4589 44.5283 25.4676C44.5873 25.4764 44.6419 25.5139 44.6816 25.5732L48.7712 31.7867L65.6992 18.7714C65.7266 18.7504 65.7568 18.7369 65.7881 18.7316C65.8195 18.7262 65.8513 18.7292 65.8817 18.7404C65.9122 18.7516 65.9407 18.7707 65.9656 18.7966C65.9906 18.8226 66.0115 18.8549 66.0272 18.8917C66.0428 18.9285 66.0529 18.969 66.0569 19.0111C66.0609 19.0531 66.0586 19.0958 66.0503 19.1366C66.042 19.1775 66.0277 19.2158 66.0084 19.2493C65.9891 19.2828 65.965 19.3108 65.9376 19.3318L48.84 32.4801C48.7919 32.5166 48.736 32.5298 48.6816 32.5177C48.6272 32.5056 48.5775 32.4689 48.5408 32.4136L44.4672 26.2302L31.9872 38.4446C31.9446 38.4865 31.8928 38.5084 31.84 38.5068Z" fill="#F0F0F0"/>
<path d="M30.824 70.111L22.9568 28.4782L23.3504 26.3977H22.9408V14.5054H21.8848V26.3977H21.4752L21.8688 28.4782L14 70.111H15.0896L21.8848 34.1527V70.33H22.9408V34.1527L29.736 70.111H30.824Z" fill="#E0E0E0"/>
<path d="M28.3406 28.0644C29.1133 23.6709 27.0856 19.2687 23.8115 18.2317C20.5373 17.1948 17.2567 19.9158 16.4839 24.3093C15.7112 28.7028 17.7389 33.105 21.013 34.142C24.2872 35.1789 27.5678 32.4579 28.3406 28.0644Z" fill="#E6E6E6"/>
<path d="M22.4128 33.1651C25.2847 33.1651 27.6128 30.041 27.6128 26.1873C27.6128 22.3335 25.2847 19.2095 22.4128 19.2095C19.5409 19.2095 17.2128 22.3335 17.2128 26.1873C17.2128 30.041 19.5409 33.1651 22.4128 33.1651Z" fill="#F5F5F5"/>
<path d="M22.4128 31.6491C24.6608 31.6491 26.4832 29.2037 26.4832 26.1871C26.4832 23.1705 24.6608 20.7251 22.4128 20.7251C20.1648 20.7251 18.3424 23.1705 18.3424 26.1871C18.3424 29.2037 20.1648 31.6491 22.4128 31.6491Z" fill="#E6E6E6"/>
<path d="M23.6903 30.3241C25.3924 29.378 26.2008 26.7593 25.4957 24.4752C24.7906 22.1911 22.8392 21.1064 21.137 22.0525C19.4348 22.9986 18.6265 25.6173 19.3316 27.9014C20.0366 30.1855 21.9881 31.2702 23.6903 30.3241Z" fill="#F5F5F5"/>
<path d="M24.6655 26.9005C24.9592 25.2305 24.1885 23.5573 22.944 23.1632C21.6996 22.769 20.4526 23.8032 20.1589 25.4732C19.8652 27.1431 20.6359 28.8163 21.8804 29.2105C23.1248 29.6046 24.3718 28.5704 24.6655 26.9005Z" fill="#E6E6E6"/>
<path d="M23.0498 28.2494C23.898 27.778 24.3008 26.473 23.9495 25.3348C23.5981 24.1966 22.6257 23.6561 21.7774 24.1275C20.9292 24.599 20.5264 25.9039 20.8778 27.0421C21.2291 28.1804 22.2016 28.7209 23.0498 28.2494Z" fill="#F5F5F5"/>
<path d="M23.1664 26.1894C23.1664 26.3899 23.1221 26.586 23.039 26.7527C22.956 26.9193 22.8379 27.0492 22.6998 27.1259C22.5617 27.2025 22.4098 27.2225 22.2633 27.1832C22.1167 27.1439 21.9822 27.0472 21.8766 26.9052C21.7711 26.7633 21.6993 26.5825 21.6703 26.3858C21.6414 26.1891 21.6565 25.9853 21.714 25.8001C21.7714 25.615 21.8684 25.4569 21.9928 25.3458C22.1172 25.2347 22.2634 25.1756 22.4128 25.176C22.5119 25.176 22.61 25.2023 22.7016 25.2532C22.7931 25.3042 22.8762 25.3788 22.9462 25.473C23.0162 25.5671 23.0717 25.6788 23.1095 25.8018C23.1473 25.9247 23.1666 26.0564 23.1664 26.1894Z" fill="#E6E6E6"/>
<path d="M14.5952 19.4478L14.76 20.9249L13.6144 21.4423L14.76 22.2496L15.9024 21.7107L15.7024 20.2529L14.5952 19.4478Z" fill="#E6E6E6"/>
<path d="M22.4127 26.1872L14.2159 20.5513" stroke="#E0E0E0" stroke-width="2" stroke-linecap="round" stroke-linejoin="round"/>
<path d="M33.6928 17.0064C33.692 16.711 33.7429 16.4195 33.8414 16.1553C33.9399 15.8911 34.0833 15.6616 34.2599 15.4853C34.4366 15.3091 34.6416 15.1909 34.8585 15.1403C35.0754 15.0898 35.2981 15.1083 35.5088 15.1943C35.4462 14.6247 35.4759 14.0436 35.5958 13.4907C35.7158 12.9378 35.9231 12.4261 36.2037 11.9905C36.4843 11.5548 36.8316 11.2055 37.2219 10.9662C37.6123 10.727 38.0364 10.6034 38.4656 10.604C38.6497 10.6039 38.8334 10.6269 39.0144 10.6727C39.3088 10.0234 39.7527 9.52011 40.2789 9.23887C40.8052 8.95764 41.3853 8.91368 41.9319 9.11362C42.4784 9.31357 42.9616 9.74657 43.3087 10.3473C43.6558 10.9481 43.8478 11.684 43.856 12.444H43.9008C44.539 12.444 45.1511 12.7842 45.6023 13.3898C46.0536 13.9954 46.3072 14.8167 46.3072 15.6731C46.3072 16.5295 46.0536 17.3509 45.6023 17.9564C45.1511 18.562 44.539 18.9022 43.9008 18.9022H35.0624C34.6949 18.8882 34.3461 18.6822 34.0903 18.3281C33.8344 17.9739 33.6918 17.4997 33.6928 17.0064Z" fill="#F0F0F0"/>
<path d="M58.7952 15.9675C58.7952 15.7255 58.8668 15.4934 58.9944 15.3223C59.1219 15.1511 59.2949 15.055 59.4752 15.055C59.5413 15.0558 59.607 15.0688 59.6704 15.0937C59.6602 15.0012 59.6549 14.908 59.6544 14.8145C59.6543 14.5305 59.7009 14.2499 59.7908 13.9928C59.8807 13.7357 60.0117 13.5083 60.1746 13.3269C60.3374 13.1454 60.5281 13.0144 60.733 12.9431C60.9379 12.8718 61.152 12.862 61.36 12.9144C61.5025 12.6022 61.7168 12.3606 61.9705 12.2259C62.2243 12.0912 62.5037 12.0708 62.7669 12.1676C63.03 12.2645 63.2626 12.4735 63.4296 12.763C63.5966 13.0526 63.6889 13.4071 63.6928 13.7732H63.7136C64.0212 13.7732 64.3163 13.9372 64.5338 14.2292C64.7514 14.5211 64.8736 14.917 64.8736 15.3298C64.8736 15.7427 64.7514 16.1386 64.5338 16.4305C64.3163 16.7224 64.0212 16.8864 63.7136 16.8864H59.456C59.278 16.8802 59.109 16.7804 58.9854 16.6085C58.8618 16.4366 58.7935 16.2064 58.7952 15.9675Z" fill="#F0F0F0"/>
<path d="M15.1552 17.1031C15.1552 17.0226 15.167 16.9428 15.19 16.8684C15.213 16.7941 15.2468 16.7265 15.2893 16.6697C15.3318 16.6128 15.3823 16.5678 15.4378 16.5371C15.4933 16.5065 15.5528 16.4909 15.6128 16.4912C15.6572 16.491 15.7014 16.4997 15.744 16.517C15.737 16.4544 15.7333 16.3913 15.7328 16.328C15.7349 15.9872 15.8367 15.6612 16.0163 15.4202C16.1958 15.1792 16.4388 15.0426 16.6928 15.0398C16.7529 15.0401 16.8129 15.048 16.872 15.0634C16.9669 14.8523 17.1106 14.6885 17.2812 14.5969C17.4518 14.5052 17.64 14.4907 17.8173 14.5555C17.9946 14.6203 18.1513 14.7609 18.2637 14.956C18.376 15.1512 18.4379 15.3901 18.44 15.6367H18.4544C18.6551 15.6489 18.8446 15.7645 18.9835 15.9594C19.1223 16.1544 19.1998 16.4137 19.1998 16.6833C19.1998 16.953 19.1223 17.2123 18.9835 17.4073C18.8446 17.6022 18.6551 17.7178 18.4544 17.73H15.6C15.5401 17.7281 15.4811 17.7103 15.4263 17.6777C15.3715 17.6452 15.3221 17.5984 15.2808 17.5402C15.2395 17.482 15.2071 17.4134 15.1856 17.3384C15.164 17.2634 15.1537 17.1835 15.1552 17.1031Z" fill="#F0F0F0"/>
<path d="M40.0001 80C57.1333 80 71.0225 78.9119 71.0225 77.5696C71.0225 76.2273 57.1333 75.1392 40.0001 75.1392C22.8669 75.1392 8.97766 76.2273 8.97766 77.5696C8.97766 78.9119 22.8669 80 40.0001 80Z" fill="#F5F5F5"/>
<path d="M22.1407 36.6303L23.2383 35.7887C23.2383 35.7887 23.6607 34.9149 23.7871 34.8741C23.9135 34.8333 25.3055 34.8741 25.3055 34.8741C25.3055 34.8741 25.0959 36.085 25.0735 36.3233C25.0511 36.5616 23.7231 36.3233 23.7231 36.3233L22.6479 37.1821L22.1407 36.6303Z" fill="#EBB376"/>
<path d="M11.9184 75.8004L10.7696 75.4934C10.749 75.4933 10.7291 75.5026 10.7131 75.5198C10.6971 75.5369 10.686 75.561 10.6816 75.5879L10.3728 77.1294C10.3663 77.1821 10.3746 77.2362 10.3962 77.281C10.4178 77.3259 10.4511 77.3584 10.4896 77.3721H10.5232C10.9296 77.3721 11.2256 77.3291 11.7344 77.3291C12.0544 77.3291 12.9952 77.3742 13.4288 77.3742C13.8624 77.3742 13.92 76.7988 13.7488 76.7473C12.9488 76.5132 12.3536 76.1912 12.0992 75.8885C12.0499 75.8283 11.9849 75.7967 11.9184 75.8004Z" fill="#263238"/>
<path d="M25.9776 75.7491H24.7232C24.7026 75.7485 24.6826 75.7576 24.6665 75.7749C24.6504 75.7922 24.6393 75.8165 24.6352 75.8435L24.4304 77.0888C24.4244 77.1415 24.4332 77.1952 24.4551 77.2397C24.477 77.2841 24.5104 77.316 24.5488 77.3293H24.5824C24.9888 77.3185 25.2832 77.2863 25.7936 77.2863C26.1136 77.2863 27.0544 77.3293 27.488 77.3293C27.9216 77.3293 27.9776 76.756 27.8 76.7023C27 76.4705 26.4048 76.1463 26.1504 75.8435C26.1278 75.813 26.1009 75.7889 26.0712 75.7727C26.0415 75.7564 26.0097 75.7484 25.9776 75.7491Z" fill="#263238"/>
<path d="M14.1328 47.3891L19.4448 45.5813C20.6496 49.111 25.0704 63.6034 26.1424 75.661L24.344 76.2729C24.344 76.2729 21.16 58.4913 18.4896 53.2998C18.4896 53.2998 18.3472 61.1923 18.0576 62.3409C17.8192 63.2856 12.352 75.9251 12.352 75.9251L10.576 75.6567C10.576 75.6567 15.04 62.7574 15.3024 61.1493C15.488 60.0543 14.6752 52.0116 14.6752 52.0116C14.5328 51.2945 14.3184 48.3252 14.3184 48.3252C14.3184 48.3252 14.1584 47.5372 14.1328 47.3891Z" fill="#2C75FB"/>
<path opacity="0.2" d="M18.4912 53.3042C18.942 54.2193 19.3354 55.183 19.6672 56.1855C19.2992 53.4073 18.1584 50.717 18.1584 50.717L18.4912 53.3042Z" fill="#00061A"/>
<path opacity="0.3" d="M14.1328 47.3891L19.4448 45.5813C20.6496 49.111 25.0704 63.6034 26.1424 75.661L24.344 76.2729C24.344 76.2729 21.16 58.4913 18.4896 53.2998C18.4896 53.2998 18.3472 61.1923 18.0576 62.3409C17.8192 63.2856 12.352 75.9251 12.352 75.9251L10.576 75.6567C10.576 75.6567 15.04 62.7574 15.3024 61.1493C15.488 60.0543 14.6752 52.0116 14.6752 52.0116C14.5328 51.2945 14.3184 48.3252 14.3184 48.3252C14.3184 48.3252 14.1584 47.5372 14.1328 47.3891Z" fill="#00061A"/>
<path d="M23.368 36.7527C23.368 36.7527 20.9456 38.947 20.3072 39.0629C20.0528 39.1101 19.528 38.9942 18.9856 38.8482C18.1632 38.612 17.3056 38.2814 17.3056 38.2814L17.1984 37.1928L17.0848 36.0292C17.2768 35.9433 19.7824 37.3174 20.1568 37.5321C20.5312 37.7468 22.952 35.8145 22.952 35.8145L23.368 36.7527Z" fill="#263238"/>
<path d="M15.8768 46.8867L16.0336 47.7112L14.3184 48.3252L14.1584 47.4707L15.8768 46.8867Z" fill="#00061A"/>
<path d="M18.5823 45.9656L18.7311 46.7471L16.2239 47.6445L16.0671 46.8222L18.5823 45.9656Z" fill="#00061A"/>
<path d="M19.7184 46.395L18.92 46.6805L18.7728 45.9012L19.5056 45.6521L19.7184 46.395Z" fill="#00061A"/>
<path d="M17.2184 47.2869L18.2079 46.9502L18.027 45.9929L17.0375 46.3296L17.2184 47.2869Z" fill="white"/>
<path d="M19.504 45.6499L14.1568 47.4706C13.896 46.5237 13.6304 45.5704 13.3712 44.6408C13.1808 43.9602 12.9936 43.2925 12.8112 42.6462C12.7654 42.4802 12.719 42.317 12.672 42.1567L12.512 41.5856C12.3936 41.1676 12.2795 40.7647 12.1696 40.3768L11.8752 39.3441L11.736 38.8546L11.472 37.9314L17.0864 36.0205C18.9376 40.3553 19.504 45.6499 19.504 45.6499Z" fill="#263238"/>
<path d="M13.5104 37.7469C14.088 38.1183 15.1536 37.4635 15.1536 37.4635C15.1536 37.4635 15.5072 36.9396 15.296 36.7077C14.8672 36.7829 14.8944 36.5939 14.7392 36.2998C14.6505 36.1141 14.5896 35.907 14.56 35.69C14.5408 35.5702 14.5264 35.4491 14.5168 35.3272L12.832 34.5156C13.2144 35.3444 13.808 36.9138 13.5104 37.7469Z" fill="#EBB376"/>
<path opacity="0.2" d="M13.344 35.2563C13.648 36.3406 14.3936 36.3728 14.7392 36.2998C14.6504 36.1141 14.5896 35.907 14.56 35.69L13.344 35.2563Z" fill="#00061A"/>
<path d="M15.5392 31.1426C15.5392 31.1426 15.9792 32.9246 15.344 33.7941C14.7088 34.6637 14.2784 31.2564 14.2784 31.2564L15.5392 31.1426Z" fill="#263238"/>
<path d="M13.4272 35.7351C13.6173 36.0012 13.8671 36.1764 14.1385 36.2338C14.4098 36.2912 14.6877 36.2276 14.9296 36.0529C15.2467 35.833 15.4893 35.459 15.608 35.0073C15.624 34.9471 15.6384 34.8827 15.6512 34.8183C15.8656 33.6181 15.7312 31.6364 14.7568 31.104C14.542 30.9852 14.3082 30.9421 14.0775 30.9788C13.8468 31.0155 13.627 31.1308 13.4389 31.3137C13.2508 31.4966 13.1007 31.741 13.0028 32.0238C12.905 32.3065 12.8627 32.6181 12.88 32.9289C12.9376 34.2665 12.9248 35.0523 13.4272 35.7351Z" fill="#EBB376"/>
<path d="M14.3888 33.3089C14.3888 33.4162 14.4304 33.5042 14.4848 33.5042C14.5392 33.5042 14.5792 33.4162 14.5808 33.3089C14.5824 33.2015 14.5376 33.1113 14.4848 33.1113C14.432 33.1113 14.3888 33.1994 14.3888 33.3089Z" fill="#263238"/>
<path d="M15.304 33.3089C15.304 33.4184 15.3472 33.5064 15.4 33.5064C15.4528 33.5064 15.4944 33.4163 15.496 33.3089C15.4976 33.2016 15.4512 33.1135 15.4 33.1135C15.3488 33.1135 15.304 33.2058 15.304 33.3089Z" fill="#263238"/>
<path d="M15.0128 33.3625C15.1085 33.695 15.2383 34.0079 15.3984 34.2922C15.3429 34.3456 15.2793 34.3819 15.2121 34.3986C15.1449 34.4153 15.0758 34.412 15.0096 34.3888L15.0128 33.3625Z" fill="#D58745"/>
<path d="M15.6384 32.8066C15.6307 32.8118 15.6222 32.8146 15.6136 32.8146C15.6049 32.8146 15.5964 32.8118 15.5888 32.8066C15.5414 32.7578 15.4862 32.7245 15.4276 32.7096C15.3689 32.6947 15.3085 32.6985 15.2512 32.7207C15.2395 32.7267 15.2265 32.7262 15.2151 32.7193C15.2037 32.7125 15.1948 32.6998 15.1904 32.6842C15.1859 32.6685 15.1863 32.6511 15.1914 32.6358C15.1965 32.6205 15.2059 32.6086 15.2176 32.6026C15.2893 32.5722 15.3655 32.5655 15.4396 32.583C15.5137 32.6006 15.5835 32.6419 15.6432 32.7035C15.6484 32.7081 15.6529 32.714 15.6564 32.7209C15.6599 32.7278 15.6623 32.7357 15.6635 32.7439C15.6647 32.7521 15.6646 32.7606 15.6633 32.7687C15.6621 32.7769 15.6595 32.7847 15.656 32.7915C15.6506 32.7975 15.6447 32.8026 15.6384 32.8066Z" fill="#263238"/>
<path d="M14.208 32.8214C14.1989 32.8198 14.1901 32.8154 14.1824 32.8086C14.1736 32.7965 14.1687 32.7803 14.1687 32.7635C14.1687 32.7466 14.1736 32.7304 14.1824 32.7184C14.2383 32.6497 14.3058 32.6001 14.3791 32.574C14.4524 32.5478 14.5292 32.5458 14.6032 32.5681C14.6149 32.5731 14.6247 32.5838 14.6307 32.5982C14.6366 32.6126 14.6382 32.6295 14.6352 32.6454C14.6315 32.6616 14.6233 32.6753 14.6123 32.6837C14.6013 32.6921 14.5883 32.6945 14.576 32.6905C14.5177 32.6747 14.4573 32.6778 14.4 32.6995C14.3427 32.7211 14.2901 32.7607 14.2464 32.815C14.2407 32.8196 14.2343 32.8225 14.2277 32.8236C14.2211 32.8248 14.2144 32.824 14.208 32.8214Z" fill="#263238"/>
<path d="M13.6096 31.2715L13.7056 31.5184C13.3856 31.6837 13.4656 32.1904 13.5456 32.4158C13.7056 32.9011 13.5216 33.6804 13.2512 34.0046C13.2512 34.0046 13.2336 33.7899 13.1008 33.85C12.968 33.9102 13.0448 35.0223 13.3264 35.5376C13.3264 35.5376 12.912 35.0803 12.6464 33.9252C12.4016 32.8517 12.344 31.9564 12.496 31.527L13.6096 31.2715Z" fill="#263238"/>
<path d="M12.4447 34.0283C12.4992 34.1782 12.5751 34.3123 12.6682 34.4228C12.7612 34.5333 12.8696 34.6181 12.9871 34.6724C13.3071 34.8141 13.4671 34.4427 13.4031 34.0283C13.3359 33.6654 13.0943 33.1394 12.7631 33.1802C12.6933 33.1907 12.6265 33.2243 12.5688 33.2782C12.5111 33.332 12.4644 33.4043 12.4327 33.4885C12.4011 33.5727 12.3857 33.6662 12.3878 33.7604C12.3899 33.8547 12.4094 33.9468 12.4447 34.0283Z" fill="#EBB376"/>
<path d="M13.6 36.2719C14.0704 36.7142 14.9872 36.858 15.4368 36.0572C15.8864 35.2563 15.7424 33.9703 15.7424 33.9703C15.6907 34.2575 15.5924 34.5259 15.4544 34.7561C15.2 34.3439 14.768 34.5779 14.768 34.5779C14.6769 34.4189 14.5463 34.3092 14.4 34.2687C14.1904 34.2408 13.6 34.288 13.6 34.288C13.4112 34.127 13.4032 33.4099 13.4032 33.4099L13.288 33.5387C13.288 33.5387 13.128 35.8275 13.6 36.2719Z" fill="#263238"/>
<path d="M14.8576 31.7266C14.8576 31.7266 15.9776 30.9966 15.8448 30.2666C15.712 29.5367 15.3856 30.3697 15.3856 30.3697C15.3856 30.3697 15.536 29.8158 15.2416 29.7256C14.9472 29.6354 15.04 29.9897 14.88 30.2022C14.72 30.4148 13.168 30.1056 12.6672 30.5221C12.1664 30.9387 12.5488 32.3793 12.5488 32.3793C12.8446 31.9808 13.2206 31.7069 13.6307 31.5909C14.0408 31.475 14.4672 31.5221 14.8576 31.7266Z" fill="#263238"/>
<path opacity="0.2" d="M13.6 36.2719C14.0704 36.7142 14.9872 36.858 15.4368 36.0572C15.8864 35.2563 15.7424 33.9703 15.7424 33.9703C15.6907 34.2575 15.5924 34.5259 15.4544 34.7561C15.2 34.3439 14.768 34.5779 14.768 34.5779C14.6769 34.4189 14.5463 34.3092 14.4 34.2687C14.1904 34.2408 13.6 34.288 13.6 34.288C13.4112 34.127 13.4032 33.4099 13.4032 33.4099L13.288 33.5387C13.288 33.5387 13.128 35.8275 13.6 36.2719Z" fill="white"/>
<path d="M14.816 34.9856C14.7299 35.1403 14.6523 35.3032 14.584 35.473L14.512 35.4365C14.192 35.2798 14.0768 35.0651 14.0512 34.8718C14.0408 34.7782 14.0469 34.6827 14.0688 34.5927C14.0804 34.5407 14.0971 34.4909 14.1184 34.4446C14.2867 34.6602 14.4875 34.8249 14.7072 34.9277C14.7728 34.9663 14.816 34.9856 14.816 34.9856Z" fill="#263238"/>
<path d="M14.7072 34.9299L14.6352 35.0716C14.3312 34.9234 14.1312 34.7645 14.0688 34.5949C14.0805 34.5429 14.0972 34.4931 14.1184 34.4468C14.2867 34.6624 14.4875 34.8271 14.7072 34.9299Z" fill="white"/>
<path d="M14.5119 35.4367C14.1919 35.28 14.0767 35.0653 14.0511 34.8721C14.1733 34.9359 14.2865 35.0274 14.3855 35.1426C14.4497 35.2204 14.4939 35.3233 14.5119 35.4367Z" fill="#DE5753"/>
<path d="M15.3648 37.4656L15.2704 38.5777L16.9984 43.518L16.8272 44.1729L16.2624 43.8207L15.0304 38.7838L14.1248 37.9615L14.784 37.4763L15.3648 37.4656Z" fill="#2C75FB"/>
<path d="M13.5488 36.7056L14.6928 37.339L14.7392 36.2998L15.5824 36.5789L15.6544 38.1613L14.8432 37.7168L14.504 38.7302L13.0624 37.4377L13.5488 36.7056Z" fill="#263238"/>
<path opacity="0.2" d="M13.5488 36.7056L14.6928 37.339L14.7392 36.2998L15.5824 36.5789L15.6544 38.1613L14.8432 37.7168L14.504 38.7302L13.0624 37.4377L13.5488 36.7056Z" fill="white"/>
<path opacity="0.2" d="M12.5104 41.5856C12.392 41.1677 12.2778 40.7648 12.168 40.3769L11.8736 39.3442L11.7344 38.8546C11.8944 38.7494 12.3024 38.8117 12.416 39.0693C12.832 40.0441 12.5104 41.5856 12.5104 41.5856Z" fill="#00061A"/>
<path opacity="0.2" d="M14.5152 42.6764C14.4468 43.0982 14.3085 43.4939 14.1104 43.834C13.9123 44.1741 13.6597 44.4499 13.3712 44.6409C13.1808 43.9603 12.9936 43.2926 12.8112 42.6463C12.7653 42.4803 12.7189 42.3171 12.672 42.1568L12.512 41.5857L14.3648 41.9013L14.5152 42.6764Z" fill="#00061A"/>
<path opacity="0.2" d="M18.9856 38.8397C18.1632 38.6035 17.3056 38.2729 17.3056 38.2729L17.1984 37.1843C17.1984 37.1843 18.7104 37.4012 18.9856 38.8397Z" fill="#00061A"/>
<path d="M11.4704 64.2066C11.4203 64.2089 11.3708 64.19 11.3291 64.1526C11.2874 64.1152 11.2554 64.0611 11.2378 63.9981C11.2201 63.9351 11.2176 63.8662 11.2306 63.8011C11.2437 63.7361 11.2716 63.6782 11.3104 63.6355C13.9808 60.6941 13.9296 56.0845 13.88 51.6251C13.8416 48.2629 13.8064 45.0853 14.9856 42.9254C16.64 39.8895 23.2944 35.0738 24.3968 34.9364C25.1856 34.8312 49.2448 25.8588 61.8576 21.1289C61.9189 21.1058 61.9846 21.1164 62.0401 21.1583C62.0956 21.2002 62.1364 21.2699 62.1536 21.3522C62.1708 21.4345 62.1629 21.5225 62.1317 21.597C62.1005 21.6715 62.0485 21.7263 61.9872 21.7494C60.4944 22.3098 25.4304 35.4559 24.4416 35.5783C23.4928 35.6964 16.9056 40.4928 15.3728 43.3076C14.2896 45.2936 14.3232 48.3659 14.36 51.6165C14.408 56.0136 14.464 60.999 11.6144 64.1358C11.5736 64.1802 11.5229 64.2051 11.4704 64.2066Z" fill="#263238"/>
<g opacity="0.4">
<path opacity="0.4" d="M61.9952 21.7473L58.7056 22.984C49.6576 26.372 25.2656 35.4797 24.4496 35.5806C23.5008 35.6987 16.9136 40.4951 15.3808 43.3098C14.2976 45.2958 14.3312 48.3682 14.368 51.6188C14.416 56.0159 14.472 61.0013 11.6224 64.1381C11.5775 64.188 11.5206 64.2139 11.4624 64.211C11.4122 64.2133 11.3628 64.1944 11.321 64.157C11.2793 64.1196 11.2474 64.0655 11.2297 64.0025C11.212 63.9395 11.2096 63.8706 11.2226 63.8055C11.2356 63.7405 11.2635 63.6826 11.3024 63.6399C13.9728 60.6985 13.9216 56.0889 13.872 51.6295C13.8336 48.2673 13.7984 45.0897 14.9776 42.9298C16.632 39.8939 23.2864 35.0782 24.3888 34.9408C25.1312 34.842 46.4464 26.9023 59.4736 22.0243L61.8496 21.1333C61.9109 21.1102 61.9765 21.1208 62.032 21.1627C62.0876 21.2045 62.1284 21.2743 62.1456 21.3566C62.1628 21.4389 62.1549 21.5269 62.1237 21.6014C62.0925 21.6759 62.0405 21.7307 61.9792 21.7538L61.9952 21.7473Z" fill="white"/>
</g>
<path opacity="0.2" d="M61.9952 21.7473L58.7056 22.984C58.9362 22.621 59.1995 22.2979 59.4896 22.0221L61.8656 21.1311C61.9269 21.108 61.9925 21.1186 62.048 21.1605C62.1035 21.2024 62.1444 21.2721 62.1616 21.3544C62.1788 21.4367 62.1709 21.5247 62.1397 21.5992C62.1085 21.6737 62.0565 21.7285 61.9952 21.7516V21.7473Z" fill="#00061A"/>
<path d="M13.1056 42.0495L14.3632 41.9014C14.3632 41.9014 15.0208 41.3431 15.1472 41.3796C15.2736 41.4161 16.5264 42.2385 16.5264 42.2385C16.5264 42.2385 15.9584 43.2196 15.864 43.4236C15.7696 43.6276 14.6384 42.6657 14.6384 42.6657L13.392 42.8439L13.1056 42.0495Z" fill="#EBB376"/>
<path d="M11.4704 37.9314C10.8992 38.4789 9.41119 42.9425 9.56959 43.6317C9.72799 44.3209 14.3584 42.9619 14.3584 42.9619L14.1536 41.8003H11.6624L12.2544 40.5465C12.2544 40.5465 12.6192 40.0698 12.3952 38.962C12.2336 38.1633 11.4704 37.9314 11.4704 37.9314Z" fill="#263238"/>
<path d="M59.7136 38.38L58.7648 37.7767C58.7648 37.7767 58.2848 36.5443 58.144 36.3468C58.0032 36.1493 57.3232 36.9157 57.3232 37.0489C57.3232 37.182 57.816 38.4273 57.944 38.5024C58.1345 38.5399 58.328 38.5399 58.5184 38.5024L59.4208 39.0885L59.7136 38.38Z" fill="#9F5B53"/>
<path d="M61.928 30.7431L62.1184 29.8306C62.1184 29.8306 62.4192 28.6411 62.3872 28.3663C62.3284 28.041 62.2525 27.7218 62.16 27.4109C62.16 27.4109 61.328 28.77 61.328 28.9396C61.328 29.1092 61.6576 29.7254 61.6576 29.7254L61.4976 30.7431H61.928Z" fill="#9F5B53"/>
<path d="M62.6592 37.5405C62.6592 37.5405 61.9424 36.3446 61.7312 35.2325C61.52 34.1203 62.1584 30.509 62.1584 30.509L61.4848 30.2686C61.4848 30.2686 60.6848 33.9636 60.6576 35.3119C60.6304 36.6602 62.1248 40.6172 62.1248 40.6172L62.6592 37.5405Z" fill="#2C75FB"/>
<path opacity="0.2" d="M62.2255 40.0225L62.1231 40.6087C62.1231 40.6087 61.6079 39.2453 61.1871 37.8455C61.625 38.2676 61.9552 38.8606 62.1327 39.5437C62.1734 39.6997 62.2044 39.8598 62.2255 40.0225Z" fill="#00061A"/>
<path d="M66.4544 40.16C66.4454 40.4095 66.4229 40.6577 66.3872 40.9029C66.3136 41.4396 66.1888 42.073 66.0464 42.7708C65.9696 43.1379 65.8864 43.5308 65.8128 43.9452C65.456 45.8066 65.2624 46.5474 64.9984 48.9241L59.9344 47.3117C60.2081 45.2771 60.6255 43.2822 61.1808 41.3537C61.328 40.8406 61.5008 40.3275 61.6752 39.8208C61.9549 39.0263 62.284 38.265 62.6592 37.5449C62.6592 37.5449 63.4784 38.5497 66.0512 39.153C66.3632 39.2174 66.4704 39.5824 66.4544 40.16Z" fill="#2C75FB"/>
<path opacity="0.2" d="M65.8176 39.3848C65.8176 39.5995 66.424 40.6215 66.3872 40.8877C66.3184 40.95 66.2368 41.0187 66.144 41.1024C64.4304 42.44 62.1824 41.7616 61.184 41.3472C61.3312 40.8341 61.664 39.8915 61.8368 39.3848L63.0384 39.7434C63.0384 39.7434 65.0032 39.1422 65.8176 39.3848Z" fill="#00061A"/>
<path d="M63.7583 37.9505C63.9423 37.856 65.4527 38.3606 65.3407 38.4035C65.2287 38.4464 64.6655 40.7652 63.8767 40.5913C63.0879 40.4174 63.1023 38.2854 63.7583 37.9505Z" fill="#2C75FB"/>
<path d="M56.92 75.9421L55.9696 76.2191L55.4144 73.2841L56.3664 73.0093L56.92 75.9421Z" fill="#9F5B53"/>
<path d="M55.7328 75.6865H56.9152C56.9345 75.6865 56.9532 75.6955 56.9681 75.712C56.983 75.7284 56.9931 75.7513 56.9968 75.7767L57.1888 76.9382C57.1931 76.963 57.1935 76.9887 57.1902 77.0138C57.187 77.0389 57.18 77.0628 57.1697 77.0842C57.1594 77.1056 57.146 77.1241 57.1304 77.1384C57.1147 77.1528 57.097 77.1628 57.0784 77.1679H57.0464C56.664 77.1679 56.3856 77.1271 55.9056 77.1271C55.6096 77.1271 54.7168 77.1679 54.3056 77.1679C53.8944 77.1679 53.8448 76.6269 54.0112 76.5775C54.7616 76.3628 55.3264 76.0536 55.5664 75.7659C55.5889 75.7386 55.6151 75.7174 55.6437 75.7038C55.6723 75.6902 55.7026 75.6843 55.7328 75.6865Z" fill="#263238"/>
<path d="M55.4111 75.9163C55.3449 75.9229 55.279 75.8994 55.2239 75.8497C55.206 75.83 55.1921 75.8045 55.1837 75.7755C55.1753 75.7465 55.1726 75.7151 55.1759 75.6844C55.1752 75.6663 55.1784 75.6483 55.1852 75.6326C55.1921 75.6169 55.2022 75.6043 55.2143 75.5963C55.3231 75.5212 55.6367 75.781 55.6719 75.8111C55.676 75.8138 55.6793 75.8181 55.6813 75.8236C55.6833 75.829 55.6839 75.8352 55.6831 75.8411C55.6826 75.8473 55.6806 75.8532 55.6774 75.8578C55.6742 75.8624 55.6701 75.8656 55.6655 75.8669C55.5824 75.8961 55.497 75.9126 55.4111 75.9163ZM55.2655 75.6457C55.2562 75.6415 55.2461 75.6415 55.2367 75.6457C55.2367 75.6457 55.2223 75.6565 55.2207 75.6822C55.2191 75.7026 55.2211 75.7232 55.2267 75.7423C55.2323 75.7613 55.2412 75.7783 55.2527 75.7917C55.3615 75.8585 55.4851 75.8669 55.5983 75.8154C55.4966 75.7305 55.3836 75.6729 55.2655 75.6457Z" fill="#2C75FB"/>
<path d="M55.6592 75.869H55.648C55.5488 75.796 55.3536 75.5083 55.3728 75.3708C55.3764 75.3477 55.3859 75.327 55.3996 75.3122C55.4133 75.2973 55.4304 75.2892 55.448 75.2893C55.4655 75.2861 55.4833 75.2882 55.5001 75.2952C55.517 75.3023 55.5325 75.3142 55.5456 75.3301C55.6576 75.4524 55.6816 75.8282 55.6832 75.8453C55.6834 75.8509 55.6825 75.8565 55.6805 75.8614C55.6786 75.8664 55.6756 75.8705 55.672 75.8733C55.6698 75.8742 55.6674 75.8743 55.6651 75.8735C55.6629 75.8727 55.6608 75.8712 55.6592 75.869ZM55.464 75.3386H55.4528C55.4224 75.3386 55.4208 75.3623 55.4192 75.3708C55.4064 75.4567 55.5312 75.6736 55.6304 75.7745C55.6249 75.628 55.5864 75.4873 55.52 75.3708C55.5128 75.3606 55.5041 75.3525 55.4945 75.347C55.4848 75.3414 55.4745 75.3386 55.464 75.3386Z" fill="#2C75FB"/>
<path d="M65.04 49.1021C65.04 49.1021 64.2192 54.3537 62.2992 55.7579C62.0789 55.9241 61.8374 56.0341 61.5872 56.0821C61.5872 56.0821 59.64 57.1556 57.9568 58.1711C56.9328 58.7916 56.0064 59.3971 55.6752 59.7363C54.7984 60.6316 56.9456 74.6087 56.9456 74.6087L55.4864 74.6301C55.4864 74.6301 52.416 62.2547 52.9264 59.0063C53.4368 55.7579 58.9472 50.7854 58.9472 50.7854L59.7952 47.655L65.04 49.1021Z" fill="#263238"/>
<path opacity="0.2" d="M62.2992 55.7643C62.0789 55.9306 61.8374 56.0405 61.5872 56.0885C61.5872 56.0885 59.64 57.162 57.9568 58.1776C59.04 55.5045 60.9712 53.7676 60.9712 53.7676L62.2992 55.7643Z" fill="#00061A"/>
<path d="M69.1536 75.9421L68.2032 76.2191L67.6479 73.2841L68.6 73.0093L69.1536 75.9421Z" fill="#9F5B53"/>
<path d="M67.9664 75.6865H69.1488C69.168 75.6865 69.1867 75.6955 69.2016 75.712C69.2165 75.7284 69.2267 75.7513 69.2304 75.7767L69.4224 76.9382C69.4266 76.963 69.4271 76.9887 69.4238 77.0138C69.4205 77.0389 69.4135 77.0628 69.4032 77.0842C69.3929 77.1056 69.3795 77.1241 69.3639 77.1384C69.3482 77.1528 69.3306 77.1628 69.312 77.1679H69.28C68.8976 77.1679 68.6192 77.1271 68.1392 77.1271C67.8432 77.1271 66.9504 77.1679 66.5392 77.1679C66.128 77.1679 66.0784 76.6269 66.2448 76.5775C66.9952 76.3628 67.56 76.0536 67.8 75.7659C67.8224 75.7386 67.8486 75.7174 67.8772 75.7038C67.9058 75.6902 67.9361 75.6843 67.9664 75.6865Z" fill="#263238"/>
<path d="M67.6448 75.9163C67.5786 75.9229 67.5126 75.8994 67.4576 75.8497C67.4396 75.83 67.4258 75.8045 67.4174 75.7755C67.409 75.7465 67.4063 75.7151 67.4096 75.6844C67.4088 75.6663 67.4121 75.6483 67.4189 75.6326C67.4257 75.6169 67.4358 75.6043 67.448 75.5963C67.5568 75.5212 67.8704 75.781 67.9056 75.8111C67.9096 75.8138 67.9129 75.8181 67.9149 75.8236C67.9169 75.829 67.9176 75.8352 67.9168 75.8411C67.9162 75.8473 67.9142 75.8532 67.9111 75.8578C67.9079 75.8624 67.9037 75.8656 67.8992 75.8669C67.816 75.8961 67.7307 75.9126 67.6448 75.9163ZM67.4992 75.6457C67.4898 75.6415 67.4797 75.6415 67.4704 75.6457C67.4704 75.6457 67.456 75.6565 67.4544 75.6822C67.4527 75.7026 67.4548 75.7232 67.4603 75.7423C67.4659 75.7613 67.4748 75.7783 67.4864 75.7917C67.5951 75.8585 67.7187 75.8669 67.832 75.8154C67.7303 75.7305 67.6172 75.6729 67.4992 75.6457Z" fill="#2C75FB"/>
<path d="M67.8928 75.869H67.8816C67.7824 75.796 67.5872 75.5083 67.6064 75.3708C67.6101 75.3477 67.6196 75.327 67.6332 75.3122C67.6469 75.2973 67.664 75.2892 67.6816 75.2893C67.6991 75.2861 67.7169 75.2882 67.7338 75.2952C67.7506 75.3023 67.7661 75.3142 67.7792 75.3301C67.8912 75.4524 67.9152 75.8282 67.9168 75.8453C67.9171 75.8509 67.9162 75.8565 67.9142 75.8614C67.9122 75.8664 67.9092 75.8705 67.9056 75.8733C67.9034 75.8742 67.901 75.8743 67.8988 75.8735C67.8965 75.8727 67.8945 75.8712 67.8928 75.869ZM67.6976 75.3386H67.68C67.6496 75.3386 67.648 75.3623 67.6464 75.3708C67.6336 75.4567 67.7584 75.6736 67.8576 75.7745C67.8514 75.6258 67.8112 75.4834 67.7424 75.3666C67.7302 75.3509 67.7144 75.3411 67.6976 75.3386Z" fill="#2C75FB"/>
<path d="M65.3679 39.0627C65.1295 39.2774 64.0303 39.1959 64.0303 39.1959L63.5199 39.9452L63.4703 38.7063C63.4703 38.7063 63.1263 38.5153 63.2207 38.3821C63.3404 38.3941 63.4606 38.3739 63.5744 38.3226C63.6881 38.2714 63.7931 38.1901 63.8831 38.0837C64.1055 37.7917 64.1487 37.3215 64.1455 36.8556C64.1455 36.8556 64.1455 36.8427 64.1455 36.8384L65.0847 36.1943L65.7343 35.7456C65.4287 36.6302 64.9919 38.2898 65.3679 39.0627Z" fill="#9F5B53"/>
<path opacity="0.2" d="M65.3952 36.4884C65.0848 37.5426 64.2752 38.0128 63.8768 38.0815C64.0992 37.7895 64.1424 37.3193 64.1392 36.8534C64.14 36.847 64.14 36.8404 64.1392 36.834L65.0784 36.1899C65.08 36.3617 65.44 36.3274 65.3952 36.4884Z" fill="#00061A"/>
<path d="M65.992 36.4455C65.992 36.4455 66.6016 36.8749 66.8048 36.3617C67.008 35.8486 66.7184 35.8185 67.0176 35.6339C67.3168 35.4492 67.7424 35.3204 67.6448 34.9318C67.5472 34.5432 67.2448 34.5024 67.5808 34.073C67.9168 33.6436 67.9904 33.0381 67.488 32.9201C66.9856 32.802 67.1776 32.276 67.152 32.0612C67.1264 31.8465 66.8448 31.6963 66.5392 31.7821C66.2336 31.868 66.1056 31.2604 65.9168 31.0715C65.728 30.8825 65.4672 31.1144 65.3984 31.3699C65.3296 31.6254 65.1488 31.2862 64.88 31.2432C64.6112 31.2003 64.6736 31.5803 64.5904 31.9346C64.5072 32.2888 64.3424 32.0591 64.1504 32.3511C63.9584 32.6431 63.9408 34.6355 65.992 36.4455Z" fill="#263238"/>
<path d="M66.2576 35.2217C65.7984 36.1879 65.5376 36.8255 65.0224 37.139C64.953 37.1819 64.8814 37.2178 64.808 37.2464C63.8064 37.6414 62.9808 36.3468 63.2448 35.065C63.295 34.8336 63.3592 34.6082 63.4368 34.3908C63.7952 33.3839 64.4848 32.3533 65.3088 32.4886C65.4809 32.515 65.6474 32.5866 65.7987 32.6995C65.9501 32.8123 66.0834 32.9642 66.191 33.1462C66.2986 33.3283 66.3784 33.5371 66.4258 33.7606C66.4732 33.9841 66.4873 34.218 66.4672 34.4488C66.443 34.7248 66.3712 34.9894 66.2576 35.2217Z" fill="#9F5B53"/>
<path d="M64.848 34.5775C64.8144 34.6742 64.7424 34.7171 64.6976 34.6849C64.6528 34.6527 64.648 34.5475 64.6848 34.4573C64.7216 34.3671 64.792 34.3178 64.8352 34.35C64.8784 34.3822 64.8864 34.4895 64.848 34.5775Z" fill="#263238"/>
<path d="M64.072 34.0044C64.062 34.0448 64.0408 34.0784 64.0127 34.098C63.9846 34.1177 63.9519 34.1218 63.9216 34.1096C63.8784 34.0753 63.872 33.9744 63.9104 33.882C63.9488 33.7897 64.016 33.7425 64.0608 33.7768C64.1056 33.8112 64.1088 33.9164 64.072 34.0044Z" fill="#263238"/>
<path d="M64.3008 34.2341C64.1019 34.4535 63.8818 34.6355 63.6464 34.7752C63.6745 34.8555 63.7154 34.9266 63.7663 34.9834C63.8172 35.0402 63.8767 35.0812 63.9408 35.1037L64.3008 34.2341Z" fill="#892B29"/>
<path d="M65.312 34.3371C65.3036 34.3388 65.2951 34.3375 65.2872 34.3334C65.2794 34.3292 65.2725 34.3224 65.2672 34.3135C65.2348 34.2493 65.1915 34.1964 65.1409 34.1591C65.0902 34.1217 65.0337 34.1011 64.976 34.0988C64.9693 34.1005 64.9624 34.1002 64.9558 34.0979C64.9492 34.0956 64.943 34.0914 64.9378 34.0855C64.9325 34.0797 64.9283 34.0724 64.9254 34.0641C64.9225 34.0558 64.921 34.0468 64.921 34.0376C64.921 34.0285 64.9225 34.0194 64.9254 34.0111C64.9283 34.0028 64.9325 33.9955 64.9378 33.9897C64.943 33.9838 64.9492 33.9796 64.9558 33.9773C64.9624 33.975 64.9693 33.9747 64.976 33.9764C65.0489 33.9771 65.1206 34.0014 65.185 34.0474C65.2494 34.0934 65.3045 34.1597 65.3456 34.2405C65.3494 34.2468 65.3522 34.254 65.3538 34.2618C65.3555 34.2696 65.3559 34.2777 65.3552 34.2857C65.3545 34.2937 65.3525 34.3015 65.3495 34.3085C65.3465 34.3154 65.3424 34.3215 65.3376 34.3264C65.3298 34.3327 65.3211 34.3364 65.312 34.3371Z" fill="#263238"/>
<path d="M64.128 35.6791C64.2354 35.7259 64.3497 35.7373 64.4611 35.7123C64.5725 35.6872 64.6778 35.6265 64.768 35.5353C64.772 35.529 64.7742 35.521 64.7742 35.5127C64.7742 35.5044 64.772 35.4964 64.768 35.4902C64.7635 35.4843 64.7574 35.481 64.7512 35.481C64.7449 35.481 64.7388 35.4843 64.7344 35.4902C64.6489 35.5726 64.5504 35.6271 64.4465 35.6495C64.3426 35.6718 64.2363 35.6614 64.136 35.619C64.1332 35.6173 64.1301 35.6165 64.127 35.6165C64.1239 35.6166 64.1209 35.6176 64.1182 35.6195C64.1154 35.6213 64.113 35.624 64.1111 35.6272C64.1092 35.6305 64.1078 35.6343 64.1072 35.6383C64.1059 35.6421 64.1053 35.6462 64.1054 35.6503C64.1054 35.6544 64.1062 35.6585 64.1075 35.6622C64.1089 35.6659 64.1109 35.6691 64.1133 35.6717C64.1157 35.6742 64.1186 35.676 64.1216 35.6769L64.128 35.6791Z" fill="#263238"/>
<path d="M64 33.1135C63.9976 33.1015 63.9976 33.0889 64 33.077C64.0052 33.0623 64.0145 33.051 64.0259 33.0453C64.0372 33.0397 64.0498 33.0403 64.0608 33.0469C64.1279 33.0872 64.1868 33.1487 64.2325 33.2261C64.2782 33.3034 64.3093 33.3944 64.3232 33.4913C64.3246 33.5075 64.3211 33.5238 64.3137 33.5367C64.3062 33.5495 64.2952 33.5579 64.2832 33.5601C64.2711 33.5619 64.259 33.5573 64.2494 33.5472C64.2399 33.5372 64.2336 33.5225 64.232 33.5064C64.2194 33.4306 64.1938 33.3598 64.1571 33.2998C64.1204 33.2398 64.0737 33.1921 64.0208 33.1607C64.0151 33.1552 64.0103 33.1481 64.0067 33.14C64.0032 33.1319 64.0009 33.1228 64 33.1135Z" fill="#263238"/>
<path d="M64.6592 32.5787C64.8928 32.6173 65.008 33.0081 65.008 33.0081C65.2904 33.1466 65.5634 33.3176 65.824 33.5191C65.9034 33.606 65.9632 33.7211 65.9966 33.8512C66.03 33.9813 66.0356 34.1213 66.0128 34.2555C66.0048 34.3585 65.816 34.453 65.816 34.453C65.816 34.453 65.4704 35.548 65.376 35.8507L65.424 36.862C66.0591 36.3231 66.5677 35.5542 66.8912 34.6441C67.4368 33.1197 65.16 31.7778 65.16 31.7778L64.6592 32.5787Z" fill="#263238"/>
<path d="M66.1199 36.7504C65.9072 36.9067 65.657 36.9438 65.4239 36.8535C65.1151 36.7289 65.1327 36.3038 65.3615 36.0312C65.5663 35.795 65.9775 35.561 66.2159 35.8358C66.2681 35.8956 66.3082 35.9721 66.3325 36.0582C66.3568 36.1443 66.3645 36.2373 66.355 36.3284C66.3454 36.4196 66.3188 36.5061 66.2778 36.5799C66.2367 36.6536 66.1824 36.7123 66.1199 36.7504Z" fill="#9F5B53"/>
<path d="M65.3408 38.4037L64.0688 38.8954L63.52 39.8937L63.6688 38.6721C63.6688 38.6721 63.5328 38.3908 63.7584 37.9507L62.984 38.1654L62.5168 39.2131L63.4256 38.9276L63.488 40.1449L64.0176 39.3076L64.4512 40.2265L65.7408 39.1294L65.3408 38.4037Z" fill="#2C75FB"/>
<path opacity="0.2" d="M65.3408 38.4037L64.0688 38.8954L63.52 39.8937L63.6688 38.6721C63.6688 38.6721 63.5328 38.3908 63.7584 37.9507L62.984 38.1654L62.5168 39.2131L63.4256 38.9276L63.488 40.1449L64.0176 39.3076L64.4512 40.2265L65.7408 39.1294L65.3408 38.4037Z" fill="#00061A"/>
<path d="M60.0016 46.6008L59.8032 47.6615L65.0384 49.1021L65.1168 47.9234L60.0016 46.6008Z" fill="#00061A"/>
<path d="M62.3392 47.1569C62.2976 47.0775 61.1328 46.7404 61.0224 46.852C61.0224 46.852 60.7968 47.8976 60.8352 48.0071C60.8736 48.1166 62.0064 48.3292 62.1152 48.3592C62.224 48.3893 62.3808 47.2449 62.3392 47.1569ZM62.0192 48.2304C61.9328 48.2068 61.0016 48.0329 60.9696 47.9427C60.9376 47.8525 61.1296 46.9937 61.1296 46.9937C61.2208 46.9014 62.1776 47.1784 62.2112 47.2428C62.2448 47.3072 62.1056 48.2433 62.0192 48.2197V48.2304Z" fill="white"/>
<path d="M62.0641 47.5135L61.8321 47.4491C61.8109 47.4437 61.789 47.449 61.7707 47.4641C61.7523 47.4792 61.7388 47.5029 61.7329 47.5307C61.7295 47.5462 61.7287 47.5625 61.7303 47.5785C61.7319 47.5945 61.7361 47.6099 61.7424 47.6236C61.7487 47.6374 61.7571 47.6492 61.767 47.6583C61.777 47.6675 61.7882 47.6737 61.8001 47.6767L62.0321 47.7368C62.0545 47.7428 62.0779 47.7365 62.0969 47.7194C62.116 47.7023 62.1292 47.6757 62.1337 47.6455C62.1381 47.6154 62.1334 47.584 62.1207 47.5585C62.1079 47.5329 62.0881 47.5152 62.0657 47.5092L62.0641 47.5135Z" fill="white"/>
<path d="M65.0384 49.1023C65.0384 49.1023 65.1392 57.0463 64.9728 59.365C64.8064 61.6838 69.12 74.3748 69.12 74.3748H67.7232C67.7232 74.3748 63.4912 65.0825 62.5216 62.2227C61.552 59.3629 60.8352 52.5397 60.8352 52.5397L65.0384 49.1023Z" fill="#263238"/>
<path d="M66.472 39.6017C66.256 38.9447 62.9392 39.9173 62.64 39.8036C62.3408 39.6898 59.2272 37.9399 59.2272 37.9399L58.9568 38.8717C58.9568 38.8717 61.7488 41.0188 62.36 41.358C62.9712 41.6972 65.4144 41.5341 66.04 41.1712C66.1471 41.1093 66.2436 41.0188 66.3239 40.9052C66.4041 40.7917 66.4663 40.6575 66.5067 40.5107C66.5471 40.3639 66.5648 40.2077 66.5589 40.0514C66.5529 39.8952 66.5233 39.7422 66.472 39.6017Z" fill="#2C75FB"/>
<path d="M65.8848 22.5395L64.88 13.9514L59.5872 18.9733L61.3472 19.9738C59.648 25.1996 54.136 40.51 44.6512 51.799C32.5408 66.2163 15.5904 73.31 15.4208 73.3787L16.3584 77.486C17.0784 77.1897 34.1312 70.0616 46.7808 55.0046C56.8608 43.007 62.528 27.1835 64.3072 21.6442L65.8848 22.5395Z" fill="#2C75FB"/>
<path opacity="0.4" d="M64.9248 21.0366L64.88 13.9514L59.5872 18.9733L61.3472 19.9738C59.648 25.1996 54.136 40.51 44.6512 51.799C32.5408 66.2162 15.5904 73.31 15.4208 73.3787L15.7184 75.983C16.4384 75.6867 33.4912 69.2027 46.1408 54.1457C56.2208 42.1482 61.568 26.11 63.3472 20.5707L64.9248 21.0366Z" fill="white"/>
<path d="M64 22.9023C63.975 22.9026 63.9502 22.8975 63.9264 22.8873L60.8528 21.554C60.8211 21.543 60.7915 21.5234 60.7657 21.4965C60.7398 21.4695 60.7184 21.4358 60.7027 21.3973C60.6869 21.3589 60.6772 21.3165 60.6741 21.2728C60.671 21.2291 60.6745 21.185 60.6846 21.1433C60.6946 21.1015 60.7109 21.063 60.7325 21.0299C60.754 20.9969 60.7804 20.9702 60.8099 20.9514C60.8395 20.9325 60.8716 20.922 60.9043 20.9204C60.9369 20.9188 60.9695 20.9262 61 20.9421L64.0736 22.2732C64.1283 22.2965 64.175 22.3453 64.2052 22.4108C64.2354 22.4763 64.2471 22.5541 64.2382 22.6302C64.2293 22.7063 64.2004 22.7756 64.1567 22.8255C64.113 22.8754 64.0574 22.9027 64 22.9023Z" fill="#263238"/>
<g opacity="0.4">
<path opacity="0.4" d="M64 22.9023C63.975 22.9026 63.9502 22.8975 63.9264 22.8873L60.8528 21.554C60.8211 21.543 60.7915 21.5234 60.7657 21.4965C60.7398 21.4695 60.7184 21.4358 60.7027 21.3973C60.6869 21.3589 60.6772 21.3165 60.6741 21.2728C60.671 21.2291 60.6745 21.185 60.6846 21.1433C60.6946 21.1015 60.7109 21.063 60.7325 21.0299C60.754 20.9969 60.7804 20.9702 60.8099 20.9514C60.8395 20.9325 60.8716 20.922 60.9043 20.9204C60.9369 20.9188 60.9695 20.9262 61 20.9421L64.0736 22.2732C64.1283 22.2965 64.175 22.3453 64.2052 22.4108C64.2354 22.4763 64.2471 22.5541 64.2382 22.6302C64.2293 22.7063 64.2004 22.7756 64.1567 22.8255C64.113 22.8754 64.0574 22.9027 64 22.9023Z" fill="white"/>
</g>
<path d="M27.1887 63.0945C27.1251 63.0945 27.064 63.0606 27.019 63.0002C26.974 62.9398 26.9487 62.8579 26.9487 62.7725C26.9487 52.5226 29.1679 51.1786 29.5839 51.0132L36.6399 44.3897L36.6559 44.3768L63.7631 22.8079C63.8178 22.7661 63.8825 22.7547 63.9434 22.7764C64.0042 22.798 64.0563 22.8508 64.0884 22.9234C64.1205 22.996 64.13 23.0827 64.115 23.1647C64.0999 23.2467 64.0615 23.3175 64.0079 23.3618L36.9135 44.9243L29.8239 51.58C29.7937 51.6082 29.7593 51.6273 29.7231 51.6359C29.7055 51.6359 27.4287 52.3873 27.4287 62.7789C27.4275 62.8632 27.4016 62.9435 27.3568 63.0025C27.3119 63.0615 27.2516 63.0945 27.1887 63.0945Z" fill="#263238"/>
<g opacity="0.4">
<path opacity="0.4" d="M27.1887 63.0945C27.1251 63.0945 27.064 63.0606 27.019 63.0002C26.974 62.9398 26.9487 62.8579 26.9487 62.7725C26.9487 52.5226 29.1679 51.1786 29.5839 51.0132L36.6399 44.3897L36.6559 44.3768L63.7631 22.8079C63.8178 22.7661 63.8825 22.7547 63.9434 22.7764C64.0042 22.798 64.0563 22.8508 64.0884 22.9234C64.1205 22.996 64.13 23.0827 64.115 23.1647C64.0999 23.2467 64.0615 23.3175 64.0079 23.3618L36.9135 44.9243L29.8239 51.58C29.7937 51.6082 29.7593 51.6273 29.7231 51.6359C29.7055 51.6359 27.4287 52.3873 27.4287 62.7789C27.4275 62.8632 27.4016 62.9435 27.3568 63.0025C27.3119 63.0615 27.2516 63.0945 27.1887 63.0945Z" fill="white"/>
</g>
<path d="M29.032 52.4582C29.032 52.4582 27.7984 53.5317 26.8608 53.8559C26.6293 53.9609 26.381 53.9794 26.1424 53.9096C25.4448 53.6133 25.8592 51.8012 26.2752 50.6569C26.3424 50.4701 26.4096 50.3026 26.472 50.1609L27.6912 51.1721C27.6912 51.1721 26.952 52.587 27.0368 52.6751C27.1216 52.7631 28.2608 51.9107 28.3168 51.8828C28.3728 51.8549 29.032 52.4582 29.032 52.4582Z" fill="#2C75FB"/>
<path opacity="0.2" d="M29.0319 52.4582C29.0319 52.4582 27.7983 53.5317 26.8607 53.8559C26.6005 52.8129 26.4046 51.743 26.2751 50.6569C26.3423 50.4701 26.4095 50.3026 26.4719 50.1609L27.6911 51.1721C27.6911 51.1721 26.9519 52.587 27.0367 52.6751C27.1215 52.7631 28.2607 51.9107 28.3167 51.8828C28.3727 51.8549 29.0319 52.4582 29.0319 52.4582Z" fill="#00061A"/>
<path d="M35.0399 46.2275L35.7631 45.3687C35.8209 45.1236 35.9004 44.8886 35.9999 44.6688C36.0783 44.5808 37.3951 44.4434 37.3951 44.4434C37.3951 44.4434 37.4207 45.3773 37.3167 45.6199C37.2127 45.8625 36.1375 45.9677 36.1375 45.9677L35.5615 46.7127L35.0399 46.2275Z" fill="#EEC1BB"/>
<path d="M38.8928 66.5791C38.6864 70.564 38.1344 76.2192 38.1344 76.2192L37.424 76.4339C37.424 76.4339 36.768 71.6998 36.872 67.307C36.8906 66.3494 36.958 65.3946 37.0736 64.4493C37.0736 64.4493 34.6128 63.1804 32.904 62.0446C32.088 61.5036 31.4432 60.9904 31.32 60.6598C30.9392 59.64 32.6704 57.2439 32.6704 57.2439C32.7248 57.3019 33.7696 58.195 34.9856 59.2535C36.6 60.6577 38.5152 62.3538 38.8256 62.7768C39.0112 63.0194 38.9952 64.591 38.8928 66.5791Z" fill="#EEC1BB"/>
<path opacity="0.2" d="M38.8927 66.5792C38.2361 66.8987 37.5599 67.1408 36.8719 67.3027C36.8905 66.3451 36.9579 65.3903 37.0735 64.445C37.0735 64.445 34.6127 63.1762 32.9039 62.0404L34.9839 59.2493C36.5983 60.6534 38.5135 62.3496 38.8239 62.7725C39.0111 63.0194 38.9951 64.591 38.8927 66.5792Z" fill="#00061A"/>
<path d="M33.3535 56.5784C33.3535 56.5784 40.1807 61.845 41.1087 63.0345C42.0367 64.2239 47.3935 75.339 47.3935 75.339L46.9423 75.9165C46.9423 75.9165 42.4943 70.7938 40.7199 65.9243L33.3599 61.1515L33.3535 56.5784Z" fill="#EEC1BB"/>
<path d="M28.16 46.8543C28.171 46.8646 28.1828 46.8732 28.1952 46.8801C28.3628 47.0076 28.5478 47.0886 28.7392 47.1184C29.296 47.185 29.6544 47.0175 29.8592 46.6439C30.144 46.09 30.1376 45.2054 29.9808 44.1641C29.9288 43.7474 29.8278 43.3445 29.6816 42.9704C29.6816 42.9704 29.6816 42.9554 29.6816 42.9532L29.6624 42.9103C29.5733 42.7008 29.4465 42.5246 29.2936 42.3978C29.1408 42.2711 28.9666 42.1977 28.7872 42.1846C28.6309 42.1672 28.4737 42.173 28.3184 42.2018C26.7984 42.4658 26.88 45.9054 28.16 46.8543Z" fill="#EEC1BB"/>
<path opacity="0.2" d="M28.2015 46.8802C28.3696 47.0006 28.5541 47.0737 28.7439 47.0949C29.2991 47.1615 29.6559 46.9683 29.8639 46.5925C29.5527 46.7589 29.2097 46.7853 28.8863 46.6677C28.7677 46.6308 28.6443 46.6308 28.5256 46.6676C28.4069 46.7045 28.2961 46.7772 28.2015 46.8802Z" fill="#00061A"/>
<path d="M28.0992 48.5592C27.9664 49.1346 28.5152 49.4394 28.5152 49.4394C29.4752 49.01 29.6912 48.381 29.6912 48.381C28.9552 47.7369 29.2784 46.2468 29.2784 46.2468L29.1184 46.3327L27.9984 46.4916C27.9984 46.4916 28.2528 47.3139 28.2816 47.4985C28.4224 48.4668 28.0992 48.5592 28.0992 48.5592Z" fill="#EBB376"/>
<path d="M29.6912 42.9512C29.6912 42.9512 29.9248 44.3703 28.976 45.1755C28.976 45.1755 28.696 46.7492 28.0576 46.8931C27.1872 47.0863 26.2448 45.5641 26.3696 43.8078C26.5328 41.5363 29 40.89 29.6912 42.9512Z" fill="#263238"/>
<path d="M29.4399 44.6687C29.4159 44.454 29.2431 44.0933 28.9887 44.1942C28.7343 44.2951 28.6687 45.2119 29.3503 45.287C29.4543 45.3128 29.4959 45.141 29.4399 44.6687Z" fill="#EBB376"/>
<path d="M47.096 74.6563L46.36 75.4163C46.3449 75.4326 46.3343 75.4552 46.33 75.4805C46.3256 75.5058 46.3277 75.5324 46.336 75.5559L46.7104 76.6294C46.7184 76.6521 46.7297 76.6725 46.7437 76.6894C46.7576 76.7062 46.7739 76.7192 46.7916 76.7276C46.8093 76.736 46.828 76.7396 46.8468 76.7382C46.8655 76.7368 46.8838 76.7305 46.9008 76.7196C46.9103 76.7136 46.9194 76.7064 46.9279 76.6981C47.2255 76.3782 47.2352 76.3288 47.6144 75.938C47.8464 75.6976 48.5744 75.0019 48.8944 74.6691C49.2144 74.3364 49.0128 73.8662 48.8592 73.9628C48.168 74.3922 47.5792 74.6219 47.2592 74.5897C47.2005 74.5837 47.1422 74.6075 47.096 74.6563Z" fill="#263238"/>
<path d="M47.256 74.6369C47.2519 74.6396 47.2473 74.6405 47.2428 74.6395C47.2383 74.6386 47.2342 74.6358 47.2309 74.6317C47.2276 74.6275 47.2253 74.622 47.2244 74.6161C47.2234 74.6101 47.2239 74.6039 47.2256 74.5983C47.24 74.5467 47.3712 74.0851 47.4896 74.0572C47.5027 74.0535 47.5164 74.0549 47.5289 74.0614C47.5414 74.0679 47.5522 74.0791 47.56 74.0937C47.5763 74.1155 47.5883 74.1425 47.5947 74.1722C47.6011 74.2018 47.6019 74.2332 47.5968 74.2633C47.5778 74.351 47.5364 74.427 47.48 74.478C47.4101 74.5424 47.335 74.5957 47.256 74.6369ZM47.2896 74.5489C47.4025 74.4975 47.4964 74.3899 47.552 74.2483C47.5551 74.228 47.5544 74.2069 47.55 74.1871C47.5455 74.1672 47.5374 74.1491 47.5264 74.1345C47.5136 74.1174 47.5024 74.1131 47.4976 74.1195C47.4876 74.1221 47.4783 74.128 47.4704 74.1367C47.3912 74.2574 47.3298 74.3973 47.2896 74.5489Z" fill="#2C75FB"/>
<path d="M47.2544 74.6477C47.2504 74.6478 47.2464 74.6468 47.2428 74.6445C47.2392 74.6423 47.2361 74.639 47.2336 74.6348C47.2336 74.6198 47.0736 74.3041 47.1072 74.1152C47.111 74.0922 47.1182 74.0705 47.1283 74.0513C47.1385 74.0322 47.1514 74.0159 47.1664 74.0036C47.18 73.9889 47.1969 73.981 47.2144 73.981C47.2318 73.981 47.2488 73.9889 47.2624 74.0036C47.3408 74.0959 47.3168 74.4802 47.2704 74.6198L47.2624 74.6305L47.2544 74.6477ZM47.1472 74.1195C47.1467 74.2679 47.1796 74.4131 47.2416 74.536C47.2798 74.3755 47.2741 74.2019 47.2256 74.0465C47.2256 74.0465 47.208 74.0229 47.1856 74.0465H47.176C47.1601 74.0654 47.1499 74.0913 47.1472 74.1195Z" fill="#2C75FB"/>
<path d="M38.2592 75.5859L37.3296 75.6095C37.3105 75.6109 37.2923 75.6207 37.2779 75.6374C37.2634 75.6541 37.2534 75.6767 37.2496 75.7018L37.0752 76.8634C37.07 76.9119 37.0789 76.9612 37.1 77.0012C37.1212 77.0411 37.1529 77.0687 37.1888 77.0781C37.1994 77.0802 37.2102 77.0802 37.2208 77.0781C37.6 77.0587 37.6304 77.0265 38.1088 77.0136C38.4032 77.0136 39.2912 77.0244 39.6976 77.0136C40.104 77.0029 40.1488 76.4619 39.9824 76.4168C39.232 76.2193 38.6672 75.9316 38.424 75.6503C38.3772 75.6013 38.3182 75.5783 38.2592 75.5859Z" fill="#263238"/>
<path d="M38.3423 75.7231C38.3377 75.7222 38.3334 75.7191 38.3302 75.7144C38.327 75.7097 38.325 75.7037 38.3247 75.6974C38.3235 75.6916 38.3238 75.6855 38.3255 75.68C38.3273 75.6746 38.3304 75.6701 38.3343 75.6673C38.3679 75.6373 38.6767 75.371 38.7855 75.4419C38.7979 75.4493 38.8084 75.4614 38.8158 75.4766C38.8231 75.4918 38.8271 75.5096 38.8271 75.5278C38.8303 75.5583 38.8277 75.5895 38.8196 75.6184C38.8115 75.6472 38.7981 75.6729 38.7807 75.6931C38.727 75.7451 38.6613 75.7702 38.5951 75.7639C38.51 75.7633 38.4252 75.7496 38.3423 75.7231ZM38.4079 75.678C38.5214 75.7268 38.6446 75.7153 38.7519 75.6458C38.7632 75.6319 38.7718 75.6144 38.7768 75.5949C38.7818 75.5754 38.7832 75.5546 38.7807 75.5342C38.7807 75.5106 38.7711 75.4998 38.7663 75.4998C38.7563 75.4968 38.7459 75.4968 38.7359 75.4998C38.6192 75.531 38.5079 75.5915 38.4079 75.678Z" fill="#2C75FB"/>
<path d="M38.3359 75.7296C38.3322 75.7271 38.3291 75.723 38.3271 75.718C38.3251 75.713 38.3242 75.7074 38.3247 75.7017C38.3247 75.6846 38.3423 75.311 38.4527 75.1843C38.4658 75.1684 38.4813 75.1565 38.4982 75.1495C38.515 75.1424 38.5328 75.1404 38.5503 75.1435C38.5678 75.143 38.5848 75.1506 38.5985 75.1651C38.6123 75.1796 38.6218 75.2 38.6255 75.2229C38.6463 75.3582 38.4655 75.6523 38.3583 75.7253H38.3471C38.3439 75.7286 38.3399 75.7301 38.3359 75.7296ZM38.4831 75.2208C38.4171 75.3398 38.3792 75.4827 38.3743 75.6309C38.4735 75.5278 38.5935 75.3067 38.5791 75.2229C38.5791 75.2229 38.5791 75.1929 38.5455 75.1929H38.5343C38.5153 75.1933 38.497 75.2033 38.4831 75.2208Z" fill="#2C75FB"/>
<path d="M33.1631 55.1678L29.7759 57.0765C28.3759 52.4068 26.4719 50.161 26.4719 50.161C27.8287 47.9775 30.3343 46.9727 30.3343 46.9727C30.7044 47.3768 31.0237 47.8581 31.2799 48.3983C31.5624 48.985 31.8086 49.6018 32.0159 50.2426C32.5192 51.8292 32.9035 53.479 33.1631 55.1678Z" fill="#2C75FB"/>
<path d="M29.6592 43.9001C29.6592 43.9001 30.7232 42.4444 29.704 41.4847C28.6848 40.525 27.6736 41.8068 27.6736 41.8068C27.6736 41.8068 25.2528 42.6248 25.784 44.7825C26.3152 46.9403 26.6544 47.1185 25.8944 48.2392C25.1344 49.36 24.36 51.0132 25.1536 52.0545C25.9472 53.0958 28.6832 51.9793 29.504 50.3819C30.3248 48.7846 28.8304 45.3987 29.6592 43.9001Z" fill="#263238"/>
<path d="M32.9168 53.7678L29.2368 55.4618C29.2368 55.4618 30.0512 60.8401 30.6416 61.7397C31.232 62.6393 35.1792 66.8045 35.7376 66.476C36.296 66.1475 40 61.7397 40 61.7397L33.7328 55.9728L32.9168 53.7678Z" fill="#263238"/>
<path d="M32.3808 54.7792L33.1632 54.4314L32.9696 53.9097L32.2288 54.2596L32.3808 54.7792Z" fill="#00061A"/>
<path d="M30.0416 55.2944L29.24 55.6723L29.3472 56.1296L30.1312 55.7818L30.0416 55.2944Z" fill="#00061A"/>
<path d="M30.2992 55.7066L32.224 54.8499L32.08 54.3303L30.1936 55.2213L30.2992 55.7066Z" fill="#00061A"/>
<path opacity="0.2" d="M32.016 50.251C31.2064 50.1244 30.7504 48.4905 30.7504 48.4905C30.9255 48.4483 31.1023 48.4203 31.28 48.4067C31.5625 48.9935 31.8086 49.6103 32.016 50.251Z" fill="#00061A"/>
<path d="M30.3343 46.9726C31.2143 46.7966 33.1823 47.7541 33.3535 47.7434C33.5247 47.7327 35.4335 45.7188 35.4335 45.7188L35.9295 46.3049C35.9295 46.3049 33.9295 49.0724 33.5183 49.096C33.1071 49.1196 30.9583 48.9114 30.9583 48.9114C30.9583 48.9114 30.4319 48.6602 30.3311 48.0225C30.2697 47.6772 30.2708 47.3172 30.3343 46.9726Z" fill="#2C75FB"/>
</svg>
