<svg width="80" height="80" viewBox="0 0 80 80" fill="none" xmlns="http://www.w3.org/2000/svg">
<path d="M80 0H0V80H80V0Z" fill="white"/>
<path opacity="0.27" d="M75.0976 24.9697C72.8576 29.1297 73.1776 33.9297 71.7376 38.2497C69.6576 44.9697 61.9776 45.6097 55.8976 45.9297C54.9376 45.9297 54.1376 46.7297 53.1776 47.3697C49.3376 50.2497 47.0976 55.0497 42.1376 55.5297C36.2176 56.1697 31.4176 52.3297 27.8976 47.5297C23.4176 40.9697 20.8576 34.0897 14.1376 29.7697C9.76 27.0529 4.96 25.9025 0 26.4513V80.0001H80V18.9409C77.9458 20.569 76.2725 22.6267 75.0976 24.9697Z" fill="white"/>
<path opacity="0.27" d="M49.7488 43.4161L50.2912 43.9585L49.7488 44.5025L50.0704 44.8241L50.6128 44.2801L51.1552 44.8241L51.4768 44.5025L50.9344 43.9585L51.4768 43.4161L51.1552 43.0945L50.6128 43.6369L50.0704 43.0945L49.7488 43.4161Z" fill="#AFCAB7"/>
<g opacity="0.22">
<path opacity="0.22" d="M14.0464 2.33771C13.9955 2.33771 13.9457 2.3226 13.9033 2.2943C13.8609 2.26599 13.8279 2.22576 13.8084 2.17869C13.7889 2.13162 13.7838 2.07982 13.7938 2.02985C13.8037 1.97989 13.8282 1.93399 13.8643 1.89796C13.9003 1.86193 13.9462 1.8374 13.9962 1.82746C14.0461 1.81752 14.0979 1.82262 14.145 1.84212C14.1921 1.86162 14.2323 1.89463 14.2606 1.937C14.2889 1.97936 14.304 2.02916 14.304 2.08011C14.304 2.14843 14.2769 2.21395 14.2286 2.26226C14.1803 2.31057 14.1147 2.33771 14.0464 2.33771Z" fill="#5568AC"/>
<path opacity="0.22" d="M11.52 2.33769C11.4692 2.33706 11.4197 2.32142 11.3778 2.29273C11.3359 2.26404 11.3033 2.22359 11.2843 2.17647C11.2653 2.12935 11.2607 2.07766 11.271 2.0279C11.2813 1.97815 11.3061 1.93254 11.3422 1.89684C11.3784 1.86113 11.4243 1.83691 11.4741 1.82723C11.524 1.81755 11.5756 1.82283 11.6225 1.84242C11.6694 1.86201 11.7095 1.89502 11.7376 1.93731C11.7658 1.9796 11.7808 2.02928 11.7808 2.08009C11.7808 2.11419 11.7741 2.14795 11.7609 2.17941C11.7478 2.21088 11.7285 2.23942 11.7042 2.26338C11.68 2.28734 11.6512 2.30625 11.6196 2.31901C11.588 2.33176 11.5541 2.33811 11.52 2.33769Z" fill="#5568AC"/>
<path opacity="0.22" d="M11.5232 5.62262C11.6655 5.62262 11.7808 5.50729 11.7808 5.36502C11.7808 5.22275 11.6655 5.10742 11.5232 5.10742C11.381 5.10742 11.2656 5.22275 11.2656 5.36502C11.2656 5.50729 11.381 5.62262 11.5232 5.62262Z" fill="#5568AC"/>
<path opacity="0.22" d="M8.99845 2.33771C8.9475 2.33771 8.89769 2.3226 8.85533 2.2943C8.81297 2.26599 8.77995 2.22576 8.76045 2.17869C8.74096 2.13162 8.73585 2.07982 8.74579 2.02985C8.75573 1.97989 8.78027 1.93399 8.81629 1.89796C8.85232 1.86193 8.89822 1.8374 8.94819 1.82746C8.99816 1.81752 9.04995 1.82262 9.09702 1.84212C9.1441 1.86162 9.18433 1.89463 9.21263 1.937C9.24094 1.97936 9.25605 2.02916 9.25605 2.08011C9.25605 2.14843 9.22891 2.21395 9.1806 2.26226C9.13229 2.31057 9.06677 2.33771 8.99845 2.33771Z" fill="#5568AC"/>
<path opacity="0.22" d="M8.99845 5.62262C9.14071 5.62262 9.25605 5.50729 9.25605 5.36502C9.25605 5.22275 9.14071 5.10742 8.99845 5.10742C8.85618 5.10742 8.74084 5.22275 8.74084 5.36502C8.74084 5.50729 8.85618 5.62262 8.99845 5.62262Z" fill="#5568AC"/>
<path opacity="0.22" d="M8.99845 8.90583C8.9475 8.90583 8.89769 8.89072 8.85533 8.86241C8.81297 8.83411 8.77995 8.79387 8.76045 8.7468C8.74096 8.69973 8.73585 8.64794 8.74579 8.59797C8.75573 8.548 8.78027 8.5021 8.81629 8.46607C8.85232 8.43005 8.89822 8.40551 8.94819 8.39557C8.99816 8.38564 9.04995 8.39074 9.09702 8.41023C9.1441 8.42973 9.18433 8.46275 9.21263 8.50511C9.24094 8.54747 9.25605 8.59728 9.25605 8.64823C9.25605 8.71655 9.22891 8.78207 9.1806 8.83038C9.13229 8.87869 9.06677 8.90583 8.99845 8.90583Z" fill="#5568AC"/>
<path opacity="0.22" d="M6.4752 2.3377C6.42419 2.33802 6.37423 2.32318 6.33166 2.29507C6.28908 2.26696 6.25582 2.22684 6.23607 2.1798C6.21633 2.13276 6.211 2.08091 6.22076 2.03084C6.23052 1.98076 6.25492 1.93471 6.29089 1.89853C6.32685 1.86234 6.37274 1.83765 6.42276 1.82758C6.47277 1.81751 6.52465 1.82252 6.57181 1.84196C6.61897 1.86141 6.6593 1.89443 6.68768 1.93683C6.71605 1.97922 6.7312 2.02909 6.7312 2.0801C6.73121 2.14815 6.70429 2.21343 6.65632 2.26169C6.60836 2.30996 6.54325 2.33728 6.4752 2.3377Z" fill="#5568AC"/>
<path opacity="0.22" d="M6.4752 5.62262C6.42419 5.62293 6.37423 5.6081 6.33166 5.57998C6.28908 5.55187 6.25582 5.51175 6.23607 5.46471C6.21633 5.41767 6.211 5.36582 6.22076 5.31575C6.23052 5.26568 6.25492 5.21963 6.29089 5.18344C6.32685 5.14725 6.37274 5.12256 6.42276 5.11249C6.47277 5.10242 6.52465 5.10743 6.57181 5.12688C6.61897 5.14633 6.6593 5.17934 6.68768 5.22174C6.71605 5.26413 6.7312 5.314 6.7312 5.36502C6.73121 5.43306 6.70429 5.49834 6.65632 5.5466C6.60836 5.59487 6.54325 5.62219 6.4752 5.62262Z" fill="#5568AC"/>
<path opacity="0.22" d="M6.4752 8.90582C6.42419 8.90614 6.37423 8.8913 6.33166 8.86319C6.28908 8.83508 6.25582 8.79496 6.23607 8.74791C6.21633 8.70087 6.211 8.64903 6.22076 8.59895C6.23052 8.54888 6.25492 8.50283 6.29089 8.46664C6.32685 8.43046 6.37274 8.40576 6.42276 8.39569C6.47277 8.38562 6.52465 8.39063 6.57181 8.41008C6.61897 8.42953 6.6593 8.46254 6.68768 8.50494C6.71605 8.54734 6.7312 8.5972 6.7312 8.64822C6.73121 8.71626 6.70429 8.78155 6.65632 8.82981C6.60836 8.87807 6.54325 8.9054 6.4752 8.90582Z" fill="#5568AC"/>
<path opacity="0.22" d="M6.47526 12.189C6.42418 12.1893 6.37415 12.1745 6.33155 12.1463C6.28894 12.1181 6.25567 12.0779 6.23598 12.0307C6.21628 11.9836 6.21105 11.9317 6.22094 11.8816C6.23083 11.8314 6.25539 11.7854 6.29151 11.7493C6.32764 11.7132 6.37368 11.6886 6.4238 11.6787C6.47392 11.6688 6.52585 11.674 6.57298 11.6937C6.62012 11.7134 6.66033 11.7467 6.68851 11.7893C6.7167 11.8319 6.73158 11.8819 6.73126 11.933C6.73084 12.0008 6.70373 12.0657 6.65582 12.1136C6.6079 12.1615 6.54303 12.1886 6.47526 12.189Z" fill="#5568AC"/>
<path opacity="0.22" d="M3.95041 2.33771C3.89946 2.33771 3.84966 2.3226 3.8073 2.2943C3.76493 2.26599 3.73192 2.22576 3.71242 2.17869C3.69292 2.13162 3.68782 2.07982 3.69776 2.02985C3.7077 1.97989 3.73223 1.93399 3.76826 1.89796C3.80429 1.86193 3.85019 1.8374 3.90015 1.82746C3.95012 1.81752 4.00192 1.82262 4.04899 1.84212C4.09606 1.86162 4.13629 1.89463 4.1646 1.937C4.1929 1.97936 4.20801 2.02916 4.20801 2.08011C4.20801 2.14843 4.18087 2.21395 4.13256 2.26226C4.08425 2.31057 4.01873 2.33771 3.95041 2.33771Z" fill="#5568AC"/>
<path opacity="0.22" d="M3.95041 5.62262C4.09268 5.62262 4.20801 5.50729 4.20801 5.36502C4.20801 5.22275 4.09268 5.10742 3.95041 5.10742C3.80814 5.10742 3.69281 5.22275 3.69281 5.36502C3.69281 5.50729 3.80814 5.62262 3.95041 5.62262Z" fill="#5568AC"/>
<path opacity="0.22" d="M3.95041 8.90583C3.89946 8.90583 3.84966 8.89072 3.8073 8.86241C3.76493 8.83411 3.73192 8.79387 3.71242 8.7468C3.69292 8.69973 3.68782 8.64794 3.69776 8.59797C3.7077 8.548 3.73223 8.5021 3.76826 8.46607C3.80429 8.43005 3.85019 8.40551 3.90015 8.39557C3.95012 8.38564 4.00192 8.39074 4.04899 8.41023C4.09606 8.42973 4.13629 8.46275 4.1646 8.50511C4.1929 8.54747 4.20801 8.59728 4.20801 8.64823C4.20801 8.71655 4.18087 8.78207 4.13256 8.83038C4.08425 8.87869 4.01873 8.90583 3.95041 8.90583Z" fill="#5568AC"/>
<path opacity="0.22" d="M3.95041 12.1905C4.09268 12.1905 4.20801 12.0752 4.20801 11.9329C4.20801 11.7906 4.09268 11.6753 3.95041 11.6753C3.80814 11.6753 3.69281 11.7906 3.69281 11.9329C3.69281 12.0752 3.80814 12.1905 3.95041 12.1905Z" fill="#5568AC"/>
<path opacity="0.22" d="M3.95041 15.4737C4.09268 15.4737 4.20801 15.3584 4.20801 15.2161C4.20801 15.0738 4.09268 14.9585 3.95041 14.9585C3.80814 14.9585 3.69281 15.0738 3.69281 15.2161C3.69281 15.3584 3.80814 15.4737 3.95041 15.4737Z" fill="#5568AC"/>
<path opacity="0.22" d="M1.42723 2.3377C1.37621 2.33802 1.32625 2.32318 1.28368 2.29507C1.24111 2.26696 1.20784 2.22684 1.1881 2.1798C1.16836 2.13276 1.16303 2.08091 1.17279 2.03084C1.18254 1.98076 1.20695 1.93471 1.24291 1.89853C1.27887 1.86234 1.32477 1.83765 1.37478 1.82758C1.4248 1.81751 1.47667 1.82252 1.52384 1.84196C1.571 1.86141 1.61133 1.89443 1.6397 1.93683C1.66808 1.97922 1.68323 2.02909 1.68323 2.0801C1.68323 2.14815 1.65631 2.21343 1.60835 2.26169C1.56038 2.30996 1.49527 2.33728 1.42723 2.3377Z" fill="#5568AC"/>
<path opacity="0.22" d="M1.42722 5.62262C1.56949 5.62262 1.68482 5.50729 1.68482 5.36502C1.68482 5.22275 1.56949 5.10742 1.42722 5.10742C1.28495 5.10742 1.16962 5.22275 1.16962 5.36502C1.16962 5.50729 1.28495 5.62262 1.42722 5.62262Z" fill="#5568AC"/>
<path opacity="0.22" d="M1.42723 8.90582C1.37621 8.90614 1.32625 8.8913 1.28368 8.86319C1.24111 8.83508 1.20784 8.79496 1.1881 8.74791C1.16836 8.70087 1.16303 8.64903 1.17279 8.59895C1.18254 8.54888 1.20695 8.50283 1.24291 8.46664C1.27887 8.43046 1.32477 8.40576 1.37478 8.39569C1.4248 8.38562 1.47667 8.39063 1.52384 8.41008C1.571 8.42953 1.61133 8.46254 1.6397 8.50494C1.66808 8.54734 1.68323 8.5972 1.68323 8.64822C1.68323 8.71626 1.65631 8.78155 1.60835 8.82981C1.56038 8.87807 1.49527 8.9054 1.42723 8.90582Z" fill="#5568AC"/>
<path opacity="0.22" d="M1.42722 12.1905C1.56949 12.1905 1.68482 12.0752 1.68482 11.9329C1.68482 11.7906 1.56949 11.6753 1.42722 11.6753C1.28495 11.6753 1.16962 11.7906 1.16962 11.9329C1.16962 12.0752 1.28495 12.1905 1.42722 12.1905Z" fill="#5568AC"/>
<path opacity="0.22" d="M1.42722 15.4737C1.56949 15.4737 1.68482 15.3584 1.68482 15.2161C1.68482 15.0738 1.56949 14.9585 1.42722 14.9585C1.28495 14.9585 1.16962 15.0738 1.16962 15.2161C1.16962 15.3584 1.28495 15.4737 1.42722 15.4737Z" fill="#5568AC"/>
<path opacity="0.22" d="M1.42723 18.7569C1.37621 18.7572 1.32625 18.7424 1.28368 18.7143C1.24111 18.6861 1.20784 18.646 1.1881 18.599C1.16836 18.5519 1.16303 18.5001 1.17279 18.45C1.18254 18.4 1.20695 18.3539 1.24291 18.3177C1.27887 18.2815 1.32477 18.2568 1.37478 18.2468C1.4248 18.2367 1.47667 18.2417 1.52384 18.2612C1.571 18.2806 1.61133 18.3136 1.6397 18.356C1.66808 18.3984 1.68323 18.4483 1.68323 18.4993C1.68323 18.5673 1.65631 18.6326 1.60835 18.6809C1.56038 18.7291 1.49527 18.7565 1.42723 18.7569Z" fill="#5568AC"/>
</g>
<path d="M70.1728 77.1824C70.201 77.1824 70.2285 77.1907 70.2519 77.2064C70.2753 77.222 70.2936 77.2443 70.3044 77.2703C70.3151 77.2963 70.318 77.3249 70.3125 77.3526C70.307 77.3802 70.2934 77.4056 70.2735 77.4255C70.2536 77.4454 70.2282 77.459 70.2006 77.4644C70.173 77.4699 70.1443 77.4671 70.1183 77.4563C70.0923 77.4456 70.07 77.4273 70.0544 77.4039C70.0387 77.3805 70.0304 77.3529 70.0304 77.3248C70.0304 77.287 70.0454 77.2508 70.0721 77.2241C70.0988 77.1974 70.135 77.1824 70.1728 77.1824Z" fill="#F48B22"/>
<path d="M71.5696 77.1824C71.5978 77.1824 71.6253 77.1907 71.6487 77.2064C71.6721 77.222 71.6904 77.2443 71.7012 77.2703C71.7119 77.2963 71.7148 77.3249 71.7093 77.3526C71.7038 77.3802 71.6902 77.4056 71.6703 77.4255C71.6504 77.4454 71.625 77.459 71.5974 77.4644C71.5698 77.4699 71.5411 77.4671 71.5151 77.4563C71.4891 77.4456 71.4668 77.4273 71.4512 77.4039C71.4355 77.3805 71.4272 77.3529 71.4272 77.3248C71.427 77.306 71.4305 77.2874 71.4376 77.27C71.4447 77.2527 71.4552 77.2369 71.4684 77.2236C71.4817 77.2103 71.4975 77.1999 71.5148 77.1928C71.5322 77.1857 71.5508 77.1822 71.5696 77.1824Z" fill="#F48B22"/>
<path d="M71.5696 75.6527C71.6482 75.6527 71.712 75.589 71.712 75.5103C71.712 75.4317 71.6482 75.3679 71.5696 75.3679C71.4909 75.3679 71.4272 75.4317 71.4272 75.5103C71.4272 75.589 71.4909 75.6527 71.5696 75.6527Z" fill="#F48B22"/>
<path d="M72.96 77.1824C72.9882 77.1824 73.0157 77.1907 73.0391 77.2064C73.0626 77.222 73.0808 77.2443 73.0916 77.2703C73.1024 77.2963 73.1052 77.3249 73.0997 77.3526C73.0942 77.3802 73.0806 77.4056 73.0607 77.4255C73.0408 77.4454 73.0154 77.459 72.9878 77.4644C72.9602 77.4699 72.9316 77.4671 72.9055 77.4563C72.8795 77.4456 72.8573 77.4273 72.8416 77.4039C72.826 77.3805 72.8176 77.3529 72.8176 77.3248C72.8176 77.287 72.8326 77.2508 72.8593 77.2241C72.886 77.1974 72.9223 77.1824 72.96 77.1824Z" fill="#F48B22"/>
<path d="M72.9648 75.6527C73.0434 75.6527 73.1072 75.589 73.1072 75.5103C73.1072 75.4317 73.0434 75.3679 72.9648 75.3679C72.8861 75.3679 72.8224 75.4317 72.8224 75.5103C72.8224 75.589 72.8861 75.6527 72.9648 75.6527Z" fill="#F48B22"/>
<path d="M72.9648 73.8368C73.0434 73.8368 73.1072 73.773 73.1072 73.6944C73.1072 73.6158 73.0434 73.552 72.9648 73.552C72.8861 73.552 72.8224 73.6158 72.8224 73.6944C72.8224 73.773 72.8861 73.8368 72.9648 73.8368Z" fill="#F48B22"/>
<path d="M74.36 77.1824C74.3882 77.1824 74.4157 77.1907 74.4391 77.2064C74.4625 77.222 74.4808 77.2443 74.4916 77.2703C74.5023 77.2963 74.5051 77.3249 74.4997 77.3526C74.4942 77.3802 74.4806 77.4056 74.4607 77.4255C74.4408 77.4454 74.4154 77.459 74.3878 77.4644C74.3602 77.4699 74.3315 77.4671 74.3055 77.4563C74.2795 77.4456 74.2572 77.4273 74.2416 77.4039C74.2259 77.3805 74.2176 77.3529 74.2176 77.3248C74.2176 77.287 74.2326 77.2508 74.2593 77.2241C74.286 77.1974 74.3222 77.1824 74.36 77.1824Z" fill="#F48B22"/>
<path d="M74.36 75.6527C74.4386 75.6527 74.5024 75.589 74.5024 75.5103C74.5024 75.4317 74.4386 75.3679 74.36 75.3679C74.2813 75.3679 74.2176 75.4317 74.2176 75.5103C74.2176 75.589 74.2813 75.6527 74.36 75.6527Z" fill="#F48B22"/>
<path d="M74.36 73.8368C74.4386 73.8368 74.5024 73.773 74.5024 73.6944C74.5024 73.6158 74.4386 73.552 74.36 73.552C74.2813 73.552 74.2176 73.6158 74.2176 73.6944C74.2176 73.773 74.2813 73.8368 74.36 73.8368Z" fill="#F48B22"/>
<path d="M74.36 72.0209C74.4386 72.0209 74.5024 71.9571 74.5024 71.8785C74.5024 71.7998 74.4386 71.7361 74.36 71.7361C74.2813 71.7361 74.2176 71.7998 74.2176 71.8785C74.2176 71.9571 74.2813 72.0209 74.36 72.0209Z" fill="#F48B22"/>
<path d="M75.7552 77.1824C75.7834 77.1824 75.8109 77.1907 75.8343 77.2064C75.8577 77.222 75.876 77.2443 75.8868 77.2703C75.8975 77.2963 75.9004 77.3249 75.8949 77.3526C75.8894 77.3802 75.8758 77.4056 75.8559 77.4255C75.836 77.4454 75.8106 77.459 75.783 77.4644C75.7554 77.4699 75.7267 77.4671 75.7007 77.4563C75.6747 77.4456 75.6524 77.4273 75.6368 77.4039C75.6211 77.3805 75.6128 77.3529 75.6128 77.3248C75.6128 77.287 75.6278 77.2508 75.6545 77.2241C75.6812 77.1974 75.7174 77.1824 75.7552 77.1824Z" fill="#F48B22"/>
<path d="M75.7552 75.6527C75.8338 75.6527 75.8976 75.589 75.8976 75.5103C75.8976 75.4317 75.8338 75.3679 75.7552 75.3679C75.6765 75.3679 75.6128 75.4317 75.6128 75.5103C75.6128 75.589 75.6765 75.6527 75.7552 75.6527Z" fill="#F48B22"/>
<path d="M75.7552 73.8368C75.8338 73.8368 75.8976 73.773 75.8976 73.6944C75.8976 73.6158 75.8338 73.552 75.7552 73.552C75.6765 73.552 75.6128 73.6158 75.6128 73.6944C75.6128 73.773 75.6765 73.8368 75.7552 73.8368Z" fill="#F48B22"/>
<path d="M75.7552 72.0209C75.8338 72.0209 75.8976 71.9571 75.8976 71.8785C75.8976 71.7998 75.8338 71.7361 75.7552 71.7361C75.6765 71.7361 75.6128 71.7998 75.6128 71.8785C75.6128 71.9571 75.6765 72.0209 75.7552 72.0209Z" fill="#F48B22"/>
<path d="M75.7552 70.2047C75.8338 70.2047 75.8976 70.141 75.8976 70.0623C75.8976 69.9837 75.8338 69.9199 75.7552 69.9199C75.6765 69.9199 75.6128 69.9837 75.6128 70.0623C75.6128 70.141 75.6765 70.2047 75.7552 70.2047Z" fill="#F48B22"/>
<path d="M77.152 77.1824C77.1801 77.1824 77.2077 77.1907 77.2311 77.2064C77.2545 77.222 77.2728 77.2443 77.2835 77.2703C77.2943 77.2963 77.2971 77.3249 77.2916 77.3526C77.2862 77.3802 77.2726 77.4056 77.2527 77.4255C77.2328 77.4454 77.2074 77.459 77.1798 77.4644C77.1521 77.4699 77.1235 77.4671 77.0975 77.4563C77.0715 77.4456 77.0492 77.4273 77.0336 77.4039C77.0179 77.3805 77.0096 77.3529 77.0096 77.3248C77.0096 77.287 77.0246 77.2508 77.0513 77.2241C77.078 77.1974 77.1142 77.1824 77.152 77.1824Z" fill="#F48B22"/>
<path d="M77.152 75.6527C77.2306 75.6527 77.2944 75.589 77.2944 75.5103C77.2944 75.4317 77.2306 75.3679 77.152 75.3679C77.0733 75.3679 77.0096 75.4317 77.0096 75.5103C77.0096 75.589 77.0733 75.6527 77.152 75.6527Z" fill="#F48B22"/>
<path d="M77.152 73.8368C77.2306 73.8368 77.2944 73.773 77.2944 73.6944C77.2944 73.6158 77.2306 73.552 77.152 73.552C77.0733 73.552 77.0096 73.6158 77.0096 73.6944C77.0096 73.773 77.0733 73.8368 77.152 73.8368Z" fill="#F48B22"/>
<path d="M77.152 72.0209C77.2306 72.0209 77.2944 71.9571 77.2944 71.8785C77.2944 71.7998 77.2306 71.7361 77.152 71.7361C77.0733 71.7361 77.0096 71.7998 77.0096 71.8785C77.0096 71.9571 77.0733 72.0209 77.152 72.0209Z" fill="#F48B22"/>
<path d="M77.152 70.2047C77.2306 70.2047 77.2944 70.141 77.2944 70.0623C77.2944 69.9837 77.2306 69.9199 77.152 69.9199C77.0733 69.9199 77.0096 69.9837 77.0096 70.0623C77.0096 70.141 77.0733 70.2047 77.152 70.2047Z" fill="#F48B22"/>
<path d="M77.152 68.104C77.1801 68.104 77.2077 68.1124 77.2311 68.128C77.2545 68.1437 77.2728 68.1659 77.2835 68.1919C77.2943 68.2179 77.2971 68.2466 77.2916 68.2742C77.2862 68.3018 77.2726 68.3272 77.2527 68.3471C77.2328 68.367 77.2074 68.3806 77.1798 68.3861C77.1521 68.3916 77.1235 68.3888 77.0975 68.378C77.0715 68.3672 77.0492 68.3489 77.0336 68.3255C77.0179 68.3021 77.0096 68.2746 77.0096 68.2464C77.0096 68.2086 77.0246 68.1724 77.0513 68.1457C77.078 68.119 77.1142 68.104 77.152 68.104Z" fill="#F48B22"/>
<path d="M7.37277 41.2432L5.94397 42.8752L7.24957 44.368L5.94397 45.8592L7.25597 47.3584L5.94397 48.8576L7.37277 50.4896V50.2048L6.19677 48.8608L7.51997 47.3488L6.20797 45.8496L7.51997 44.352L6.20957 42.856L7.37277 41.528V41.2432Z" fill="white"/>
<g opacity="0.32">
<path opacity="0.32" d="M24.9952 6.9585C24.9212 7.35949 24.7298 7.7295 24.4454 8.0217C24.161 8.31389 23.7962 8.51513 23.3974 8.59996C22.9985 8.68478 22.5835 8.64937 22.2048 8.49821C21.826 8.34705 21.5007 8.08693 21.2699 7.75078C21.039 7.41463 20.9131 7.01755 20.9081 6.60981C20.903 6.20207 21.019 5.80199 21.2414 5.46022C21.4638 5.11844 21.7826 4.85033 22.1575 4.68981C22.5323 4.5293 22.9464 4.4836 23.3472 4.5585C23.8839 4.65836 24.3591 4.96727 24.6681 5.41732C24.9771 5.86737 25.0948 6.42172 24.9952 6.9585Z" fill="#FEBC10"/>
<path opacity="0.32" d="M24.16 3.62879C24.544 3.62847 24.9194 3.74203 25.2387 3.95509C25.5581 4.16816 25.8071 4.47116 25.9542 4.82577C26.1014 5.18037 26.14 5.57066 26.0653 5.94724C25.9906 6.32382 25.8059 6.66979 25.5346 6.94138C25.2632 7.21296 24.9174 7.39796 24.5409 7.47298C24.1643 7.548 23.774 7.50965 23.4193 7.36281C23.0646 7.21596 22.7614 6.9672 22.548 6.64801C22.3347 6.32881 22.2208 5.95351 22.2208 5.56959C22.2213 5.05526 22.4257 4.5621 22.7892 4.19827C23.1527 3.83444 23.6457 3.62964 24.16 3.62879ZM24.16 3.50879C23.7525 3.50879 23.354 3.62965 23.0151 3.8561C22.6762 4.08254 22.4121 4.40439 22.2561 4.78095C22.1001 5.15752 22.0593 5.57187 22.1388 5.97163C22.2184 6.37139 22.4146 6.73859 22.7028 7.02679C22.991 7.315 23.3582 7.51127 23.758 7.59079C24.1578 7.67031 24.5721 7.6295 24.9487 7.47352C25.3252 7.31754 25.6471 7.0534 25.8735 6.71451C26.1 6.37561 26.2208 5.97718 26.2208 5.56959C26.2208 5.02303 26.0037 4.49886 25.6172 4.11238C25.2308 3.72591 24.7066 3.50879 24.16 3.50879Z" fill="#211F1C"/>
</g>
<path d="M75.6128 46.7727C75.4998 46.7727 75.3894 46.8062 75.2954 46.869C75.2015 46.9317 75.1283 47.0209 75.085 47.1253C75.0418 47.2297 75.0305 47.3445 75.0525 47.4553C75.0746 47.5661 75.129 47.6679 75.2089 47.7478C75.2888 47.8277 75.3905 47.8821 75.5013 47.9041C75.6121 47.9262 75.727 47.9149 75.8314 47.8716C75.9357 47.8284 76.025 47.7552 76.0877 47.6612C76.1505 47.5673 76.184 47.4569 76.184 47.3439C76.184 47.1924 76.1238 47.0471 76.0167 46.94C75.9096 46.8329 75.7643 46.7727 75.6128 46.7727ZM75.6128 47.7327C75.5368 47.7327 75.4626 47.7102 75.3994 47.668C75.3363 47.6258 75.2871 47.5658 75.258 47.4957C75.2289 47.4255 75.2213 47.3483 75.2361 47.2738C75.251 47.1993 75.2875 47.1309 75.3412 47.0772C75.3949 47.0235 75.4634 46.9869 75.5379 46.9721C75.6123 46.9573 75.6896 46.9649 75.7597 46.9939C75.8299 47.023 75.8899 47.0722 75.9321 47.1354C75.9743 47.1985 75.9968 47.2728 75.9968 47.3487C75.9959 47.4498 75.9551 47.5465 75.8831 47.6176C75.8111 47.6887 75.7139 47.7283 75.6128 47.7279V47.7327Z" fill="#5568AC"/>
<g opacity="0.22">
<path opacity="0.22" d="M69.8864 19.4495L72.2832 16.1199L74.3664 19.4495H69.8864Z" fill="#AFCAB7"/>
<path opacity="0.22" d="M73.8128 15.6431L75.68 18.6367H71.656L73.8128 15.6431ZM73.8128 15.4287L71.4128 18.7567H75.8928L73.8128 15.4287Z" fill="#211F1C"/>
</g>
<path opacity="0.32" d="M30.0464 64.3391C29.4396 64.3391 28.8576 64.5802 28.4286 65.0093C27.9995 65.4383 27.7584 66.0203 27.7584 66.6271H32.3344C32.3344 66.0203 32.0934 65.4383 31.6643 65.0093C31.2352 64.5802 30.6532 64.3391 30.0464 64.3391Z" fill="#F48B22"/>
<path opacity="0.32" d="M64.2144 4.77752C64.3852 4.77752 64.5543 4.81125 64.7121 4.87676C64.8698 4.94227 65.0131 5.03828 65.1336 5.15928C65.2542 5.28028 65.3497 5.42389 65.4146 5.58188C65.4795 5.73987 65.5126 5.90912 65.512 6.07992H66.152C66.1375 5.57589 65.9271 5.09736 65.5654 4.74596C65.2038 4.39457 64.7194 4.198 64.2152 4.198C63.7109 4.198 63.2266 4.39457 62.8649 4.74596C62.5033 5.09736 62.2929 5.57589 62.2784 6.07992H62.9184C62.9177 5.90925 62.9508 5.74013 63.0156 5.58225C63.0804 5.42437 63.1758 5.28083 63.2962 5.15984C63.4166 5.03886 63.5596 4.94282 63.7172 4.87722C63.8748 4.81161 64.0437 4.77773 64.2144 4.77752Z" fill="#5568AC"/>
<path opacity="0.32" d="M8.92643 61.3312C8.92643 60.987 9.06314 60.657 9.30649 60.4136C9.54983 60.1703 9.87988 60.0336 10.224 60.0336V59.3936C9.71999 59.408 9.24146 59.6185 8.89007 59.9801C8.53867 60.3417 8.3421 60.8261 8.3421 61.3304C8.3421 61.8346 8.53867 62.319 8.89007 62.6806C9.24146 63.0423 9.71999 63.2527 10.224 63.2672V62.6272C9.88016 62.6272 9.55035 62.4907 9.30705 62.2477C9.06375 62.0047 8.92685 61.675 8.92643 61.3312Z" fill="#5568AC"/>
<path d="M36.8832 15.3599V25.9199H32.2432C32.0457 25.9194 31.8565 25.8407 31.717 25.7009C31.5775 25.5611 31.4992 25.3717 31.4992 25.1743V16.1103C31.4985 16.0117 31.5174 15.9139 31.5548 15.8227C31.5922 15.7315 31.6473 15.6486 31.717 15.5788C31.7866 15.509 31.8694 15.4537 31.9605 15.4162C32.0517 15.3786 32.1494 15.3594 32.248 15.3599H36.8832Z" fill="#000E41"/>
<path d="M54.9264 20.3599C54.4464 24.8399 51.9024 25.9151 51.9024 25.9151H36.8832V15.3599C41.0976 14.5503 43.1056 9.35987 42.6704 6.75667C42.7465 6.22927 42.7465 5.69367 42.6704 5.16627C42.7438 4.92325 42.9046 4.71602 43.1217 4.58454C43.3389 4.45306 43.597 4.40665 43.8464 4.45427C46.744 4.90707 46.9104 10.9199 46.8864 12.8799C46.886 13.0424 46.9475 13.1989 47.0583 13.3178C47.1691 13.4367 47.321 13.5089 47.4832 13.5199C48.5904 13.5951 51.0032 13.8143 53.1216 14.3679C54.5104 14.7311 55.0864 15.0943 55.2576 15.8895C55.4416 16.7407 55.1712 18.0591 54.9264 20.3599Z" fill="#3498FE"/>
<path d="M36.8832 15.3599V24.3039H32.2432C32.0458 24.3039 31.8566 24.2255 31.7171 24.086C31.5775 23.9464 31.4992 23.7572 31.4992 23.5599V16.1103C31.4985 16.0117 31.5174 15.9139 31.5548 15.8227C31.5922 15.7315 31.6473 15.6486 31.717 15.5788C31.7866 15.509 31.8694 15.4537 31.9605 15.4162C32.0517 15.3786 32.1494 15.3594 32.248 15.3599H36.8832Z" fill="#5568AC"/>
<path d="M55.2608 15.9023C55.1872 16.6367 55.0528 17.5631 54.9264 18.7535C54.4464 23.2335 51.9024 24.3087 51.9024 24.3087H36.8832V15.3599C38.984 14.9567 40.6192 13.4031 41.6112 11.5679C42.3248 10.2431 42.5488 8.75031 42.6432 7.26711C42.6992 6.39991 42.3616 4.15031 43.8496 4.45431C46.7472 4.90711 46.9136 10.9199 46.8896 12.8799C46.8892 13.0424 46.9507 13.199 47.0615 13.3178C47.1723 13.4367 47.3242 13.5089 47.4864 13.5199C48.5936 13.5951 51.0064 13.8143 53.1248 14.3679C54.5136 14.7439 55.0896 15.1071 55.2608 15.9023Z" fill="#9ACCFE"/>
<path d="M49.2575 25.9199H51.52L50.4272 27.1135V28.4063H48.8271V27.2863C48.8279 27.0304 48.8824 26.7774 48.9871 26.5439L49.2575 25.9199Z" fill="#BF6D3E"/>
<path d="M49.1936 26.9488C49.3178 26.8882 49.4218 26.7929 49.493 26.6745C49.5642 26.5561 49.5996 26.4196 49.5948 26.2815C49.5901 26.1433 49.5455 26.0096 49.4663 25.8963C49.3871 25.783 49.2769 25.6951 49.1488 25.6432C49.104 25.2016 48.704 24.8544 48.2672 24.7776C48.5801 25.5021 48.7819 26.2697 48.8656 27.0544L49.1936 26.9488Z" fill="#BF6D3E"/>
<path d="M48.84 24.9918C48.9102 25.0303 48.9697 25.0857 49.013 25.1531C49.0563 25.2204 49.0821 25.2975 49.088 25.3774C49.1009 25.4677 49.1337 25.5541 49.184 25.6302C49.2529 25.694 49.3305 25.7479 49.4144 25.7902C49.4909 25.8398 49.5556 25.9056 49.6037 25.9831C49.6518 26.0605 49.6822 26.1476 49.6928 26.2382C49.6989 26.4438 49.6573 26.6481 49.5712 26.835C49.5472 26.8958 49.456 26.8478 49.48 26.787C49.5626 26.6107 49.6 26.4166 49.5888 26.2222C49.5704 26.1348 49.5319 26.0528 49.4764 25.9828C49.4208 25.9129 49.3498 25.8568 49.2688 25.819C49.1984 25.7846 49.137 25.7342 49.0896 25.6718C49.05 25.6084 49.0219 25.5385 49.0064 25.4654C48.9712 25.3246 48.9488 25.1454 48.7952 25.083C48.7296 25.059 48.7776 24.9678 48.84 24.9918Z" fill="#80410E"/>
<path d="M34.6112 25.9199H32.3504L33.4432 27.1135V28.4063H35.0432V27.2863C35.0425 27.0304 34.988 26.7774 34.8832 26.5439L34.6112 25.9199Z" fill="#BF6D3E"/>
<path d="M44.2256 37.6558C45.5756 36.7767 46.801 35.7198 47.8688 34.5134C48.2285 32.3439 48.479 30.1577 48.6192 27.963C49.3024 27.8866 49.9911 27.8732 50.6768 27.923C51.1869 30.7987 51.3518 33.725 51.168 36.6398C49.3536 38.4366 47.416 40.4382 45.6 42.2398L44.2256 37.6558Z" fill="#5568AC"/>
<path d="M50.9696 35.3248C51.0744 35.1775 51.165 35.0205 51.24 34.856C51.232 35.4512 51.2096 36.0448 51.168 36.6416C49.3536 38.4368 47.416 40.4384 45.6 42.2399L45.28 41.176C47.2912 39.36 49.28 37.512 50.9696 35.3248Z" fill="#000E41"/>
<path d="M48.784 28.9839L50.1568 29.0159C50.2224 29.0159 50.2288 29.1199 50.1568 29.1183L48.784 29.0863C48.7232 29.0847 48.7184 28.9823 48.784 28.9839Z" fill="#000E41"/>
<path d="M39.624 37.6558C38.2739 36.7767 37.0485 35.7198 35.9808 34.5134C35.621 32.3439 35.3705 30.1577 35.2304 27.963C34.5472 27.8866 33.8584 27.8732 33.1728 27.923C32.6626 30.7987 32.4977 33.725 32.6816 36.6398C34.496 38.435 36.4336 40.4366 38.248 42.2318L39.624 37.6558Z" fill="#5568AC"/>
<path d="M38.3344 40.6656C38.3648 41.0096 38.3888 41.3536 38.4096 41.6976L38.2496 42.2336C36.4352 40.4384 34.4976 38.4368 32.6832 36.6416C32.6304 35.8656 32.6064 35.0912 32.6064 34.3184C33.6 36.9792 35.8576 39.0144 38.3344 40.6656Z" fill="#000E41"/>
<path d="M33.28 29.0607L35.0976 28.9695C35.1111 28.9695 35.1242 28.9749 35.1338 28.9845C35.1434 28.9941 35.1488 29.0071 35.1488 29.0207C35.1488 29.0343 35.1434 29.0473 35.1338 29.0569C35.1242 29.0665 35.1111 29.0719 35.0976 29.0719L33.2784 29.1647C33.2662 29.1623 33.2552 29.1558 33.2473 29.1462C33.2395 29.1365 33.2353 29.1244 33.2355 29.112C33.2357 29.0996 33.2402 29.0876 33.2484 29.0782C33.2565 29.0689 33.2677 29.0626 33.28 29.0607Z" fill="#000E41"/>
<path d="M37.4576 69.656C37.4576 69.9072 37.4576 70.152 37.4576 70.3872H38.9168L38.9968 69.656H37.4576Z" fill="#00092B"/>
<path d="M44.6768 69.656C44.6768 69.9072 44.6768 70.152 44.6768 70.3872H46.136L46.2176 69.656H44.6768Z" fill="#00092B"/>
<path d="M46.272 49.7791C42.4096 50.2047 41.8496 52.4143 41.8496 52.4143L43.4096 61.6286L44.2288 70.067H46.8288C47.6128 59.5198 46.272 49.7791 46.272 49.7791Z" fill="#000E41"/>
<path d="M42.888 52.2879C42.888 52.2879 44.6064 51.1871 44.808 50.2239L37.8432 50.4527C37.8432 50.4527 36.8736 62.8959 36.9008 69.6527H39.5584L42.888 52.2879Z" fill="#5568AC"/>
<path d="M42.6928 53.3088L39.5584 70.0672H36.9008C36.88 65.0368 37.4128 56.4496 37.6864 52.5952C39.3 53.1265 40.995 53.3681 42.6928 53.3088Z" fill="#5568AC"/>
<path d="M37.6864 52.5951C37.7792 51.2687 37.8464 50.4527 37.8464 50.4527L44.8112 50.2239C44.6096 51.1839 42.8912 52.2879 42.8912 52.2879L42.696 53.3087C40.9971 53.3684 39.3011 53.1268 37.6864 52.5951Z" fill="#000E41"/>
<path d="M44.2176 51.1999C44.5584 50.8575 44.8576 50.4671 44.9344 50.0959L38.4144 49.7871C38.4144 49.7871 38.3616 50.4879 38.3376 50.7791C40.2609 51.2434 42.2478 51.3856 44.2176 51.1999Z" fill="#000E41"/>
<path d="M39.0032 70.2766L37.296 70.2302C36.8206 70.7296 36.4842 71.3446 36.32 72.0142H39.4016C39.3405 71.4209 39.2067 70.8373 39.0032 70.2766Z" fill="#00092B"/>
<path d="M36.32 72.0144C36.304 72.0768 36.2864 72.1408 36.2752 72.2048C36.2695 72.2287 36.2694 72.2535 36.2749 72.2774C36.2804 72.3013 36.2913 72.3236 36.3067 72.3426C36.3222 72.3616 36.3418 72.3768 36.3641 72.3871C36.3864 72.3973 36.4107 72.4023 36.4352 72.4016H39.2608C39.2831 72.4017 39.3051 72.3971 39.3255 72.3882C39.3459 72.3793 39.3643 72.3662 39.3793 72.3498C39.3944 72.3334 39.4059 72.314 39.413 72.2929C39.4201 72.2718 39.4228 72.2494 39.4208 72.2272C39.4208 72.1568 39.408 72.0848 39.4016 72.0144H36.32Z" fill="#A86114"/>
<path d="M44.5856 70.2766L46.2912 70.2302C46.7712 70.7246 49.6304 71.3502 49.7968 72.0142H44.1968C44.254 71.4212 44.3846 70.8375 44.5856 70.2766Z" fill="#00092B"/>
<path d="M49.7968 72.0144C49.8128 72.0768 49.8288 72.1408 49.8416 72.2048C49.8472 72.2287 49.8473 72.2535 49.8418 72.2774C49.8364 72.3013 49.8255 72.3236 49.81 72.3426C49.7946 72.3616 49.7749 72.3768 49.7527 72.3871C49.7304 72.3973 49.7061 72.4023 49.6816 72.4016H44.3328C44.3105 72.4017 44.2884 72.3971 44.268 72.3882C44.2476 72.3793 44.2293 72.3662 44.2142 72.3498C44.1992 72.3334 44.1877 72.314 44.1806 72.2929C44.1734 72.2718 44.1708 72.2494 44.1728 72.2272C44.1728 72.1568 44.184 72.0848 44.192 72.0144H49.7968Z" fill="#A86114"/>
<path d="M38.8096 62.3039C38.5984 61.9391 38.376 61.5855 38.2016 61.2015C38.033 60.8124 37.8887 60.4133 37.7696 60.0063C37.766 59.9971 37.7592 59.9895 37.7503 59.985C37.7415 59.9806 37.7314 59.9795 37.7218 59.9821C37.7123 59.9847 37.704 59.9907 37.6986 59.999C37.6933 60.0073 37.6912 60.0173 37.6928 60.0271C37.7784 60.4484 37.9131 60.8581 38.0944 61.2479C38.2588 61.6472 38.4739 62.0236 38.7344 62.3679C38.7696 62.3999 38.8368 62.3487 38.8096 62.3039Z" fill="#000E41"/>
<path d="M37.3248 69.408H39.0192C39.0848 69.408 39.0896 69.5104 39.0192 69.5104H37.3296C37.264 69.5104 37.2592 69.408 37.3248 69.408Z" fill="#000E41"/>
<path d="M45.5824 38.8991C45.5645 38.6698 45.4789 38.451 45.3364 38.2704C45.194 38.0898 45.0012 37.9556 44.7824 37.8847C43.7575 37.5345 42.6716 37.3983 41.592 37.4847C40.5995 37.5637 39.6187 37.7515 38.6672 38.0447C38.0448 38.2271 37.656 38.7823 37.752 39.3551C38.3257 42.7766 38.5077 46.2523 38.2944 49.7151C40.8544 50.4559 43.3936 50.6751 45.8144 49.8287C45.8864 46.3023 45.7488 42.4319 45.5824 38.8991Z" fill="#A6F3FF"/>
<path d="M41.9856 38.4671C41.7057 38.6085 41.4436 38.7825 41.2048 38.9855C41.1024 38.7935 41.0064 38.5967 40.9072 38.4031L40.7472 38.0832C40.6999 37.9735 40.6414 37.8689 40.5728 37.7712C40.5424 37.7344 40.4848 37.7712 40.496 37.816C40.5335 37.927 40.5817 38.0342 40.64 38.136C40.696 38.2463 40.752 38.3567 40.8 38.4671C40.9104 38.6847 41.0256 38.8991 41.128 39.1199C41.1331 39.1282 41.1401 39.1352 41.1483 39.1404C41.1564 39.1457 41.1657 39.149 41.1754 39.1503C41.185 39.1515 41.1948 39.1505 41.204 39.1475C41.2133 39.1445 41.2217 39.1394 41.2288 39.1327C41.4806 38.9182 41.7541 38.7305 42.0448 38.5727C42.1136 38.5327 42.0544 38.4319 41.9856 38.4671Z" fill="#47BED1"/>
<path d="M42.9936 38.4687C42.9936 38.3743 42.9936 38.2815 42.9936 38.1887C43.0061 38.0986 42.999 38.0069 42.9728 37.9199C42.9687 37.9139 42.9632 37.9091 42.9568 37.9057C42.9503 37.9024 42.9432 37.9006 42.936 37.9006C42.9288 37.9006 42.9216 37.9024 42.9152 37.9057C42.9088 37.9091 42.9033 37.9139 42.8992 37.9199C42.8719 38.0029 42.8654 38.0913 42.88 38.1775C42.88 38.2751 42.88 38.3711 42.88 38.4687C42.88 38.6287 42.8976 38.7775 42.9104 38.9311L42.5264 38.7199L42.2896 38.5887C42.2151 38.5385 42.133 38.5007 42.0464 38.4767C42.0398 38.4753 42.0329 38.476 42.0267 38.4787C42.0205 38.4815 42.0153 38.4861 42.012 38.492C42.0086 38.4979 42.0071 38.5047 42.0079 38.5114C42.0086 38.5181 42.0114 38.5245 42.016 38.5295C42.0805 38.5915 42.1545 38.6428 42.2352 38.6815L42.4688 38.8191L42.9488 39.0927C42.9578 39.0993 42.9685 39.1031 42.9797 39.1037C42.9908 39.1043 43.0019 39.1016 43.0116 39.096C43.0213 39.0904 43.0291 39.0821 43.0341 39.0722C43.0392 39.0622 43.0412 39.051 43.04 39.0399C43.0144 38.8463 43.0016 38.6575 42.9936 38.4687Z" fill="#47BED1"/>
<path d="M42.016 38.5215L41.6528 38.8095L41.8336 39.0927L41.8 48.7471L42.52 49.1215L43.1328 48.7471L42.288 39.1471L42.392 38.7679L42.016 38.5215Z" fill="#DD4F05"/>
<path d="M37.5296 40.0398C37.4064 39.2142 37.744 38.3214 38.4096 38.0798C38.9501 37.8766 39.5149 37.7448 40.0896 37.6878C40.5392 39.5646 42.392 43.3998 42.392 43.3998C42.392 43.3998 43.832 39.011 42.9856 37.499C43.528 37.4702 44.5584 37.6238 45.1024 37.9006C45.6128 38.1598 45.9328 38.9998 45.9712 39.651C46.208 43.6782 46.96 47.8639 47.2768 51.9471C46.8832 52.1311 46.3696 52.1358 45.9456 52.1726C45.256 52.235 44.5648 52.267 43.8656 52.2926C41.6256 52.3758 39.4048 52.3038 37.2848 51.4926C37.6 47.6638 38.0944 43.8494 37.5296 40.0398Z" fill="#5568AC"/>
<path d="M38.3344 40.6654C38.6544 44.3022 38.3456 48.003 37.6464 51.6174C37.528 51.5758 37.4096 51.5342 37.2912 51.4878C37.5968 47.6894 38.0912 43.899 37.5392 40.115C37.8016 40.3038 38.0667 40.4873 38.3344 40.6654Z" fill="#000E41"/>
<path d="M43.6992 40.8895L44.4608 40.6287L44.6512 40.5631C44.7088 40.547 44.765 40.5262 44.8192 40.5007C44.928 40.4415 44.8864 40.3119 44.8544 40.2159C44.6944 39.7007 44.5152 39.187 44.3472 38.6718C44.3429 38.6589 44.344 38.6448 44.3502 38.6327C44.3563 38.6205 44.367 38.6113 44.38 38.607C44.3929 38.6028 44.407 38.6039 44.4192 38.61C44.4313 38.6162 44.4405 38.6269 44.4448 38.6398L44.8768 39.9535C44.9104 40.0543 44.9488 40.1567 44.976 40.2607C45.0007 40.3365 44.9978 40.4187 44.968 40.4927C44.9479 40.5258 44.9215 40.5546 44.8902 40.5774C44.8588 40.6002 44.8233 40.6166 44.7856 40.6255L44.4656 40.7343L43.728 40.9871C43.7156 40.9893 43.7028 40.9868 43.6921 40.9802C43.6814 40.9735 43.6735 40.9632 43.6699 40.9511C43.6664 40.9391 43.6674 40.9261 43.6728 40.9147C43.6782 40.9033 43.6876 40.8943 43.6992 40.8895Z" fill="#000E41"/>
<path d="M43.7648 40.9151L44.624 41.8063C44.6688 41.8527 44.6 41.9295 44.5536 41.8815L43.696 40.9903C43.6496 40.9439 43.7184 40.8671 43.7648 40.9151Z" fill="#000E41"/>
<path d="M42.6032 44.2495L44.5504 41.8063C44.592 41.7535 44.6672 41.8239 44.6272 41.8751L42.68 44.3199C42.6384 44.3695 42.56 44.3007 42.6032 44.2495Z" fill="#000E41"/>
<path d="M40.5664 41.0686L39.776 40.9086L39.5792 40.8702C39.5196 40.8627 39.4607 40.8504 39.4032 40.8334C39.2864 40.7886 39.3104 40.6542 39.328 40.555C39.424 40.0222 39.5216 39.4878 39.6176 38.955C39.6199 38.9415 39.6167 38.9275 39.6088 38.9163C39.6008 38.905 39.5888 38.8974 39.5752 38.895C39.5616 38.8927 39.5476 38.8959 39.5364 38.9038C39.5251 38.9118 39.5175 38.9239 39.5152 38.9374L39.2704 40.2974C39.2512 40.403 39.2272 40.5102 39.216 40.6174C39.1997 40.6958 39.2134 40.7775 39.2544 40.8462C39.3046 40.9055 39.3756 40.9433 39.4528 40.9518L39.7824 41.0142L40.5488 41.1614C40.5587 41.1593 40.5677 41.1544 40.5747 41.1472C40.5818 41.1399 40.5866 41.1308 40.5885 41.1209C40.5903 41.111 40.5892 41.1007 40.5853 41.0914C40.5814 41.0821 40.5748 41.0742 40.5664 41.0686Z" fill="#000E41"/>
<path d="M40.5056 41.104L39.7792 42.1056C39.7392 42.1584 39.8192 42.224 39.8576 42.1712L40.584 41.1696C40.6224 41.12 40.544 41.0512 40.5056 41.104Z" fill="#000E41"/>
<path d="M42.1184 44.243L39.8512 42.0958C39.8032 42.0494 39.7376 42.1294 39.7856 42.1742L42.0544 44.3198C42.1024 44.3678 42.1664 44.2894 42.1184 44.243Z" fill="#000E41"/>
<path d="M42.4416 43.5695C42.5152 44.7205 42.5723 45.8709 42.6128 47.0207C42.6533 48.1706 42.6784 49.3221 42.688 50.4751C42.688 51.1226 42.688 51.7711 42.688 52.4207C42.688 52.4863 42.5856 52.4911 42.5856 52.4207C42.5952 51.2687 42.5888 50.1167 42.5664 48.9647C42.544 47.8127 42.5051 46.6618 42.4496 45.5119C42.4176 44.8634 42.3814 44.2159 42.3408 43.5695C42.3429 43.5577 42.3491 43.547 42.3584 43.5393C42.3676 43.5316 42.3792 43.5273 42.3912 43.5273C42.4032 43.5273 42.4149 43.5316 42.4241 43.5393C42.4333 43.547 42.4395 43.5577 42.4416 43.5695Z" fill="#000E41"/>
<path d="M44.224 48.8C44.8294 48.9691 45.4728 48.9428 46.0624 48.7248C46.1248 48.7024 46.1568 48.8 46.0944 48.8224C45.4867 49.0465 44.8238 49.0734 44.2 48.8991C44.1376 48.8783 44.16 48.7792 44.224 48.8Z" fill="#000E41"/>
<path d="M38.7008 48.9311C39.3066 49.1009 39.9505 49.0751 40.5408 48.8575C40.6032 48.8335 40.6352 48.9311 40.5728 48.9551C39.9648 49.1777 39.3024 49.2045 38.6784 49.0319C38.616 49.0143 38.6384 48.9135 38.7008 48.9311Z" fill="#000E41"/>
<path d="M43.84 34.264C44.0205 33.6335 43.9764 32.9599 43.7152 32.3584C43.7473 32.2069 43.7235 32.0489 43.648 31.9136C43.5705 31.7846 43.46 31.6786 43.328 31.6064C43.2415 31.5547 43.1457 31.5206 43.046 31.5061C42.9464 31.4915 42.8448 31.4968 42.7472 31.5216C42.6498 31.5485 42.5629 31.6043 42.498 31.6818C42.4331 31.7592 42.3933 31.8546 42.384 31.9552C42.2467 31.8613 42.0997 31.7825 41.9456 31.72C41.7817 31.6569 41.6024 31.6457 41.432 31.688C41.3477 31.7101 41.2702 31.7528 41.2065 31.8123C41.1428 31.8718 41.0949 31.9462 41.0672 32.0288C41.0431 32.1125 41.0486 32.2019 41.0827 32.282C41.1168 32.3622 41.1774 32.4281 41.2544 32.4688C41.1738 32.3948 41.0737 32.3456 40.9659 32.3268C40.8581 32.3081 40.7472 32.3207 40.6464 32.3632C40.4635 32.454 40.3217 32.6106 40.2496 32.8016C40.1822 32.9486 40.1589 33.112 40.1824 33.272C40.1951 33.3514 40.2264 33.4266 40.2737 33.4917C40.3209 33.5567 40.3828 33.6097 40.4544 33.6464C40.1792 33.784 40.0896 34.1264 40.1472 34.4208C40.2228 34.7225 40.3774 34.9987 40.5952 35.2208C40.8109 35.4411 40.9984 35.6872 41.1536 35.9536L43.84 34.264Z" fill="#7A2923"/>
<path d="M43.7568 34.3262C43.9179 33.719 43.8792 33.0761 43.6464 32.4926C43.6749 32.3474 43.6535 32.1969 43.5856 32.0654C43.5193 31.9427 43.4209 31.8404 43.3008 31.7694C43.2253 31.7201 43.1402 31.6874 43.0511 31.6734C42.9621 31.6593 42.871 31.6642 42.784 31.6878C42.6958 31.7187 42.6185 31.7747 42.5617 31.8488C42.5049 31.923 42.4709 32.0122 42.464 32.1054C42.3431 32.0148 42.2121 31.9386 42.0736 31.8782C41.9291 31.8181 41.7688 31.8074 41.6176 31.8478C41.5421 31.8707 41.4733 31.9119 41.4175 31.9677C41.3617 32.0235 41.3205 32.0922 41.2976 32.1678C41.2745 32.2462 41.2777 32.3301 41.3066 32.4066C41.3354 32.4831 41.3885 32.5481 41.4576 32.5918C41.3888 32.5213 41.3001 32.4737 41.2033 32.4554C41.1066 32.4371 41.0066 32.4489 40.9168 32.4894C40.7505 32.5813 40.6244 32.7319 40.5632 32.9118C40.5031 33.0541 40.4827 33.21 40.504 33.363C40.5141 33.4377 40.541 33.5091 40.5829 33.5718C40.6248 33.6344 40.6804 33.6867 40.7456 33.7246C40.5008 33.8574 40.4256 34.179 40.472 34.4702C40.5396 34.7546 40.6765 35.0179 40.8704 35.2366C41.0641 35.4503 41.2312 35.6867 41.368 35.9406L43.7568 34.3262Z" fill="#3B1411"/>
<path d="M40.9152 35.1184C40.9792 35.9497 40.9599 36.7853 40.8576 37.6128C40.8468 37.6947 40.8587 37.778 40.892 37.8536C40.9252 37.9292 40.9787 37.9943 41.0464 38.0416C41.4309 38.3122 41.9039 38.4265 42.3696 38.3616C42.4813 38.3438 42.5821 38.2845 42.6518 38.1954C42.7216 38.1064 42.7551 37.9943 42.7456 37.8816C42.7017 37.3495 42.6868 36.8154 42.7008 36.2816C42.2369 35.7222 41.6143 35.3166 40.9152 35.1184Z" fill="#BF6D3E"/>
<path d="M42.7008 36.272C42.2356 35.7161 41.6131 35.314 40.9152 35.1184C40.9312 35.336 40.9424 35.5552 40.9488 35.7744C41.0734 36.1886 41.3014 36.5642 41.6112 36.8659C41.9211 37.1677 42.3026 37.3856 42.72 37.4992C42.6976 37.0944 42.6896 36.696 42.7008 36.272Z" fill="#80410E"/>
<path d="M43.8544 33.7599C44.0144 34.9183 43.7664 36.9055 42.8944 36.9951C41.864 37.1007 41.2336 36.1855 41.0032 35.3423C41.0032 35.3567 40.9088 35.4111 40.808 35.4047C40.6915 35.3748 40.5904 35.3023 40.5248 35.2015C40.4192 35.0415 40.312 34.7999 40.4256 34.6207C40.5616 34.4047 40.8608 34.3599 40.9872 34.6207C41.0004 34.2046 41.0939 33.795 41.2624 33.4143C41.2853 33.3502 41.3222 33.292 41.3704 33.2439C41.4185 33.1957 41.4767 33.1588 41.5408 33.1359C42.1654 32.9292 42.8377 32.9153 43.4704 33.0959C43.5445 33.1191 43.6117 33.1606 43.6656 33.2165C43.7196 33.2724 43.7586 33.341 43.7792 33.4159C43.8118 33.5288 43.837 33.6437 43.8544 33.7599Z" fill="#BF6D3E"/>
<path d="M42.6128 33.8367C42.4272 33.5999 41.9136 33.7631 41.7232 33.9151C41.6896 33.9423 41.648 33.9791 41.6512 34.0271C41.6521 34.0397 41.6567 34.0517 41.6643 34.0616C41.672 34.0716 41.6825 34.0791 41.6944 34.0831C41.752 34.0991 41.8064 34.0511 41.8544 34.0255C41.9178 33.9916 41.9856 33.9668 42.056 33.9519C42.1429 33.9314 42.2328 33.926 42.3216 33.9359C42.4044 33.9592 42.4899 33.9716 42.576 33.9727C42.6448 33.9615 42.6464 33.8783 42.6128 33.8367Z" fill="#3B1411"/>
<path d="M42.3408 34.2511C42.3355 34.2373 42.3273 34.2247 42.3168 34.2143C42.3062 34.2044 42.2936 34.1968 42.28 34.1919C42.2665 34.184 42.2508 34.1806 42.2352 34.1823H42.2048C42.1865 34.1883 42.1696 34.1982 42.1552 34.2111L42.1376 34.2351C42.1267 34.2523 42.1212 34.2723 42.1216 34.2927V34.3039C42.1215 34.3193 42.1248 34.3346 42.1312 34.3487C42.1366 34.3625 42.1448 34.375 42.1552 34.3855C42.1657 34.3959 42.1782 34.4041 42.192 34.4095C42.2055 34.4159 42.2203 34.4191 42.2352 34.4191H42.2656C42.285 34.4144 42.3027 34.4044 42.3168 34.3903L42.3344 34.3663C42.3445 34.3488 42.35 34.3289 42.3504 34.3087V34.2975C42.3507 34.2815 42.3474 34.2657 42.3408 34.2511Z" fill="#3B1411"/>
<path d="M43.5872 34.3231C43.5818 34.3093 43.5736 34.2968 43.5631 34.2863C43.5527 34.2758 43.5401 34.2676 43.5264 34.2623C43.5135 34.2543 43.4982 34.2509 43.4831 34.2527H43.4527C43.434 34.2587 43.417 34.2691 43.4031 34.2831L43.3855 34.3055C43.3747 34.3227 43.3691 34.3427 43.3695 34.3631V34.3759C43.3679 34.3909 43.3713 34.4061 43.3791 34.4191C43.3845 34.4328 43.3927 34.4454 43.4032 34.4558C43.4137 34.4663 43.4262 34.4745 43.44 34.4799C43.4534 34.4864 43.4682 34.4897 43.4831 34.4895H43.5136C43.5325 34.4847 43.5496 34.4747 43.5632 34.4607L43.5824 34.4383C43.5916 34.4205 43.5965 34.4007 43.5968 34.3807V34.3679C43.5989 34.3523 43.5955 34.3364 43.5872 34.3231Z" fill="#3B1411"/>
<path d="M43.8128 34.0016C43.7878 33.9602 43.7544 33.9245 43.7147 33.8969C43.675 33.8694 43.6299 33.8505 43.5824 33.8416C43.4937 33.8184 43.4006 33.8184 43.312 33.8416C43.2922 33.8475 43.2753 33.8603 43.2641 33.8776C43.253 33.8949 43.2484 33.9156 43.2512 33.936C43.2608 34.0048 43.32 34.0064 43.3744 34.008C43.4473 34.0061 43.5199 34.0197 43.5872 34.048C43.6336 34.0672 43.8752 34.1872 43.8272 34.0352C43.8243 34.0233 43.8195 34.0119 43.8128 34.0016Z" fill="#3B1411"/>
<path d="M42.7488 36.272C42.7122 36.2664 42.675 36.2664 42.6384 36.272C42.6059 36.2737 42.5733 36.2737 42.5408 36.272C42.5068 36.2667 42.4732 36.2598 42.44 36.2512C42.4053 36.2374 42.3685 36.2298 42.3312 36.2288C42.3228 36.2295 42.3148 36.2325 42.3081 36.2375C42.3013 36.2424 42.296 36.2491 42.2927 36.2568C42.2894 36.2645 42.2883 36.273 42.2894 36.2813C42.2906 36.2896 42.2939 36.2974 42.2992 36.304C42.3277 36.3335 42.3645 36.3536 42.4048 36.3616C42.4405 36.3744 42.4775 36.3835 42.5152 36.3888C42.5548 36.3957 42.5949 36.3994 42.6352 36.4C42.6785 36.4052 42.7225 36.3997 42.7632 36.384C42.7746 36.3787 42.784 36.3699 42.7901 36.3589C42.7962 36.3478 42.7986 36.3352 42.797 36.3227C42.7954 36.3102 42.7899 36.2985 42.7812 36.2894C42.7725 36.2803 42.7612 36.2742 42.7488 36.272Z" fill="#804E26"/>
<path d="M40.8912 35.0542C40.8818 35.0574 40.8719 35.0588 40.8621 35.0581C40.8522 35.0574 40.8426 35.0547 40.8338 35.0503C40.825 35.0458 40.8172 35.0396 40.8108 35.032C40.8044 35.0244 40.7997 35.0157 40.7968 35.0062C40.7956 34.996 40.7967 34.9857 40.8 34.976C40.8034 34.9664 40.8088 34.9575 40.816 34.9502C40.8223 34.9427 40.8301 34.9365 40.8389 34.9321C40.8477 34.9277 40.8573 34.9252 40.8672 34.9246C40.8741 34.9243 40.8808 34.9225 40.8869 34.9193C40.893 34.9161 40.8983 34.9116 40.9025 34.9061C40.9066 34.9006 40.9095 34.8942 40.9108 34.8874C40.9122 34.8807 40.912 34.8737 40.9104 34.867C40.8995 34.8026 40.8663 34.744 40.8165 34.7016C40.7668 34.6592 40.7037 34.6356 40.6384 34.635C40.6076 34.6375 40.5779 34.6479 40.5524 34.6653C40.5269 34.6827 40.5063 34.7064 40.4928 34.7342C40.4814 34.7615 40.4786 34.7917 40.4848 34.8206C40.4848 34.8366 40.5104 34.8798 40.5344 34.8574C40.5584 34.835 40.544 34.827 40.5488 34.811C40.5529 34.7932 40.5605 34.7763 40.5712 34.7614C40.5812 34.7471 40.5951 34.7358 40.6112 34.729C40.6274 34.7222 40.6451 34.7202 40.6624 34.723C40.6956 34.7283 40.7267 34.7429 40.7522 34.7649C40.7776 34.7869 40.7964 34.8157 40.8064 34.8478C40.7737 34.8619 40.7472 34.8873 40.7317 34.9193C40.7161 34.9513 40.7125 34.9878 40.7216 35.0222C40.7338 35.0609 40.7603 35.0935 40.7956 35.1134C40.831 35.1333 40.8726 35.139 40.912 35.1294C40.96 35.115 40.9392 35.0398 40.8912 35.0542Z" fill="#804E26"/>
<path d="M43.3008 34.9088C43.2446 34.8636 43.1853 34.8224 43.1232 34.7856C43.0933 34.7676 43.0694 34.7411 43.0546 34.7095C43.0398 34.6778 43.0347 34.6425 43.04 34.608C43.04 34.5552 42.9728 34.5488 42.9472 34.584C42.8704 34.6912 42.976 34.8272 43.0624 34.8896C43.1185 34.9222 43.172 34.9591 43.2224 35C43.2833 35.0619 43.3199 35.1435 43.3258 35.2301C43.3317 35.3167 43.3064 35.4025 43.2544 35.472C43.1758 35.5586 43.0694 35.6152 42.9536 35.632C42.9454 35.6338 42.938 35.6383 42.9327 35.6448C42.9273 35.6514 42.9245 35.6596 42.9245 35.668C42.9245 35.6764 42.9273 35.6846 42.9327 35.6912C42.938 35.6977 42.9454 35.7023 42.9536 35.704C43.0158 35.7155 43.0799 35.7117 43.1404 35.6931C43.2009 35.6744 43.2559 35.6414 43.3008 35.5968C43.3489 35.5538 43.3872 35.501 43.4132 35.4419C43.4391 35.3829 43.4521 35.3189 43.4512 35.2544C43.4508 35.1896 43.4372 35.1256 43.4114 35.0662C43.3855 35.0068 43.3479 34.9533 43.3008 34.9088Z" fill="#80410E"/>
<path d="M42.9104 36.0368C42.7305 36.0899 42.5383 36.0839 42.362 36.0197C42.1858 35.9555 42.0348 35.8364 41.9312 35.68C41.8944 35.6256 41.9808 35.5696 42.0176 35.624C42.1076 35.7628 42.24 35.8688 42.395 35.9265C42.5501 35.9841 42.7196 35.9903 42.8784 35.944C42.8894 35.9435 42.9003 35.9466 42.9094 35.9528C42.9185 35.959 42.9254 35.968 42.929 35.9785C42.9326 35.9889 42.9327 36.0002 42.9294 36.0107C42.926 36.0212 42.9193 36.0304 42.9104 36.0368Z" fill="#3B1411"/>
<path d="M45.9904 39.52C46.0704 41.056 46.2096 42.5866 46.408 44.112C46.4635 44.5386 46.5243 44.9653 46.5904 45.392C46.6 45.4576 46.4976 45.4608 46.488 45.392C46.2544 43.872 46.0811 42.3445 45.968 40.8096C45.9371 40.3829 45.9104 39.953 45.888 39.52C45.888 39.5064 45.8934 39.4933 45.903 39.4837C45.9126 39.4741 45.9256 39.4688 45.9392 39.4688C45.9528 39.4688 45.9658 39.4741 45.9754 39.4837C45.985 39.4933 45.9904 39.5064 45.9904 39.52Z" fill="#000E41"/>
<path d="M34.6752 26.9488C34.551 26.8882 34.447 26.7929 34.3758 26.6745C34.3046 26.5561 34.2692 26.4196 34.274 26.2815C34.2787 26.1433 34.3234 26.0096 34.4025 25.8963C34.4817 25.783 34.592 25.6951 34.72 25.6432C34.7648 25.2016 35.1648 24.8544 35.6016 24.7776C35.2879 25.5018 35.0861 26.2695 35.0032 27.0544L34.6752 26.9488Z" fill="#BF6D3E"/>
<path d="M35.0288 24.9918C34.8688 25.051 34.816 25.2254 34.7808 25.3774C34.7679 25.4677 34.7351 25.5541 34.6848 25.6302C34.6158 25.694 34.5383 25.7479 34.4544 25.7902C34.3778 25.8399 34.3131 25.9058 34.2648 25.9832C34.2164 26.0606 34.1855 26.1476 34.1744 26.2382C34.1696 26.4439 34.2117 26.648 34.2976 26.835C34.3216 26.8958 34.4112 26.8478 34.3888 26.787C34.3062 26.6107 34.2688 26.4166 34.28 26.2222C34.2984 26.1348 34.3369 26.0528 34.3924 25.9828C34.448 25.9129 34.519 25.8568 34.6 25.819C34.6701 25.7842 34.7314 25.7338 34.7792 25.6718C34.818 25.608 34.8461 25.5383 34.8624 25.4654C34.896 25.3246 34.9184 25.1454 35.0736 25.083C35.1392 25.059 35.0912 24.9678 35.0288 24.9918Z" fill="#80410E"/>
<path d="M60.7312 33.8046C61.0985 33.9151 61.4277 34.1258 61.6821 34.4129C61.9364 34.7 62.1058 35.0522 62.1712 35.4302C62.1795 35.6071 62.2259 35.7801 62.3072 35.9374C62.4128 36.0974 62.6128 36.187 62.6544 36.3694C62.696 36.5518 62.5376 36.779 62.6304 36.9566C62.7232 37.1342 63.016 37.1358 63.1104 37.3182C63.2048 37.5006 62.984 37.7694 63.0752 37.9758C63.1664 38.1822 63.4224 38.1582 63.5984 38.2638C63.6762 38.3167 63.7393 38.3885 63.7818 38.4725C63.8243 38.5564 63.8449 38.6497 63.8416 38.7438C63.831 38.9335 63.7762 39.1182 63.6816 39.283C63.176 40.283 62.1472 40.9646 61.048 41.1886C59.9488 41.4126 58.7952 41.2158 57.7616 40.7822C57.5079 40.6956 57.2805 40.5458 57.1008 40.347C57.0142 40.2452 56.9616 40.1189 56.9504 39.9858C56.9392 39.8527 56.97 39.7194 57.0384 39.6046C57.1083 39.5336 57.171 39.4559 57.2256 39.3726C57.376 39.0526 56.9056 38.7326 56.9712 38.3822C57.008 38.195 57.192 38.0798 57.3472 37.971C57.5024 37.8622 57.6672 37.6942 57.624 37.507C57.6048 37.4158 57.5376 37.347 57.5152 37.2478C57.4592 37.0094 57.7072 36.827 57.864 36.6398C58.144 36.307 58.16 35.8398 58.2144 35.4046C58.2547 35.1242 58.3552 34.8559 58.5089 34.6179C58.6627 34.38 58.866 34.1782 59.1051 34.0262C59.3441 33.8742 59.6132 33.7757 59.8939 33.7375C60.1746 33.6992 60.4602 33.7221 60.7312 33.8046Z" fill="#96432A"/>
<path d="M60.712 34.2287C61.0591 34.3327 61.3703 34.5314 61.6108 34.8024C61.8513 35.0734 62.0116 35.4061 62.0736 35.7631C62.0798 35.9307 62.1235 36.0947 62.2016 36.2431C62.3008 36.3903 62.4896 36.4783 62.5296 36.6511C62.5696 36.8239 62.4192 37.0383 62.5072 37.2047C62.5952 37.3711 62.8704 37.3743 62.9552 37.5455C63.04 37.7167 62.8352 37.9727 62.9216 38.1663C63.008 38.3599 63.2496 38.3391 63.416 38.4383C63.4896 38.4891 63.5491 38.5577 63.5891 38.6377C63.6291 38.7177 63.6483 38.8065 63.6448 38.8959C63.6344 39.0746 63.5835 39.2485 63.496 39.4047C63.016 40.3487 62.056 40.9903 61.0128 41.2031C59.9696 41.4159 58.8864 41.2271 57.912 40.8191C57.6733 40.7364 57.4593 40.595 57.2896 40.4079C57.2065 40.3129 57.1559 40.1938 57.1452 40.068C57.1346 39.9422 57.1644 39.8163 57.2304 39.7087C57.2962 39.641 57.3551 39.5671 57.4064 39.4879C57.5488 39.1871 57.0992 38.8799 57.1664 38.5535C57.2016 38.3775 57.3744 38.2703 57.5216 38.1663C57.6688 38.0623 57.8208 37.9055 57.7824 37.7295C57.7632 37.6415 57.7008 37.5695 57.68 37.4847C57.6272 37.2607 57.8608 37.0879 58.0096 36.9119C58.2736 36.5919 58.288 36.1519 58.3392 35.7455C58.3762 35.4804 58.4702 35.2266 58.6147 35.0013C58.7592 34.776 58.9508 34.5848 59.1763 34.4406C59.4018 34.2965 59.6558 34.2029 59.9209 34.1663C60.186 34.1297 60.4559 34.151 60.712 34.2287Z" fill="#6C301E"/>
<path d="M67.5952 36.7438C67.5925 36.6785 67.5733 36.615 67.5394 36.559C67.5056 36.5031 67.4582 36.4566 67.4016 36.4238C67.2876 36.3586 67.1621 36.3157 67.032 36.2974C66.6541 36.2269 66.2708 36.1889 65.8864 36.1838C65.7902 36.1835 65.6968 36.2167 65.6223 36.2777C65.5479 36.3388 65.497 36.4238 65.4784 36.5182C65.4562 36.6151 65.4412 36.7135 65.4336 36.8126C65.1728 36.9918 65.184 37.3966 65.2272 37.7086C64.6208 38.2446 63.6272 39.0062 62.8416 39.2046C62.056 39.403 61.2176 39.7311 60.84 40.4479C60.5776 40.9439 60.5904 41.5359 60.6144 42.0975C60.632 42.5055 60.6736 42.9679 61.2112 43.1023C61.3815 43.1391 61.5577 43.1391 61.728 43.1023C62.8272 42.8895 63.5296 41.9375 64.4848 41.3631C65.3984 40.8142 66.3296 40.2271 66.9424 39.355C67.5552 38.483 68.1776 37.635 67.5952 36.7438Z" fill="#F48B22"/>
<path d="M67.6912 38.1214C67.7958 37.9031 67.842 37.6614 67.8251 37.42C67.8083 37.1785 67.7291 36.9455 67.5952 36.7438C67.5924 36.6785 67.5733 36.615 67.5394 36.559C67.5056 36.5031 67.4582 36.4566 67.4016 36.4238C67.2875 36.3586 67.1621 36.3157 67.032 36.2974C66.6541 36.2269 66.2708 36.1889 65.8864 36.1838C65.7902 36.1835 65.6968 36.2167 65.6223 36.2777C65.5479 36.3388 65.497 36.4238 65.4784 36.5182C65.4562 36.6151 65.4412 36.7135 65.4336 36.8126C65.1728 36.9918 65.184 37.3966 65.2272 37.7086C64.6208 38.2446 63.6272 39.0062 62.8416 39.2046C62.056 39.403 61.2176 39.731 60.84 40.4478C60.5776 40.9438 60.5904 41.5358 60.6144 42.0974C60.6144 42.1886 60.624 42.283 60.6352 42.3742C63.2176 41.5182 65.8528 40.1774 67.6912 38.1214Z" fill="#F48B22"/>
<path d="M60.64 42.3712C60.68 42.6912 60.8 42.9952 61.216 43.0992C61.3863 43.136 61.5625 43.136 61.7328 43.0992C62.832 42.8864 63.5344 41.9344 64.4896 41.36C65.4032 40.8112 66.3344 40.224 66.9472 39.352C67.2416 38.9697 67.4927 38.556 67.696 38.1184C65.8528 40.1776 63.2176 41.5184 60.64 42.3712Z" fill="#A86114"/>
<path d="M65.6799 32.8255L65.5855 36.4191C65.5818 36.5471 65.627 36.6717 65.7121 36.7675C65.7972 36.8632 65.9156 36.9229 66.0431 36.9343C66.308 36.9537 66.5733 36.9035 66.8127 36.7887C66.9085 36.7415 66.9867 36.665 67.0359 36.5703C67.0851 36.4756 67.1028 36.3677 67.0864 36.2623L66.5599 32.7599C66.265 32.7402 65.9687 32.7623 65.6799 32.8255Z" fill="#FFC9B9"/>
<path d="M66.4288 38.4768C66.2232 38.4442 66.0263 38.3708 65.8496 38.2608C65.6729 38.1509 65.52 38.0067 65.4 37.8368C65.3616 37.7824 65.2864 37.8528 65.3248 37.9056C65.4543 38.0849 65.6184 38.2365 65.8075 38.3514C65.9965 38.4663 66.2067 38.5421 66.4256 38.5744C66.4896 38.5888 66.4944 38.4864 66.4288 38.4768Z" fill="#A86114"/>
<path d="M66.696 37.2175C66.3835 37.2192 66.0765 37.1357 65.808 36.9759C65.7504 36.9423 65.696 37.0287 65.752 37.0623C66.0365 37.2319 66.3616 37.3214 66.6928 37.3215C66.7584 37.3199 66.7632 37.2175 66.696 37.2175Z" fill="#A86114"/>
<path d="M60.3376 38.8639C59.6461 38.6807 58.9143 38.7222 58.248 38.9823C57.9392 39.1039 57.608 39.3407 57.6192 39.6719C57.6304 39.9599 57.8976 40.1663 58.1504 40.3023C59.099 40.8097 60.1988 40.958 61.248 40.7199C61.7536 40.6031 62.256 40.1855 61.8032 39.6943C61.3991 39.2896 60.8924 39.0025 60.3376 38.8639Z" fill="#F48B22"/>
<path d="M58.1328 40.115C57.4 40.2318 56.8064 40.8286 56.3728 41.4846C55.9392 42.1406 55.6224 42.8782 55.1504 43.499C54.7616 44.0078 54.2767 44.4286 53.9295 44.971C53.5823 45.5134 53.3919 46.251 53.6735 46.8366C53.9423 47.395 54.5664 47.6526 55.1456 47.6606C55.568 47.6606 56.0192 47.5422 56.2928 47.195C56.4919 46.9162 56.5881 46.5768 56.5648 46.235C56.5648 46.1662 56.5568 46.0974 56.5472 46.0286C56.5252 45.8366 56.5468 45.6422 56.6102 45.4596C56.6736 45.2771 56.7773 45.1112 56.9136 44.9742C56.996 44.8888 57.072 44.7974 57.1408 44.7006C57.6208 44.0382 58.056 43.331 58.2832 42.531C58.5104 41.731 58.5264 40.8366 58.1328 40.115Z" fill="#F48B22"/>
<path d="M58.2208 42.7422C58.2432 42.6718 58.2672 42.6046 58.2864 42.5342C58.5152 41.7342 58.5264 40.8366 58.1264 40.115C57.3936 40.2318 56.8 40.8286 56.3664 41.4846C55.9328 42.1406 55.616 42.8782 55.144 43.499C54.7552 44.0078 54.2704 44.4286 53.9232 44.971C53.576 45.5134 53.3856 46.251 53.6672 46.8366C53.936 47.395 54.56 47.6526 55.1392 47.6606C55.5616 47.6606 56.0128 47.5422 56.2864 47.195C56.4856 46.9162 56.5817 46.5768 56.5584 46.235C56.5584 46.1662 56.5504 46.0974 56.5408 46.0286C56.5408 46.0142 56.5408 45.9982 56.5408 45.9822C56.4003 45.6794 56.2287 45.392 56.0288 45.1246C56.8808 44.4513 57.6207 43.6472 58.2208 42.7422Z" fill="#F48B22"/>
<path d="M56.0352 45.1278C56.2351 45.3952 56.4066 45.6826 56.5472 45.9854C56.5328 45.8007 56.5584 45.6151 56.6222 45.4411C56.686 45.2672 56.7864 45.1091 56.9168 44.9774C56.9992 44.892 57.0752 44.8006 57.144 44.7038C57.5977 44.1066 57.9606 43.4456 58.2207 42.7422C57.6228 43.6478 56.8851 44.453 56.0352 45.1278Z" fill="#A86114"/>
<path d="M61.2992 51.6303C61.6944 51.1503 62.024 50.6591 62.0832 50.2975L56.8032 49.3215C56.6432 49.7519 56.3904 50.1887 56.264 50.6303C57.8496 51.2271 59.6288 51.6511 61.2992 51.6303Z" fill="#000E41"/>
<path d="M60.536 71.0399L61.632 71.0095C61.9376 71.3295 63.7792 71.7279 63.8848 72.1551H60.2816C60.3197 71.7743 60.4052 71.3996 60.536 71.0399Z" fill="white"/>
<path d="M63.8848 72.1599C63.896 72.2015 63.9056 72.2415 63.9136 72.2831C63.9169 72.2982 63.9169 72.3139 63.9134 72.329C63.9098 72.3441 63.903 72.3582 63.8934 72.3704C63.8837 72.3825 63.8714 72.3923 63.8575 72.3991C63.8436 72.4058 63.8283 72.4094 63.8128 72.4095H60.3728C60.3584 72.4096 60.3442 72.4066 60.3311 72.4009C60.3179 72.3952 60.3061 72.3868 60.2963 72.3763C60.2865 72.3658 60.279 72.3533 60.2743 72.3398C60.2696 72.3262 60.2677 72.3118 60.2688 72.2975C60.2688 72.2511 60.2768 72.2063 60.2816 72.1599H63.8848Z" fill="#5568AC"/>
<path d="M63.2207 49.9551C61.6288 50.5503 60.8912 50.3183 59.2208 50.2975C59.0752 51.2399 59.6576 53.2511 59.6576 53.2511L59.7264 54.7231H63.8047C63.7903 53.0543 63.6303 51.3791 63.2207 49.9551Z" fill="#000E41"/>
<path d="M59.728 54.72L59.7744 55.4208L63.7632 55.4656C63.7993 55.2188 63.8138 54.9693 63.8064 54.72H59.728Z" fill="#006CB0"/>
<path d="M58.8176 71.0399L57.7216 71.0095C57.416 71.3295 56.9104 71.7279 56.8032 72.1551H59.072C59.0339 71.7743 58.9484 71.3996 58.8176 71.0399Z" fill="white"/>
<path d="M56.8 72.1599C56.7904 72.2015 56.7792 72.2415 56.7712 72.2831C56.7681 72.2983 56.7684 72.3141 56.7722 72.3292C56.7759 72.3442 56.7829 72.3583 56.7926 72.3704C56.8024 72.3825 56.8148 72.3922 56.8287 72.399C56.8427 72.4058 56.858 72.4094 56.8736 72.4095H58.9776C58.9919 72.4096 59.0061 72.4066 59.0193 72.4009C59.0325 72.3952 59.0443 72.3868 59.0541 72.3763C59.0639 72.3658 59.0713 72.3533 59.0761 72.3398C59.0808 72.3262 59.0827 72.3118 59.0816 72.2975C59.0816 72.2511 59.0816 72.2063 59.0688 72.1599H56.8Z" fill="#5568AC"/>
<path d="M59.7296 53.2512C60.287 52.7452 60.8113 52.2038 61.2992 51.6304C59.6288 51.6512 57.8496 51.2272 56.2576 50.6304C55.8865 51.9638 55.676 53.3367 55.6304 54.72H59.6624L59.7296 53.2512Z" fill="#5568AC"/>
<path d="M55.6304 54.72C55.6032 54.9678 55.6032 55.2178 55.6304 55.4656H59.6592V54.72H55.6304Z" fill="#0081C9"/>
<path d="M62.7904 46.3487C62.7984 44.3935 63.0032 42.8047 63.0816 40.8495C63.0912 40.6335 63.024 40.3887 62.8368 40.2943C60.04 38.8655 57.9744 40.0239 57.52 40.3535C57.4057 40.4379 57.3207 40.5559 57.2768 40.6911C57.2329 40.8262 57.2324 40.9716 57.2752 41.1071C57.7824 42.7295 57.7408 44.2319 57.4704 45.9071C57.2576 47.2191 55.8464 48.7599 56.2016 50.4527C58.4528 51.4607 61.1504 51.3615 63.6192 50.8911C64.2736 49.7183 62.7872 47.4175 62.7904 46.3487Z" fill="#FE7134" fill-opacity="0.1"/>
<path d="M59.48 37.1648C59.5831 37.9782 59.6296 38.7978 59.6192 39.6176C59.6163 39.6937 59.629 39.7695 59.6565 39.8405C59.684 39.9115 59.7258 39.9761 59.7792 40.0304C59.8969 40.1458 60.0423 40.2289 60.2015 40.2718C60.3607 40.3147 60.5282 40.3159 60.688 40.2752C60.848 40.2304 60.9344 40.0128 60.904 39.784C60.8368 39.2576 60.7904 38.7568 60.76 38.2112C60.4616 37.7297 60.0112 37.3615 59.48 37.1648Z" fill="#FFC9B9"/>
<path d="M60.7568 38.2112C60.4584 37.7297 60.008 37.3615 59.4767 37.1648C59.5039 37.3776 59.5263 37.592 59.5455 37.8048C59.8751 38.4608 60.3456 39.1136 60.8544 39.4048C60.8144 39.0192 60.7808 38.6288 60.7568 38.2112Z" fill="#FFAB90"/>
<path d="M62.7312 50.6112C60.7959 51.1689 58.7325 51.0887 56.8464 50.3824C56.7856 50.3584 56.7536 50.4576 56.816 50.48C57.5504 50.7549 58.3164 50.9366 59.096 51.0208C59.88 51.1072 60.6716 51.0959 61.4528 50.9872C61.8925 50.9262 62.3272 50.8337 62.7536 50.7104C62.816 50.6928 62.7936 50.592 62.7312 50.6112Z" fill="#A86114"/>
<path d="M61.6608 35.6462C61.9456 36.9086 61.6176 38.379 61.2848 38.4302C60.1808 38.6014 59.4448 37.5694 59.4384 37.5566C59.3634 37.616 59.2758 37.6576 59.1824 37.6782C59.0633 37.6762 58.9493 37.63 58.8624 37.5486C58.7264 37.4238 58.5664 37.2142 58.6336 37.0158C58.6551 36.9564 58.6913 36.9034 58.7387 36.8616C58.786 36.8198 58.8432 36.7905 58.9048 36.7765C58.9664 36.7625 59.0305 36.7642 59.0913 36.7814C59.1521 36.7986 59.2076 36.8308 59.2528 36.875C59.5888 36.2222 59.2976 35.883 59.2848 35.4094C59.8468 34.985 60.5464 34.7843 61.248 34.8462C61.3664 34.8558 61.6336 35.5294 61.6608 35.6462Z" fill="#FFC9B9"/>
<path d="M60.3824 36.2126C60.3746 36.2002 60.3636 36.1902 60.3504 36.1838C60.3387 36.1753 60.3248 36.1703 60.3104 36.1694C60.2956 36.1662 60.2804 36.1662 60.2656 36.1694L60.2384 36.1806C60.2209 36.1896 60.2065 36.2035 60.1968 36.2206L60.184 36.2462C60.18 36.2657 60.18 36.2859 60.184 36.3054V36.3166C60.1867 36.3314 60.1934 36.3452 60.2032 36.3566C60.2114 36.369 60.2224 36.3794 60.2352 36.387C60.247 36.3951 60.2609 36.3995 60.2752 36.3998C60.2898 36.4046 60.3055 36.4046 60.32 36.3998L60.3488 36.3886C60.3655 36.3791 60.3793 36.3653 60.3888 36.3486L60.4016 36.323C60.4064 36.3036 60.4064 36.2832 60.4016 36.2638V36.2526C60.3989 36.2378 60.3922 36.224 60.3824 36.2126Z" fill="#3B1411"/>
<path d="M61.4608 36.0224C61.4531 36.01 61.4427 35.9996 61.4304 35.992C61.4179 35.9839 61.4035 35.9795 61.3887 35.9792C61.3747 35.9744 61.3596 35.9744 61.3455 35.9792L61.3167 35.9904C61.2996 35.9998 61.2852 36.0136 61.2751 36.0304L61.2639 36.056C61.2584 36.0753 61.2584 36.0958 61.2639 36.1151V36.1263C61.2667 36.1411 61.2733 36.155 61.2831 36.1663C61.2907 36.1787 61.3012 36.1891 61.3135 36.1967C61.3399 36.2094 61.3694 36.2139 61.3983 36.2095L61.4272 36.1983C61.4443 36.1889 61.4587 36.1751 61.4688 36.1583L61.48 36.1327C61.4855 36.1134 61.4855 36.0929 61.48 36.0736V36.0624C61.4772 36.0475 61.4706 36.0337 61.4608 36.0224Z" fill="#3B1411"/>
<path d="M59.1808 37.3182C59.1726 37.3234 59.1635 37.3269 59.154 37.3286C59.1444 37.3302 59.1347 37.3299 59.1253 37.3276C59.1159 37.3254 59.107 37.3213 59.0992 37.3155C59.0914 37.3098 59.0849 37.3025 59.08 37.2942C59.0753 37.2853 59.0729 37.2754 59.0729 37.2654C59.0729 37.2554 59.0753 37.2455 59.08 37.2366C59.0836 37.2277 59.0892 37.2197 59.0964 37.2133C59.1037 37.2069 59.1123 37.2023 59.1216 37.1998C59.1283 37.1982 59.1346 37.1951 59.14 37.1906C59.1453 37.1862 59.1496 37.1806 59.1524 37.1742C59.1551 37.1678 59.1564 37.1609 59.1561 37.154C59.1557 37.147 59.1538 37.1403 59.1504 37.1342C59.1248 37.0738 59.0786 37.0245 59.0199 36.9951C58.9612 36.9658 58.894 36.9584 58.8304 36.9742C58.8015 36.9838 58.7756 37.0008 58.7553 37.0235C58.7351 37.0463 58.7212 37.074 58.7152 37.1038C58.7097 37.1322 58.7142 37.1616 58.728 37.187C58.736 37.2014 58.7664 37.2382 58.784 37.211C58.8016 37.1838 58.784 37.179 58.784 37.163C58.7842 37.145 58.7874 37.1271 58.7936 37.1102C58.8004 37.0943 58.8115 37.0805 58.8256 37.0704C58.8397 37.0602 58.8563 37.0541 58.8736 37.0526C58.9056 37.0511 58.9374 37.0583 58.9656 37.0735C58.9938 37.0888 59.0173 37.1114 59.0336 37.139C59.0058 37.16 58.9864 37.1902 58.9788 37.2242C58.9711 37.2582 58.9758 37.2938 58.992 37.3246C59.0129 37.3587 59.0459 37.3837 59.0844 37.3947C59.123 37.4056 59.1642 37.4018 59.2 37.3838C59.2624 37.3598 59.224 37.291 59.1808 37.3182Z" fill="#FFAB90"/>
<path d="M60.5408 35.5487C60.3087 35.5707 60.0872 35.6566 59.9008 35.7967C59.848 35.8367 59.9168 35.9135 59.9696 35.8735C60.1418 35.7455 60.3462 35.6679 60.56 35.6495C60.5666 35.6481 60.5729 35.6454 60.5785 35.6417C60.5841 35.6379 60.5889 35.633 60.5926 35.6274C60.5963 35.6217 60.5989 35.6154 60.6001 35.6087C60.6014 35.6021 60.6014 35.5953 60.6 35.5887C60.5986 35.582 60.596 35.5758 60.5922 35.5702C60.5884 35.5646 60.5835 35.5598 60.5779 35.5561C60.5722 35.5524 60.5659 35.5498 60.5593 35.5485C60.5526 35.5473 60.5458 35.5473 60.5392 35.5487H60.5408Z" fill="#6C301E"/>
<path d="M61.5824 35.5743C61.5269 35.5221 61.4598 35.4839 61.3867 35.4627C61.3135 35.4416 61.2363 35.4381 61.1616 35.4527C61.1482 35.4553 61.1364 35.463 61.1288 35.4743C61.1211 35.4855 61.1182 35.4993 61.1208 35.5127C61.1233 35.5261 61.1311 35.5379 61.1423 35.5455C61.1536 35.5532 61.1674 35.5561 61.1808 35.5535H61.2288H61.2656H61.3136H61.3408H61.3536L61.3968 35.5695H61.4176H61.4288L61.4672 35.5951L61.4864 35.6095V35.6175C61.4964 35.6267 61.5095 35.6318 61.5232 35.6318C61.5368 35.6318 61.5499 35.6267 61.56 35.6175C61.5669 35.6126 61.5726 35.6062 61.5765 35.5986C61.5804 35.5911 61.5824 35.5828 61.5824 35.5743Z" fill="#6C301E"/>
<path d="M61.2112 37.7904L60.8752 37.8384C60.862 37.8415 60.8505 37.8495 60.843 37.8608C60.8356 37.8721 60.8328 37.8859 60.8352 37.8992C60.8365 37.9058 60.8392 37.9121 60.8429 37.9177C60.8467 37.9233 60.8516 37.9281 60.8572 37.9319C60.8629 37.9356 60.8692 37.9381 60.8759 37.9394C60.8825 37.9407 60.8894 37.9406 60.896 37.9392L61.232 37.8912C61.2452 37.8881 61.2567 37.8801 61.2641 37.8688C61.2716 37.8575 61.2744 37.8437 61.272 37.8304C61.2689 37.8172 61.2609 37.8057 61.2496 37.7982C61.2383 37.7908 61.2245 37.788 61.2112 37.7904Z" fill="#FFAB90"/>
<path d="M61.3552 36.8094C61.3136 36.7546 61.2584 36.7116 61.1952 36.6846C61.1426 36.6653 61.0995 36.6263 61.0752 36.5758C61.0687 36.5643 61.058 36.5556 61.0454 36.5518C61.0327 36.5479 61.019 36.5491 61.0072 36.5551C60.9954 36.5611 60.9864 36.5715 60.9821 36.584C60.9777 36.5965 60.9784 36.6102 60.984 36.6222C61.0256 36.7374 61.144 36.7566 61.2336 36.8286C61.252 36.8402 61.2654 36.8584 61.2711 36.8794C61.2767 36.9005 61.2742 36.9229 61.264 36.9422C61.226 36.9884 61.1825 37.0298 61.1344 37.0654C61.1253 37.0752 61.1202 37.0881 61.1202 37.1014C61.1202 37.1148 61.1253 37.1276 61.1344 37.1374C61.139 37.1423 61.1446 37.1462 61.1508 37.1489C61.157 37.1515 61.1636 37.1529 61.1704 37.1529C61.1771 37.1529 61.1838 37.1515 61.19 37.1489C61.1962 37.1462 61.2017 37.1423 61.2064 37.1374C61.2604 37.0953 61.3097 37.0476 61.3536 36.995C61.3713 36.9674 61.3808 36.9353 61.3811 36.9024C61.3814 36.8696 61.3724 36.8374 61.3552 36.8094Z" fill="#FFAB90"/>
<path d="M61.1984 37.5023C61.1922 37.4903 61.1816 37.481 61.1688 37.4766C61.156 37.4721 61.1419 37.4727 61.1296 37.4783C60.9806 37.5347 60.8174 37.542 60.664 37.4991C60.6512 37.4951 60.6374 37.4961 60.6255 37.5021C60.6135 37.5081 60.6043 37.5185 60.6 37.5311C60.5957 37.5439 60.5965 37.5578 60.6022 37.57C60.6078 37.5821 60.6179 37.5917 60.6304 37.5967C60.8104 37.6461 61.0014 37.6371 61.176 37.5711C61.1878 37.5647 61.1966 37.554 61.2008 37.5412C61.205 37.5284 61.2041 37.5145 61.1984 37.5023Z" fill="#3B1411"/>
<path d="M58.9136 47.7071C58.8634 48.0151 58.7528 48.3101 58.588 48.5751C58.4232 48.8402 58.2076 49.0699 57.9536 49.2511C57.9008 49.2895 57.9696 49.3647 58.024 49.3263C58.2878 49.136 58.5114 48.8954 58.6819 48.6183C58.8524 48.3412 58.9665 48.0332 59.0176 47.7119C59.0272 47.6463 58.9248 47.6431 58.9136 47.7071Z" fill="#A86114"/>
<path d="M62.1104 47.563L58.9568 47.6542C58.8912 47.6542 58.8864 47.7598 58.9568 47.7566L62.1088 47.6654C62.1712 47.6638 62.176 47.5614 62.1104 47.563Z" fill="#A86114"/>
<path d="M62.7472 48.8622C62.547 48.7247 62.3863 48.5371 62.281 48.3181C62.1757 48.0992 62.1296 47.8565 62.1472 47.6142C62.1472 47.5486 62.0496 47.5438 62.0432 47.6142C62.0253 47.8746 62.0757 48.135 62.1894 48.3699C62.303 48.6048 62.476 48.8059 62.6912 48.9534C62.7456 48.9854 62.8016 48.899 62.7472 48.8622Z" fill="#A86114"/>
<path d="M58.7952 48.16L55.6112 45.7488C55.3737 45.893 55.1806 46.1001 55.0532 46.3471C54.9259 46.5942 54.8693 46.8716 54.8896 47.1488L58.3344 48.9168C58.5231 48.6876 58.6782 48.4328 58.7952 48.16Z" fill="#FFC9B9"/>
<path d="M55.6384 45.7072C55.3439 45.8498 55.1011 46.0803 54.9434 46.367C54.7857 46.6536 54.7211 46.9822 54.7584 47.3072C54.7664 47.3728 54.8672 47.3488 54.8592 47.2848C54.8264 46.9821 54.8884 46.6768 55.0365 46.4108C55.1847 46.1448 55.4118 45.9314 55.6864 45.8C55.7456 45.7696 55.6976 45.68 55.6384 45.7072Z" fill="#A86114"/>
<path d="M56.16 45.6944C56.0254 45.5373 55.8454 45.4258 55.6449 45.375C55.4444 45.3243 55.233 45.337 55.0399 45.4112C54.9791 45.4352 55.0271 45.5264 55.0879 45.5024C55.2616 45.4368 55.4513 45.4266 55.631 45.4733C55.8107 45.5201 55.9714 45.6213 56.0912 45.7632C56.1312 45.8144 56.208 45.7456 56.16 45.6944Z" fill="#A86114"/>
<path d="M57.6624 42.4895C57.6624 42.4239 57.5552 42.4191 57.56 42.4895C57.6288 43.471 57.6031 44.4569 57.4832 45.4335C57.4832 45.4991 57.5776 45.5039 57.5856 45.4335C57.7055 44.4569 57.7312 43.471 57.6624 42.4895Z" fill="#A86114"/>
<path d="M61.184 39.6798C61.1632 39.6174 61.0624 39.6398 61.0832 39.7038C61.1648 39.9454 61.04 40.1838 60.8976 40.3662C60.8344 40.4591 60.7603 40.5439 60.6768 40.619C60.6353 40.6545 60.5825 40.674 60.528 40.674C60.4734 40.674 60.4206 40.6545 60.3792 40.619C60.288 40.5566 60.208 40.4798 60.12 40.4142C60.0272 40.346 59.9311 40.2824 59.832 40.2238C59.6347 40.1102 59.4261 40.0174 59.2095 39.947C58.9871 39.875 58.6927 39.787 58.6559 39.515C58.6463 39.4494 58.5471 39.4718 58.5551 39.5374C58.5887 39.7838 58.8159 39.9198 59.0351 39.995C59.2894 40.0758 59.5358 40.1797 59.7712 40.3054C59.8819 40.3712 59.9887 40.4433 60.0912 40.5214C60.1841 40.6048 60.2842 40.6797 60.3904 40.7454C60.6288 40.8638 60.7984 40.6606 60.9344 40.491C61.12 40.2526 61.28 39.9694 61.184 39.6798Z" fill="#A86114"/>
<path d="M59.52 40.9392C59.4976 40.8784 59.3968 40.8992 59.4192 40.9616C59.6422 41.5985 59.7033 42.2809 59.5968 42.9472C59.5872 43.0112 59.6896 43.016 59.7008 42.9472C59.8073 42.2732 59.7452 41.5834 59.52 40.9392Z" fill="white"/>
<path d="M61.3216 40.8C61.3024 40.7376 61.2016 40.76 61.2208 40.8224C61.4537 41.5589 61.4934 42.343 61.336 43.0992C61.3216 43.1632 61.4192 43.1952 61.4336 43.1296C61.5961 42.3563 61.5575 41.5542 61.3216 40.8Z" fill="white"/>
<path d="M57.7216 71.0064L57.0928 67.5888C56.88 66.4288 56.7856 64.0192 56.8128 62.84L56.8416 61.5952L55.8224 55.4688H59.4576L58.4768 61.7808L58.6064 62.4112C58.8944 63.7984 59.0096 66.448 58.9504 67.864L58.8176 71.04L57.7216 71.0064Z" fill="#FFC9B9"/>
<path d="M63.7632 55.4687L61.632 71.0064H60.536L60.3504 66.8064C60.296 65.5999 60.4736 63.1599 60.872 62.0207L59.9296 55.4255L63.7632 55.4687Z" fill="#FFC9B9"/>
<path d="M59.4576 55.4688H55.8224L55.8784 55.7984H59.4064L59.4576 55.4688Z" fill="#FFAB90"/>
<path d="M58.4768 61.7807L59.4064 55.7983H55.8784L56.8384 61.5951L56.8096 62.8399C56.7824 64.0191 56.8768 66.4287 57.0896 67.5887L57.7184 71.0063L58.8144 71.0367L58.9472 67.8639C59.0064 66.4479 58.8912 63.7983 58.6032 62.4111L58.4768 61.7807Z" fill="#FFC9B9"/>
<path d="M63.7632 55.4687L59.9296 55.4255L59.984 55.7983H63.7184L63.7632 55.4687Z" fill="#FFAB90"/>
<path d="M59.9839 55.7983L60.872 62.0208C60.4736 63.16 60.296 65.6 60.3504 66.8064L60.536 71.0064H61.632L63.712 55.7983H59.9839Z" fill="#FFC9B9"/>
<path d="M66.576 32.9679V32.9599L67.2016 31.7903L66.5312 31.2815L65.8672 31.5359L65.7488 32.5119C65.7085 32.6431 65.687 32.7794 65.6848 32.9167L66.576 32.9679Z" fill="#FFC9B9"/>
<path d="M66.456 19.6479L68.7648 24.3247L73.9264 25.0751L70.1904 28.7151L71.072 33.8559L66.456 31.4287L61.84 33.8559L62.7216 28.7151L58.9872 25.0751L64.1472 24.3247L66.456 19.6479Z" fill="#9ACCFE"/>
<path d="M61.0496 24.7759L58.9872 25.0751L62.72 28.7151L61.84 33.8559L66.456 31.4287L71.072 33.8559L70.3248 29.4943C66.7328 29.3407 63.1648 27.6623 61.0496 24.7759Z" fill="#9ACCFE"/>
<path d="M65.872 32.8319C65.9487 32.7679 66.0093 32.6868 66.0491 32.5951C66.0888 32.5034 66.1065 32.4037 66.1008 32.3039C66.103 32.2053 66.0809 32.1076 66.0366 32.0194C65.9922 31.9313 65.9269 31.8554 65.8464 31.7983C65.8422 31.6464 65.7917 31.4994 65.7016 31.377C65.6115 31.2546 65.4862 31.1627 65.3424 31.1135C65.524 31.6992 65.6389 32.3036 65.6848 32.9151L65.872 32.8319Z" fill="#FFC9B9"/>
<path d="M65.6688 31.283C65.76 31.331 65.792 31.4686 65.8112 31.5886C65.8108 31.6539 65.8279 31.718 65.8609 31.7743C65.8938 31.8306 65.9413 31.877 65.9984 31.9086C66.0936 32.0033 66.1506 32.1298 66.1584 32.2638C66.1611 32.4234 66.1373 32.5824 66.088 32.7342C66.0736 32.7838 66.0224 32.7454 66.0352 32.6974C66.0834 32.5532 66.1045 32.4013 66.0976 32.2494C66.0911 32.1862 66.0714 32.125 66.0397 32.0698C66.008 32.0147 65.965 31.9669 65.9136 31.9294C65.8706 31.8985 65.8356 31.858 65.8112 31.811C65.7876 31.7603 65.7715 31.7064 65.7632 31.651C65.744 31.5406 65.7312 31.395 65.6416 31.3486C65.6 31.3374 65.6336 31.2654 65.6688 31.283Z" fill="#FFAB90"/>
<path d="M60.7536 34.928C60.6436 35.0426 60.5168 35.1397 60.3776 35.216C60.2418 35.2889 60.1306 35.4002 60.0576 35.536C59.9984 35.6864 60.0576 35.848 60.0464 36.0048C60.0383 36.1139 60.0053 36.2197 59.9498 36.3141C59.8943 36.4084 59.8179 36.4887 59.7264 36.5488C59.5129 36.6897 59.258 36.754 59.0032 36.7312C58.976 36.2384 58.9552 35.7184 59.248 35.2912C59.4685 34.9906 59.7816 34.7708 60.1392 34.6656C60.4464 34.56 61.12 34.4752 60.7536 34.928Z" fill="#6C301E"/>
<path d="M24.584 36.3198C24.424 36.523 24.264 36.7166 24.1328 36.8862C23.2192 37.0798 22.9344 37.3662 22.552 38.2174L23.2192 41.4702C24.5456 41.0094 25.5568 39.7006 26.44 38.6094L26.6624 38.3326C26.5921 38.3279 26.5221 38.3194 26.4528 38.307C25.974 38.2098 25.5372 37.9664 25.2025 37.6105C24.8678 37.2546 24.6517 36.8037 24.584 36.3198Z" fill="#5568AC"/>
<path d="M27.5936 35.2575C27.4528 34.8191 27.1328 34.3535 26.6736 34.3647C26.4225 34.3934 26.1885 34.5062 26.0096 34.6847C25.5728 35.0495 25.0496 35.7263 24.584 36.3215C24.6517 36.8054 24.8677 37.2563 25.2024 37.6122C25.5372 37.9681 25.974 38.2115 26.4528 38.3087C26.5221 38.3211 26.5921 38.3296 26.6624 38.3343C27.4352 37.3535 27.9856 36.4799 27.5936 35.2575Z" fill="#FFAB91"/>
<path d="M18.5888 38.4576C18.586 38.3252 18.5562 38.1947 18.5011 38.0742C18.4461 37.9537 18.367 37.8457 18.2688 37.7568C18.0747 37.578 17.8428 37.4451 17.5904 37.368C17.0446 37.1957 16.4614 37.1802 15.9072 37.3232C14.9313 36.6595 13.9919 35.9438 13.0928 35.1792C12.5376 35.5888 11.9584 36.4592 11.5232 36.9968C13.2272 39.0848 15.4528 40.4656 17.9824 41.3952L18.5888 38.4576Z" fill="#FFAB91"/>
<path d="M18.5888 38.4575C18.586 38.325 18.5561 38.1945 18.5011 38.074C18.4461 37.9535 18.367 37.8455 18.2688 37.7567C18.0747 37.5778 17.8428 37.445 17.5904 37.3679C17.0446 37.1956 16.4614 37.1801 15.9072 37.3231C15.6192 37.1199 15.328 36.9135 15.04 36.7039C14.4416 37.4687 14.1664 38.3887 14.056 39.3551C15.2695 40.2102 16.5936 40.8965 17.992 41.3951L18.5888 38.4575Z" fill="#5568AC"/>
<path d="M17.5072 41.2111C16.3872 40.3327 15.3008 39.3903 14.2096 38.4751C14.1373 38.7647 14.0839 39.0586 14.0496 39.3551C15.1224 40.1119 16.2835 40.7352 17.5072 41.2111Z" fill="#000E41"/>
<path d="M17.36 50.064C20.864 50.4832 20.8128 52.6656 20.8128 52.6656L19.3968 61.76L18.3872 69.688H16.7152C16 59.2704 17.36 50.064 17.36 50.064Z" fill="#FFC9B9"/>
<path d="M19.8704 52.5406C19.8704 52.5406 18.312 51.4526 18.1296 50.5022L23.9792 50.7278C23.9792 50.7278 24.9584 63.0142 24.9392 69.691H23.2752L19.8704 52.5406Z" fill="#FFC9B9"/>
<path d="M24.8 69.6912C24.8 69.9392 24.8 70.1808 24.8 70.4111H23.4784L23.4048 69.6912H24.8Z" fill="#FFAB91"/>
<path d="M18.248 69.6912C18.248 69.9392 18.248 70.1808 18.248 70.4111H16.9264L16.8528 69.6912H18.248Z" fill="#FFAB91"/>
<path d="M18.6656 51.4576C18.3568 51.12 18.0848 50.7344 18.016 50.368L23.9264 50.064C23.9264 50.064 23.9744 50.7552 23.9968 51.0432C22.2591 51.5008 20.4531 51.6412 18.6656 51.4576Z" fill="#A86114"/>
<path d="M23.3936 70.304L24.9408 70.2576C25.3788 70.7613 25.6845 71.3662 25.8304 72.0176H23.04C23.0931 71.4349 23.2117 70.8601 23.3936 70.304Z" fill="#5568AC"/>
<path d="M25.8304 72.019C25.8448 72.0814 25.8592 72.1438 25.8704 72.2078C25.8752 72.2302 25.8753 72.2533 25.8704 72.2756C25.8656 72.298 25.8561 72.319 25.8424 72.3374C25.8288 72.3557 25.8114 72.3709 25.7913 72.382C25.7713 72.393 25.7492 72.3997 25.7264 72.4014H23.1664C23.1242 72.3982 23.085 72.3783 23.0574 72.3462C23.0298 72.3141 23.0161 72.2724 23.0192 72.2302C23.0192 72.1598 23.0304 72.0894 23.0368 72.019H25.8304Z" fill="#A86114"/>
<path d="M18.3328 70.304L16.784 70.2576C16.3536 70.7456 13.7568 71.3616 13.6064 72.0176H18.6896C18.6362 71.4347 18.5165 70.8597 18.3328 70.304Z" fill="#5568AC"/>
<path d="M13.6 72.019C13.5856 72.0814 13.5696 72.1438 13.5584 72.2078C13.5535 72.2302 13.5535 72.2533 13.5583 72.2756C13.5631 72.298 13.5727 72.319 13.5863 72.3374C13.6 72.3557 13.6174 72.3709 13.6374 72.382C13.6574 72.393 13.6796 72.3997 13.7024 72.4014H18.56C18.6021 72.3982 18.6413 72.3783 18.6689 72.3462C18.6965 72.3141 18.7102 72.2724 18.7072 72.2302C18.7072 72.1598 18.696 72.0894 18.6896 72.019H13.6Z" fill="#A86114"/>
<path d="M23.5696 62.4304C23.7616 62.072 23.9616 61.7216 24.12 61.3424C24.2741 60.9564 24.405 60.5616 24.512 60.16C24.5264 60.1104 24.5904 60.1312 24.5824 60.1808C24.5049 60.595 24.3826 60.9995 24.2176 61.3872C24.0691 61.7757 23.874 62.1448 23.6368 62.4864C23.6064 62.5296 23.5456 62.4752 23.5696 62.4304Z" fill="#A86114"/>
<path d="M17.504 38.8799C17.5175 38.6454 17.5969 38.4196 17.733 38.2283C17.8692 38.0369 18.0565 37.8879 18.2736 37.7983C19.2308 37.4175 20.2624 37.2604 21.2896 37.3391C22.228 37.4119 23.1539 37.6 24.0464 37.8991C24.3306 37.9912 24.5724 38.1821 24.728 38.4371C24.8836 38.6922 24.9426 38.9946 24.8944 39.2895C24.3369 42.7888 24.1226 46.3341 24.2544 49.8751C24.264 50.1039 24.2848 50.4335 24.0656 50.5023C22.0544 51.1295 19.1856 51.2335 17.272 50.7231C16.792 50.5967 17.1712 50.1583 17.1696 49.6671C17.16 46.1503 17.3232 42.3599 17.504 38.8799Z" fill="#5568AC"/>
<path d="M21.92 35.1055C21.8589 35.8893 21.8772 36.6773 21.9744 37.4575C21.9844 37.5347 21.9731 37.6132 21.9418 37.6845C21.9105 37.7558 21.8604 37.8173 21.7968 37.8623C21.4333 38.1155 20.9876 38.2224 20.5488 38.1615C20.4431 38.1441 20.3478 38.0876 20.2819 38.003C20.2161 37.9185 20.1845 37.8122 20.1936 37.7055C20.2346 37.2026 20.2491 36.6979 20.2368 36.1935C20.6757 35.6698 21.2623 35.2906 21.92 35.1055Z" fill="#FFAB91"/>
<path d="M20.2432 36.1935C20.6821 35.6698 21.2687 35.2906 21.9264 35.1055C21.9008 35.4404 21.8896 35.7753 21.8928 36.1103C21.5936 36.9263 21.0544 37.7103 20.3264 38.0447C20.2816 38.001 20.247 37.9479 20.2252 37.8892C20.2033 37.8306 20.1947 37.7678 20.2 37.7055C20.241 37.2026 20.2555 36.6979 20.2432 36.1935Z" fill="#FF8A65"/>
<path d="M22.08 34.9119C22.1712 34.5711 22.2624 34.2319 22.352 33.8911C22.4128 33.7166 22.433 33.5306 22.4112 33.3471C22.3981 33.2558 22.3553 33.1713 22.2893 33.1068C22.2234 33.0423 22.138 33.0014 22.0464 32.9903C21.8004 32.6359 21.4634 32.3543 21.0709 32.1753C20.6784 31.9962 20.2449 31.9262 19.816 31.9727C19.5155 31.9943 19.2322 32.1212 19.016 32.3311C18.784 32.5855 18.7264 32.9535 18.728 33.2911C18.728 33.7023 18.9152 33.7471 19.1968 34.0447C19.4784 34.3423 19.7648 34.8447 20.1568 34.9023C20.793 35.0112 21.4428 35.0144 22.08 34.9119Z" fill="#3E2410"/>
<path d="M21.984 34.9184L22.2288 33.9872C22.2838 33.8286 22.3024 33.6596 22.2832 33.4928C22.2703 33.4107 22.2309 33.3351 22.1712 33.2774C22.1114 33.2196 22.0345 33.1829 21.952 33.1728C21.7311 32.8497 21.4266 32.5928 21.0708 32.4296C20.7151 32.2664 20.3217 32.2031 19.9328 32.2464C19.6608 32.2632 19.4037 32.3767 19.208 32.5664C19.0156 32.8188 18.9228 33.1332 18.9472 33.4496C18.9472 33.8224 19.1168 33.864 19.3712 34.136C19.6256 34.408 19.8864 34.8576 20.2352 34.9168C20.814 35.0149 21.4051 35.0155 21.984 34.9184Z" fill="#170D05"/>
<path d="M19.1536 33.8288C19.008 34.9232 19.4576 36.8592 20.0624 36.8816C21.3536 36.928 21.6304 36.1168 21.8464 35.3216C21.8709 35.3437 21.8998 35.3604 21.9312 35.3706C21.9627 35.3808 21.9959 35.3843 22.0288 35.3808C22.1395 35.3532 22.2356 35.2846 22.2976 35.1888C22.3968 35.04 22.4976 34.8096 22.392 34.6416C22.264 34.4368 21.9808 34.3952 21.8608 34.6416C21.8483 34.247 21.7597 33.8586 21.6 33.4976C21.5788 33.4389 21.5449 33.3856 21.5006 33.3416C21.4563 33.2976 21.4028 33.264 21.344 33.2432C20.7404 33.0416 20.0892 33.0321 19.48 33.216C19.4239 33.234 19.373 33.2652 19.3315 33.307C19.2901 33.3488 19.2592 33.3999 19.2416 33.456C19.2032 33.578 19.1738 33.7026 19.1536 33.8288Z" fill="#FFAB91"/>
<g style="mix-blend-mode:multiply" opacity="0.37">
<path d="M21.28 35.6239C20.6326 35.4481 19.9428 35.5218 19.3472 35.8303C19.5168 36.4175 19.7712 36.8703 20.0608 36.8815C21.2912 36.9247 21.6 36.1903 21.8208 35.4319L21.904 34.5935C21.6928 34.9375 21.488 35.2815 21.28 35.6239Z" fill="#170D05"/>
</g>
<path d="M22.4 34.6416C22.3797 34.6014 22.3508 34.5662 22.3153 34.5385C22.2798 34.5109 22.2386 34.4915 22.1946 34.4817C22.1507 34.4719 22.1051 34.4719 22.0612 34.4819C22.0173 34.4919 21.9762 34.5114 21.9408 34.5392L21.9072 34.5936L21.824 35.432C21.8336 35.3952 21.8448 35.3584 21.8544 35.3216C21.8789 35.3437 21.9078 35.3605 21.9393 35.3707C21.9707 35.3809 22.0039 35.3843 22.0368 35.3808C22.1475 35.3532 22.2436 35.2846 22.3056 35.1888C22.4 35.04 22.4976 34.8096 22.4 34.6416Z" fill="#FFAB91"/>
<path d="M21.8608 34.635C21.8483 34.2405 21.7598 33.852 21.6 33.491C21.5789 33.4323 21.5449 33.379 21.5007 33.335C21.4564 33.291 21.4029 33.2574 21.344 33.2366C20.7404 33.035 20.0892 33.0255 19.48 33.2094C19.424 33.2274 19.3731 33.2586 19.3316 33.3004C19.2901 33.3422 19.2593 33.3933 19.2416 33.4494C19.203 33.5735 19.1735 33.7002 19.1536 33.8286C19.0921 34.5022 19.1583 35.1813 19.3488 35.8302C19.944 35.5221 20.6331 35.4484 21.28 35.6238C21.4864 35.2814 21.6912 34.9374 21.8976 34.5934V34.5726C21.8824 34.5915 21.87 34.6125 21.8608 34.635Z" fill="#FFAB91"/>
<path d="M21.9024 34.5727V34.5935L21.936 34.5391C21.9239 34.5494 21.9127 34.5606 21.9024 34.5727Z" fill="#FFAB91"/>
<path d="M20.32 33.8976C20.496 33.6736 20.9808 33.8272 21.1584 33.9712C21.1904 33.9968 21.2304 34.0304 21.2272 34.0768C21.2263 34.0885 21.2221 34.0998 21.215 34.1091C21.2079 34.1185 21.1983 34.1256 21.1872 34.1296C21.1328 34.144 21.08 34.0992 21.0352 34.0752C20.9747 34.0431 20.9101 34.0194 20.8432 34.0048C20.7612 33.9872 20.677 33.9824 20.5936 33.9904C20.5154 34.0122 20.4348 34.0241 20.3536 34.0256C20.2944 34.016 20.2944 33.936 20.32 33.8976Z" fill="#170D05"/>
<path d="M20.5824 34.2878C20.5948 34.2651 20.6154 34.248 20.64 34.2398C20.6529 34.2334 20.6671 34.2301 20.6816 34.2302H20.7104C20.7287 34.2344 20.7454 34.2439 20.7584 34.2574L20.7744 34.2782C20.7838 34.2948 20.7887 34.3136 20.7888 34.3326V34.3454C20.7927 34.3585 20.7927 34.3724 20.7888 34.3854C20.7842 34.3988 20.7765 34.4109 20.7664 34.4206C20.757 34.4313 20.7448 34.4391 20.7312 34.443C20.7183 34.4496 20.704 34.4529 20.6896 34.4526H20.6608C20.6432 34.4477 20.6272 34.4384 20.6144 34.4254L20.5968 34.403C20.5872 34.3871 20.5822 34.3688 20.5824 34.3502V34.3374C20.5779 34.3212 20.5779 34.3041 20.5824 34.2878Z" fill="#3B1411"/>
<path d="M19.4064 34.3551C19.4101 34.3413 19.4179 34.3291 19.4288 34.3199C19.4379 34.31 19.4495 34.3028 19.4624 34.2991C19.4747 34.2912 19.4894 34.2878 19.504 34.2895H19.5328C19.5507 34.2947 19.5671 34.304 19.5808 34.3167L19.5968 34.3391C19.6063 34.3556 19.6113 34.3744 19.6112 34.3935V34.4047C19.6128 34.4192 19.6094 34.4339 19.6016 34.4463C19.5978 34.4596 19.5906 34.4717 19.5808 34.4815C19.5705 34.491 19.5585 34.4986 19.5456 34.5039C19.5328 34.5105 19.5183 34.5133 19.504 34.5119H19.4752C19.4576 34.507 19.4416 34.4976 19.4288 34.4847L19.4112 34.4623C19.4016 34.4458 19.3966 34.427 19.3968 34.4079V34.3999C19.3943 34.3843 19.3977 34.3683 19.4064 34.3551Z" fill="#3B1411"/>
<path d="M19.2 34.0512C19.2241 34.0133 19.2559 33.9808 19.2934 33.956C19.3309 33.9312 19.3732 33.9146 19.4176 33.9072C19.5009 33.8848 19.5886 33.8848 19.672 33.9072C19.6906 33.9124 19.7067 33.9242 19.7173 33.9404C19.7278 33.9566 19.7322 33.976 19.7296 33.9952C19.72 34.0608 19.664 34.0624 19.6128 34.0624C19.5437 34.0623 19.4753 34.0753 19.4112 34.1008C19.368 34.1184 19.1408 34.2336 19.1856 34.0896C19.1891 34.0764 19.1939 34.0635 19.2 34.0512Z" fill="#170D05"/>
<path d="M21.9488 35.0398C21.9576 35.0431 21.967 35.0445 21.9764 35.0439C21.9857 35.0434 21.9949 35.041 22.0033 35.0368C22.0117 35.0326 22.0191 35.0267 22.0252 35.0195C22.0312 35.0124 22.0357 35.004 22.0384 34.995C22.0393 34.9856 22.038 34.9761 22.0347 34.9672C22.0314 34.9584 22.0261 34.9504 22.0192 34.9438C22.0137 34.9363 22.0064 34.9303 21.9981 34.9261C21.9897 34.9219 21.9805 34.9198 21.9712 34.9198C21.9647 34.9196 21.9584 34.9179 21.9527 34.9148C21.9469 34.9118 21.942 34.9075 21.9381 34.9023C21.9343 34.897 21.9317 34.891 21.9305 34.8846C21.9293 34.8783 21.9295 34.8717 21.9312 34.8654C21.9411 34.8045 21.9722 34.7491 22.019 34.7089C22.0659 34.6688 22.1255 34.6466 22.1872 34.6462C22.2164 34.6476 22.2447 34.657 22.269 34.6734C22.2932 34.6898 22.3126 34.7125 22.3248 34.739C22.3343 34.7654 22.3343 34.7943 22.3248 34.8206C22.3248 34.835 22.3008 34.8766 22.2784 34.8558C22.256 34.835 22.2704 34.8254 22.2656 34.811C22.2612 34.7946 22.2542 34.7789 22.2448 34.7646C22.2352 34.7511 22.2221 34.7405 22.2068 34.734C22.1916 34.7275 22.1748 34.7254 22.1584 34.7278C22.1269 34.7328 22.0974 34.7465 22.0734 34.7675C22.0493 34.7884 22.0317 34.8157 22.0224 34.8462C22.0524 34.8593 22.0769 34.8824 22.0915 34.9117C22.1061 34.9409 22.11 34.9744 22.1024 35.0062C22.0916 35.0432 22.0669 35.0745 22.0334 35.0936C22 35.1127 21.9605 35.1181 21.9232 35.1086C21.8832 35.1022 21.904 35.0302 21.9488 35.0398Z" fill="#FF8A65"/>
<path d="M18.7312 50.067C19.5674 50.1435 20.4092 50.0018 21.1744 49.6558C21.8789 49.3336 22.4944 48.8449 22.968 48.2318C23.2302 47.895 23.4455 47.5242 23.608 47.1294C23.632 47.0734 23.7184 47.1182 23.6944 47.1758C23.3926 47.8942 22.9256 48.5312 22.3312 49.035C21.6986 49.5679 20.9411 49.9312 20.1296 50.091C19.6613 50.1824 19.1823 50.2061 18.7072 50.1614C18.648 50.1566 18.6704 50.0622 18.7312 50.067Z" fill="#000E41"/>
<path d="M20.2752 38.3439C20.6065 38.436 20.9558 38.442 21.2901 38.3614C21.6244 38.2807 21.9326 38.1161 22.1856 37.8831C22.2304 37.8415 22.3024 37.9055 22.256 37.9487C21.9917 38.1947 21.6689 38.3689 21.3182 38.4546C20.9675 38.5403 20.6007 38.5347 20.2528 38.4383C20.1936 38.4223 20.2144 38.3279 20.2752 38.3439Z" fill="#000E41"/>
<path d="M19.6672 34.8239C19.7531 34.7431 19.816 34.641 19.8496 34.5279C19.8592 34.4655 19.9536 34.4879 19.944 34.5487C19.9072 34.7567 19.704 34.8687 19.6352 35.0559C19.6156 35.1087 19.6114 35.1659 19.6231 35.221C19.6349 35.276 19.6621 35.3266 19.7015 35.3667C19.741 35.4069 19.7911 35.4349 19.8459 35.4476C19.9008 35.4603 19.9581 35.4571 20.0112 35.4383C20.0227 35.4367 20.0345 35.4392 20.0443 35.4453C20.0542 35.4515 20.0616 35.4609 20.0652 35.472C20.0689 35.483 20.0685 35.495 20.0642 35.5058C20.0598 35.5166 20.0519 35.5256 20.0416 35.5311C19.9809 35.5509 19.9163 35.5558 19.8533 35.5454C19.7902 35.5349 19.7306 35.5095 19.6795 35.4712C19.6284 35.433 19.5872 35.383 19.5594 35.3254C19.5317 35.2679 19.5181 35.2046 19.52 35.1407C19.5337 35.022 19.5853 34.9109 19.6672 34.8239Z" fill="#FF8A65"/>
<path d="M20.7392 35.8174C20.6471 35.9372 20.5235 36.0289 20.3822 36.0824C20.2409 36.1358 20.0875 36.1487 19.9392 36.1198C19.8752 36.107 19.8432 36.2046 19.9072 36.2174C20.0763 36.2511 20.2515 36.2365 20.4128 36.1754C20.574 36.1143 20.7148 36.0091 20.8192 35.8718C20.8656 35.819 20.7792 35.7646 20.7392 35.8174Z" fill="#3B1411"/>
<path d="M19.328 16.7488L21.6368 21.4256L26.7984 22.176L23.0624 25.8176L23.944 30.9584L19.328 28.5312L14.712 30.9584L15.5936 25.8176L11.8576 22.176L17.0192 21.4256L19.328 16.7488Z" fill="#9ACCFE"/>
<path d="M13.92 21.8767L11.856 22.1759L15.592 25.8175L14.72 30.9567L19.336 28.5311L23.952 30.9567L23.2 26.5951C19.6048 26.4415 16.0368 24.7631 13.92 21.8767Z" fill="#9ACCFE"/>
<path d="M16.0928 28.9232C16.1535 28.9113 16.216 28.9113 16.2768 28.9232C16.3067 28.9306 16.3342 28.9459 16.3561 28.9676C16.3781 28.9893 16.3938 29.0165 16.4016 29.0464C16.4042 29.0837 16.3953 29.1208 16.3761 29.1529C16.357 29.1849 16.3284 29.2103 16.2944 29.2256C16.2255 29.2539 16.1526 29.2712 16.0784 29.2768C15.825 29.3139 15.5854 29.4153 15.3824 29.5712C15.2826 29.6601 15.1756 29.7403 15.0624 29.8112C14.6672 30.0336 14.3584 29.6064 14.7696 29.3536C15.1741 29.1158 15.6257 28.9689 16.0928 28.9232Z" fill="#FFAB91"/>
<path d="M16.328 29.3055C16.3887 29.2927 16.4513 29.2927 16.512 29.3055C16.5419 29.3135 16.5692 29.3292 16.5912 29.3511C16.6131 29.3731 16.6288 29.4004 16.6368 29.4303C16.6392 29.4675 16.6302 29.5046 16.6111 29.5366C16.5919 29.5686 16.5635 29.594 16.5296 29.6095C16.4606 29.6373 16.3877 29.654 16.3136 29.6591C16.0601 29.6968 15.8206 29.7987 15.6176 29.9551C15.517 30.0429 15.4101 30.1232 15.2976 30.1951C14.9024 30.4159 14.5936 29.9903 15.0048 29.7375C15.4092 29.4991 15.8608 29.3517 16.328 29.3055Z" fill="#FFAB91"/>
<path d="M16.2592 29.7359C16.3199 29.7241 16.3824 29.7241 16.4432 29.7359C16.4734 29.7424 16.5012 29.7574 16.523 29.7793C16.5449 29.8012 16.5599 29.8289 16.5664 29.8591C16.5697 29.8965 16.5612 29.934 16.5419 29.9662C16.5226 29.9984 16.4937 30.0236 16.4592 30.0384C16.3904 30.0668 16.3174 30.0841 16.2432 30.0896C15.9886 30.1308 15.7492 30.2378 15.5488 30.4C15.448 30.487 15.341 30.5667 15.2288 30.6384C14.832 30.8608 14.5232 30.4336 14.936 30.1808C15.3393 29.9376 15.7909 29.7858 16.2592 29.7359Z" fill="#FFAB91"/>
<path d="M16.0528 30.1759C16.1025 30.1663 16.1535 30.1663 16.2032 30.1759C16.2277 30.1822 16.2501 30.1951 16.2678 30.2131C16.2856 30.2312 16.2981 30.2537 16.304 30.2783C16.3064 30.3088 16.2993 30.3392 16.2835 30.3653C16.2677 30.3914 16.2441 30.4119 16.216 30.4239C16.1598 30.4466 16.1004 30.4606 16.04 30.4655C15.8318 30.4997 15.6361 30.5874 15.472 30.7199C15.3922 30.7912 15.3071 30.8565 15.2176 30.9151C14.8976 31.0959 14.6432 30.7551 14.9792 30.5407C15.3063 30.3426 15.6727 30.2181 16.0528 30.1759Z" fill="#FFAB91"/>
<path d="M14.7296 29.3934C14.5411 29.5474 14.379 29.7312 14.2496 29.9374C14.0839 30.1689 14.0156 30.4561 14.0592 30.7374C14.0859 30.8774 14.1566 31.0053 14.2611 31.1023C14.3656 31.1993 14.4983 31.2603 14.64 31.2766C14.8104 31.2783 14.9764 31.2219 15.1104 31.1166C15.2513 31.0109 15.3661 30.8742 15.4458 30.7171C15.5255 30.56 15.568 30.3867 15.57 30.2105C15.572 30.0344 15.5335 29.8601 15.4574 29.7012C15.3813 29.5423 15.2697 29.4031 15.1312 29.2942L14.7296 29.3934Z" fill="#FFAB91"/>
<path d="M14.3344 30.1711C13.6944 30.9423 11.2048 34.8399 11.1904 35.8271C11.1785 36.0905 11.2227 36.3533 11.3201 36.5982C11.4175 36.8432 11.5658 37.0646 11.7552 37.2479C12.1984 37.6367 12.7152 37.5391 13.0112 37.0303C13.5392 36.1119 14.5824 32.0495 14.832 30.8031L14.3344 30.1711Z" fill="#FFAB91"/>
<path d="M22.6224 28.5423C22.5617 28.5295 22.4991 28.5295 22.4384 28.5423C22.4084 28.5497 22.381 28.5651 22.359 28.5867C22.337 28.6084 22.3214 28.6357 22.3136 28.6655C22.3109 28.703 22.3199 28.7404 22.3394 28.7725C22.3589 28.8046 22.3879 28.8299 22.4224 28.8447C22.491 28.8734 22.5641 28.8902 22.6384 28.8943C22.8911 28.933 23.1299 29.0348 23.3328 29.1903C23.4306 29.2781 23.5349 29.3583 23.6448 29.4303C24.04 29.6511 24.3504 29.2255 23.9376 28.9727C23.5355 28.7358 23.0868 28.5889 22.6224 28.5423Z" fill="#FFAB91"/>
<path d="M22.3872 28.9247C22.3265 28.9118 22.2638 28.9118 22.2032 28.9247C22.1731 28.9323 22.1456 28.948 22.1237 28.9699C22.1017 28.9919 22.0861 29.0194 22.0784 29.0495C22.0758 29.0867 22.0848 29.1238 22.1043 29.1557C22.1238 29.1875 22.1528 29.2125 22.1872 29.2271C22.2547 29.2565 22.3266 29.2743 22.4 29.2799C22.6528 29.3179 22.8918 29.4198 23.0944 29.5759C23.1926 29.6626 23.2969 29.7423 23.4064 29.8143C23.8016 30.0367 24.112 29.6111 23.6992 29.3567C23.2982 29.1195 22.8506 28.9721 22.3872 28.9247Z" fill="#FFAB91"/>
<path d="M22.4576 29.3551C22.3968 29.3432 22.3343 29.3432 22.2736 29.3551C22.2436 29.3625 22.2162 29.3778 22.1942 29.3995C22.1722 29.4212 22.1565 29.4484 22.1488 29.4783C22.1461 29.5155 22.155 29.5527 22.1742 29.5847C22.1934 29.6168 22.2219 29.6422 22.256 29.6575C22.3252 29.686 22.3988 29.7028 22.4736 29.7071C22.7262 29.7458 22.9651 29.8476 23.168 30.0031C23.2655 30.0912 23.3698 30.1715 23.48 30.2431C23.8752 30.4639 24.184 30.0383 23.7728 29.7855C23.3707 29.5485 22.922 29.4017 22.4576 29.3551Z" fill="#FFAB91"/>
<path d="M22.664 29.7951C22.6143 29.7854 22.5633 29.7854 22.5136 29.7951C22.489 29.8016 22.4666 29.8145 22.4486 29.8325C22.4306 29.8504 22.4177 29.8729 22.4112 29.8975C22.4095 29.9278 22.4169 29.9579 22.4326 29.9839C22.4483 30.0099 22.4715 30.0305 22.4992 30.0431C22.5558 30.0661 22.6158 30.0796 22.6768 30.0831C22.883 30.1145 23.0778 30.1976 23.2432 30.3247C23.3229 30.3961 23.408 30.4613 23.4976 30.5199C23.8176 30.7023 24.0736 30.3599 23.7376 30.1471C23.4092 29.9539 23.043 29.8338 22.664 29.7951Z" fill="#FFAB91"/>
<path d="M23.9872 29.0126C24.1752 29.1671 24.3372 29.3508 24.4672 29.5566C24.6349 29.7902 24.7034 30.0807 24.6576 30.3646C24.6306 30.5048 24.5595 30.6327 24.4547 30.7296C24.35 30.8266 24.217 30.8876 24.0752 30.9038C23.9053 30.9053 23.7399 30.8489 23.6064 30.7438C23.4654 30.6381 23.3507 30.5014 23.271 30.3443C23.1913 30.1872 23.1488 30.0139 23.1467 29.8377C23.1447 29.6616 23.1833 29.4873 23.2594 29.3284C23.3355 29.1695 23.4471 29.0302 23.5856 28.9214L23.9872 29.0126Z" fill="#FFAB91"/>
<path d="M24.3824 29.7903C25.0224 30.5615 27.512 34.4591 27.5264 35.4463C27.5377 35.7094 27.493 35.972 27.3954 36.2166C27.2978 36.4613 27.1494 36.6824 26.96 36.8655C26.5184 37.2559 26 37.1583 25.704 36.6495C25.1776 35.7311 24.1328 31.6687 23.8848 30.4223L24.3824 29.7903Z" fill="#FFAB91"/>
<path d="M26.5264 38.3838C25.8981 39.1241 25.2704 39.8654 24.6432 40.6078C24.464 40.8212 24.2843 41.0345 24.104 41.2478C24.0624 41.299 24.1312 41.3742 24.1744 41.3246L26.056 39.099L26.5952 38.459C26.6368 38.4094 26.568 38.3326 26.5264 38.3838Z" fill="#000E41"/>
<path d="M17.3792 38.7856C17.3226 39.6549 17.2768 40.5232 17.2416 41.3904C17.2064 42.2576 17.1813 43.1306 17.1664 44.0096C17.1584 44.4992 17.1536 44.9904 17.152 45.48C17.152 45.5456 17.2544 45.5504 17.2544 45.48C17.2544 44.6096 17.2677 43.7402 17.2944 42.872C17.321 42.0037 17.3552 41.1307 17.3968 40.2528C17.4224 39.7643 17.4512 39.2752 17.4832 38.7856C17.481 38.7734 17.4746 38.7623 17.4651 38.7543C17.4556 38.7463 17.4436 38.7419 17.4312 38.7419C17.4188 38.7419 17.4067 38.7463 17.3972 38.7543C17.3877 38.7623 17.3813 38.7734 17.3792 38.7856Z" fill="#000E41"/>
<path d="M19.3184 35.0046C19.2187 35.0046 19.1213 34.975 19.0384 34.9196C18.9555 34.8643 18.8909 34.7856 18.8528 34.6935C18.8146 34.6014 18.8046 34.5 18.8241 34.4023C18.8435 34.3045 18.8915 34.2147 18.962 34.1442C19.0325 34.0737 19.1223 34.0257 19.2201 34.0063C19.3178 33.9868 19.4192 33.9968 19.5113 34.0349C19.6034 34.0731 19.6821 34.1377 19.7375 34.2206C19.7928 34.3035 19.8224 34.4009 19.8224 34.5006C19.822 34.6341 19.7687 34.7621 19.6743 34.8565C19.5799 34.9509 19.4519 35.0042 19.3184 35.0046ZM19.3184 34.0446C19.2288 34.0446 19.1413 34.0711 19.0668 34.1209C18.9924 34.1706 18.9343 34.2414 18.9001 34.3241C18.8658 34.4068 18.8568 34.4979 18.8743 34.5857C18.8918 34.6736 18.9349 34.7542 18.9982 34.8176C19.0615 34.8809 19.1422 34.924 19.2301 34.9415C19.3179 34.959 19.4089 34.95 19.4917 34.9157C19.5744 34.8814 19.6451 34.8234 19.6949 34.7489C19.7446 34.6745 19.7712 34.5869 19.7712 34.4974C19.7703 34.3778 19.7223 34.2635 19.6374 34.1793C19.5526 34.095 19.4379 34.0478 19.3184 34.0478V34.0446Z" fill="#170D05"/>
<path d="M20.552 35.0046C20.4523 35.0046 20.3548 34.975 20.272 34.9196C20.1891 34.8643 20.1245 34.7856 20.0863 34.6935C20.0482 34.6014 20.0382 34.5 20.0577 34.4023C20.0771 34.3045 20.1251 34.2147 20.1956 34.1442C20.2661 34.0737 20.3559 34.0257 20.4536 34.0063C20.5514 33.9868 20.6528 33.9968 20.7448 34.0349C20.8369 34.0731 20.9157 34.1377 20.971 34.2206C21.0264 34.3035 21.056 34.4009 21.056 34.5006C21.056 34.6343 21.0029 34.7624 20.9084 34.857C20.8138 34.9515 20.6856 35.0046 20.552 35.0046ZM20.552 34.0446C20.4624 34.0446 20.3749 34.0711 20.3004 34.1209C20.2259 34.1706 20.1679 34.2414 20.1336 34.3241C20.0994 34.4068 20.0904 34.4979 20.1079 34.5857C20.1253 34.6736 20.1685 34.7542 20.2318 34.8176C20.2951 34.8809 20.3758 34.924 20.4636 34.9415C20.5515 34.959 20.6425 34.95 20.7253 34.9157C20.808 34.8814 20.8787 34.8234 20.9285 34.7489C20.9782 34.6745 21.0048 34.5869 21.0048 34.4974C21.0039 34.3778 20.9558 34.2635 20.871 34.1793C20.7862 34.095 20.6715 34.0478 20.552 34.0478V34.0446Z" fill="#170D05"/>
<path d="M19.8032 34.3439L19.768 34.3071C19.8132 34.2652 19.8718 34.2407 19.9334 34.238C19.9949 34.2354 20.0554 34.2548 20.104 34.2927L20.072 34.3327C20.0328 34.3033 19.9846 34.2884 19.9356 34.2904C19.8866 34.2925 19.8399 34.3114 19.8032 34.3439Z" fill="#170D05"/>
<path d="M22.0096 34.5008C21.6943 34.3824 21.3542 34.3456 21.0208 34.3936V34.344C21.3627 34.2933 21.7119 34.3307 22.0352 34.4528L22.0096 34.5008Z" fill="#170D05"/>
<path d="M69.888 72.4016H10.1136V72.7856H69.888V72.4016Z" fill="#00092B"/>
</svg>
