<svg width="100" height="100" viewBox="0 0 100 100" fill="none" xmlns="http://www.w3.org/2000/svg">
<rect width="100" height="100" rx="50" fill="white"/>
<path d="M60.0026 56.001C69.9272 56.001 78.0023 47.9259 78.0023 37.9997C78.0023 28.0751 69.9272 20 60.0026 20C50.0764 20 42.0013 28.0751 42.0013 37.9997C42.0013 47.9259 50.0764 56.001 60.0026 56.001ZM60.0026 21.9996C68.8247 21.9996 76.0026 29.1776 76.0026 37.9997C76.0026 46.8218 68.8247 54.0013 60.0026 54.0013C51.179 54.0013 44.001 46.8218 44.001 37.9997C44.001 29.1776 51.179 21.9996 60.0026 21.9996Z" fill="#001C82"/>
<path d="M59.9943 42.9969C58.8902 42.9969 57.9932 42.1014 57.9932 40.9974C57.9932 40.4453 57.5461 39.9983 56.9941 39.9983C56.4406 39.9983 55.9935 40.4453 55.9935 40.9974C55.9935 42.856 57.2731 44.4086 58.9937 44.8556V44.9981C58.9937 45.5501 59.4408 45.9972 59.9943 45.9972C60.5463 45.9972 60.9934 45.5501 60.9934 44.9981V44.8556C62.7155 44.4086 63.9936 42.856 63.9936 40.9974C63.9936 38.7922 62.1995 36.9981 59.9943 36.9981C58.8902 36.9981 57.9932 36.101 57.9932 34.9969C57.9932 33.8944 58.8902 32.9973 59.9943 32.9973C61.0969 32.9973 61.994 33.8944 61.994 34.9969C61.994 35.549 62.441 35.9975 62.9945 35.9975C63.5466 35.9975 63.9936 35.549 63.9936 34.9969C63.9936 33.1398 62.7155 31.5857 60.9934 31.1387V30.9976C60.9934 30.4456 60.5463 29.9971 59.9943 29.9971C59.4408 29.9971 58.9937 30.4456 58.9937 30.9976V31.1387C57.2731 31.5857 55.9935 33.1398 55.9935 34.9969C55.9935 37.2036 57.7877 38.9977 59.9943 38.9977C61.0969 38.9977 61.994 39.8948 61.994 40.9974C61.994 42.1014 61.0969 42.9969 59.9943 42.9969Z" fill="#001C82"/>
<path d="M60.0014 52.0002C67.7209 52.0002 74.0019 45.7207 74.0019 37.9997C74.0019 30.2802 67.7224 23.9993 60.0014 23.9993C52.2804 23.9993 46.001 30.2802 46.001 37.9997C46.001 45.7207 52.2819 52.0002 60.0014 52.0002ZM60.0014 26.0004C66.6184 26.0004 72.0023 31.3828 72.0023 37.9997C72.0023 44.6182 66.6184 50.0005 60.0014 50.0005C53.3845 50.0005 48.0006 44.6182 48.0006 37.9997C48.0006 31.3828 53.3845 26.0004 60.0014 26.0004Z" fill="#001C82"/>
<path d="M24.9701 73.4805C24.9701 72.664 24.3047 71.9985 23.4882 71.9985C22.6716 71.9985 22.0062 72.664 22.0062 73.4805C22.0062 74.2985 22.6716 74.9624 23.4882 74.9624C24.3047 74.9624 24.9701 74.2985 24.9701 73.4805Z" fill="#001C82"/>
<path d="M79.4627 61.9985C78.3586 60.0874 75.9044 59.4333 74.0593 60.5014L62.5505 66.1028C60.7609 66.9983 58.9548 66.9983 54.9975 66.9983C51.1287 66.9983 45.2213 66.0218 45.1613 66.0128C44.6168 65.9213 44.1008 66.2888 44.0108 66.8333C43.9193 67.3779 44.2883 67.8939 44.8328 67.9839C45.0803 68.0259 50.9607 68.998 54.9975 68.998C59.1498 68.998 61.2334 68.998 63.4341 67.8969L74.9984 62.267C75.4604 62 75.9974 61.928 76.5165 62.066C77.031 62.2055 77.463 62.537 77.7285 62.9976C77.9971 63.4611 78.0676 63.9996 77.9296 64.5157C77.7916 65.0332 77.4615 65.4637 76.9695 65.7473L63.4491 74.1628C63.4206 74.1823 60.5359 75.9989 53.9969 75.9989C48.328 75.9989 39.5704 71.1731 39.4444 71.1041C39.3529 71.0591 37.1853 69.9986 32.997 69.9986C32.4435 69.9986 31.9965 70.4471 31.9965 70.9991C31.9965 71.5512 32.4435 71.9982 32.997 71.9982C36.6333 71.9982 38.5084 72.8743 38.5114 72.8743V72.8727C38.8894 73.0827 47.8105 77.9986 53.9969 77.9986C61.2169 77.9986 64.4196 75.9195 64.5261 75.8475L77.9986 67.4619C78.9226 66.9278 79.5857 66.0653 79.8617 65.0347C80.1392 64.0011 79.9967 62.9226 79.4627 61.9985Z" fill="#001C82"/>
<path d="M32.997 58.0013H40.997C42.1641 58.0013 44.1472 59.4894 45.8964 60.802C48.091 62.4476 50.1642 64.0017 51.9973 64.0017H57.9977C59.5158 64.0017 60.2704 64.6903 60.2899 64.7083C60.4849 64.9033 60.7414 65.0023 60.9979 65.0023C61.2529 65.0023 61.5095 64.9033 61.7045 64.7083C62.096 64.3182 62.096 63.6852 61.7045 63.2952C61.5725 63.1632 60.3439 62.0021 57.9977 62.0021H51.9973C50.8302 62.0021 48.8471 60.514 47.0965 59.2014C44.9033 57.5558 42.8302 56.0017 40.997 56.0017H32.997C32.4435 56.0017 31.9965 56.4487 31.9965 57.0007C31.9965 57.5528 32.4435 58.0013 32.997 58.0013Z" fill="#001C82"/>
<path d="M27.001 51.9998H21.0006C20.447 51.9998 20 52.4483 20 53.0003C20 53.5524 20.447 54.0009 21.0006 54.0009H27.001C27.5515 54.0009 28 54.4494 28 55V77.0004C28 77.5525 27.5515 78.001 27.001 78.001H21.0006C20.447 78.001 20 78.4495 20 79.0016C20 79.5536 20.447 80.0006 21.0006 80.0006H27.001C28.6541 80.0006 29.9997 78.655 29.9997 77.0004V55C29.9997 53.3469 28.6541 51.9998 27.001 51.9998Z" fill="#001C82"/>
</svg>
