<svg width="100" height="100" viewBox="0 0 100 100" fill="none" xmlns="http://www.w3.org/2000/svg">
<rect width="100" height="100" rx="50" fill="white"/>
<path d="M29 34C29 36.1999 27.2 37.9999 25 37.9999C22.8001 37.9999 20.9999 36.1999 20.9999 34C20.9999 31.8 22.7999 30 24.9999 30C27.1999 30 29 31.7999 29 34Z" fill="#001C82"/>
<path d="M53.9999 25.0001C53.9999 27.2 52.1999 29 50 29C47.8 29 46 27.2 46 25.0001C46 22.8001 47.8 21 50 21C52.1999 21 53.9999 22.8 53.9999 25.0001Z" fill="#001C82"/>
<path d="M53.9999 75C53.9999 77.1999 52.1999 78.9999 50 78.9999C47.8 78.9999 46 77.1999 46 75C46 72.8 47.8 71 50 71C52.1999 71 53.9999 72.8 53.9999 75Z" fill="#001C82"/>
<path d="M79 34C79 36.1999 77.2 37.9999 75.0001 37.9999C72.8001 37.9999 71.0001 36.1999 71.0001 34C71.0001 31.8 72.8001 30 75.0001 30C77.2 29.9999 79 31.7999 79 34Z" fill="#001C82"/>
<path d="M79 65C79 67.1999 77.2 68.9999 75.0001 68.9999C72.8001 68.9999 71.0001 67.1999 71.0001 65C71.0001 62.8 72.8001 61 75.0001 61C77.2 61 79 62.8 79 65Z" fill="#001C82"/>
<path d="M29 65C29 67.1999 27.2 68.9999 25 68.9999C22.8001 68.9999 20.9999 67.1999 20.9999 65C20.9999 62.8 22.7999 61 24.9999 61C27.1999 61 29 62.8 29 65Z" fill="#001C82"/>
<path d="M25 62C24.4 62 24.0001 61.6 24.0001 61V55C24.0001 54.4 24.4 54 25 54C25.6 54 26 54.4 26 55V61C26 61.6 25.6 62 25 62ZM25 52C24.4 52 24.0001 51.6 24.0001 51V48C24.0001 47.4 24.4 47.0001 25 47.0001C25.6 47.0001 26 47.4 26 48V51C26 51.5999 25.6 52 25 52ZM25 43C24.4 43 24.0001 42.6 24.0001 42V38C24.0001 37.4 24.4 37 25 37C25.6 37 26 37.4 26 38V41.9999C26 42.5999 25.6 43 25 43Z" fill="#001C82"/>
<path d="M46 76C45.9001 76 45.7 76 45.6001 75.9001L43.1001 74.7001C42.6001 74.5 42.4001 73.9 42.6001 73.4001C42.8001 72.9001 43.4001 72.7001 43.9 72.9001L46.4 74.1001C46.9 74.3001 47.0999 74.9001 46.9 75.4C46.7 75.8 46.4 76 46 76ZM39.8999 73.1C39.8 73.1 39.5999 73.1 39.5 73L36.8 71.7001C36.2999 71.5 36.1 70.9 36.2999 70.4001C36.5 69.9001 37.1 69.7001 37.5999 69.9001L40.2999 71.2C40.7999 71.4001 40.9999 72.0001 40.7999 72.5C40.6 72.8999 40.1999 73.1 39.8999 73.1ZM32.6 69.7C32.5 69.7 32.3 69.7 32.2 69.6001L28.6 67.9C28.1 67.7 27.9001 67.1 28.1 66.6001C28.2999 66.1001 28.9 65.9001 29.3999 66.1L32.9999 67.8001C33.5 68.0001 33.6999 68.6001 33.5 69.1C33.4 69.5 32.9999 69.7 32.6 69.7Z" fill="#001C82"/>
<path d="M75 62C74.4 62 74 61.6 74 61V58C74 57.4 74.4 57 75 57C75.6 57 75.9999 57.4 75.9999 58V61C76 61.6 75.6 62 75 62ZM75 56C74.4 56 74 55.6 74 55V52C74 51.4 74.4 51 75 51C75.6 51 75.9999 51.4 75.9999 52V55C76 55.6 75.6 56 75 56ZM75 49C74.4 49 74 48.6 74 48V45C74 44.4 74.4 44.0001 75 44.0001C75.6 44.0001 75.9999 44.4 75.9999 45V48C76 48.5999 75.6 49 75 49ZM75 43C74.4 43 74 42.6 74 42V38C74 37.4 74.4 37 75 37C75.6 37 75.9999 37.4 75.9999 38V41.9999C76 42.5999 75.6 43 75 43Z" fill="#001C82"/>
<path d="M25 39C22.2 39 20 36.8 20 34C20 31.2001 22.2 29 25 29C27.8001 29 30.0001 31.2 30.0001 34C30.0001 36.8001 27.8 39 25 39ZM25 31C23.3 31 22 32.3 22 34C22 35.7001 23.3 37 25 37C26.7001 37 28 35.7001 28 34C28 32.3 26.7 31 25 31Z" fill="#001C82"/>
<path d="M50 30C47.2 30 44.9999 27.8 44.9999 24.9999C44.9999 22.1998 47.2 20 50 20C52.7999 20 55 22.2 55 25C55 27.8001 52.7999 30 50 30ZM50 22C48.2999 22 47 23.3 47 25C47 26.7001 48.2999 28 50 28C51.7 28 53 26.7001 53 25C53 23.3 51.7 22 50 22Z" fill="#001C82"/>
<path d="M50 80.0001C47.2 80.0001 44.9999 77.8001 44.9999 75C44.9999 72.2001 47.1999 70 50 70C52.8001 70 55 72.2 55 75C55 77.8001 52.7999 80.0001 50 80.0001ZM50 72C48.2999 72 47 73.3 47 75C47 76.7001 48.2999 78 50 78C51.7 78 53 76.7001 53 75C53 73.3001 51.7 72 50 72Z" fill="#001C82"/>
<path d="M75 39C72.2 39 69.9999 36.8 69.9999 33.9999C69.9999 31.1998 72.2 29 75 29C77.8001 29 80 31.2 80 34C80 36.8001 77.8001 39 75 39ZM75 31C73.2999 31 72 32.3 72 34C72 35.7001 73.2999 37 75 37C76.7 37 78 35.7001 78 34C78 32.3 76.7 31 75 31Z" fill="#001C82"/>
<path d="M75 70.0001C72.2 70.0001 69.9999 67.8001 69.9999 65C69.9999 62.2001 72.1999 60 75 60C77.8001 60 80 62.2001 80 65C80 67.8 77.8001 70.0001 75 70.0001ZM75 62C73.2999 62 72 63.3 72 65C72 66.7001 73.2999 68 75 68C76.7 68 78 66.7001 78 65C78 63.3 76.7 62 75 62Z" fill="#001C82"/>
<path d="M25 70.0001C22.2 70.0001 20 67.8 20 65C20 62.2001 22.2 60 25 60C27.8001 60 30 62.2001 30 65C30 67.8 27.8 70.0001 25 70.0001ZM25 62C23.3 62 22 63.3 22 65C22 66.7001 23.3 68 25 68C26.7001 68 28 66.7001 28 65C28 63.3 26.7 62 25 62Z" fill="#001C82"/>
<path d="M54 76.0001C53.6 76.0001 53.3 75.8001 53.1 75.4001C52.8999 74.9001 53.1 74.3001 53.6 74.1001L56.1 72.9001C56.6 72.7001 57.2 72.9001 57.3999 73.4002C57.6 73.9002 57.3999 74.5002 56.8999 74.7001L54.3999 75.9001C54.3 76.0001 54.1 76.0001 54 76.0001ZM60.1001 73.1001C59.7001 73.1001 59.4001 72.9 59.2 72.5001C59 72 59.2 71.4 59.7001 71.2001L62.4001 69.9001C62.9001 69.7001 63.5001 69.9001 63.7001 70.4002C63.9001 70.9002 63.7001 71.5002 63.2 71.7001L60.6 73.0001C60.4001 73.1001 60.3 73.1001 60.1001 73.1001ZM67.4 69.7001C67.0001 69.7001 66.7 69.5001 66.5 69.1001C66.3 68.6001 66.5 68.0001 67 67.8001L70.6 66.1001C71.1001 65.9001 71.7001 66.1001 71.9 66.6001C72.0999 67.1002 71.9 67.7002 71.4 67.9001L67.8 69.6001C67.7 69.7001 67.5 69.7001 67.4 69.7001Z" fill="#001C82"/>
<path d="M71 32.0001C70.9001 32.0001 70.7 32.0001 70.6001 31.9001L66.9001 30.4001C66.4001 30.2001 66.1001 29.6001 66.4001 29.1002C66.6001 28.6001 67.2001 28.3001 67.7 28.6001L71.4 30.1001C71.9 30.3002 72.2 30.9002 71.9 31.4001C71.8001 31.8 71.4 32.0001 71 32.0001ZM62.7 28.6001C62.6 28.6001 62.4 28.6001 62.3 28.5002L59.5001 27.4001C59 27.1001 58.8001 26.6001 59 26.1002C59.1999 25.6002 59.8001 25.3001 60.3 25.6001L63.0999 26.7002C63.6 26.9002 63.9 27.5002 63.6 28.0001C63.4001 28.3001 63.1001 28.6001 62.7 28.6001ZM56.2001 25.9001C56.1001 25.9001 55.9001 25.9001 55.8001 25.8002L53.6001 24.9002C53.1001 24.7001 52.8001 24.1001 53.1001 23.6002C53.3001 23.1002 53.9001 22.8002 54.4001 23.1002L56.6 24.0002C57.1001 24.2002 57.4001 24.8002 57.1001 25.3001C57 25.7001 56.6 25.9001 56.2001 25.9001Z" fill="#001C82"/>
<path d="M29 32C28.6 32 28.1999 31.8 28.1 31.4C27.8999 30.9 28.1 30.3 28.6 30.1001L32.3 28.6001C32.8 28.4 33.4 28.6001 33.5999 29.1001C33.8 29.6001 33.5999 30.2001 33.0999 30.4001L29.3999 31.9001C29.3 32 29.0999 32 29 32ZM37.3 28.6001C36.9001 28.6001 36.5 28.4 36.4 28.0001C36.2 27.5 36.4 26.9 36.9001 26.7001L39.7 25.6001C40.2 25.4 40.8 25.6001 41 26.1001C41.1999 26.6001 41 27.2001 40.4999 27.4001L37.7 28.5001C37.6 28.5 37.4 28.6001 37.3 28.6001ZM43.7999 25.9001C43.4 25.9001 42.9999 25.7 42.8999 25.3001C42.6999 24.8 42.8999 24.2 43.4 24.0001L45.5999 23.1001C46.1 22.9001 46.7 23.1001 46.8999 23.6001C47.0998 24.1002 46.8999 24.7002 46.3999 24.9001L44.1999 25.8001C44.0999 25.9001 43.9 25.9001 43.7999 25.9001Z" fill="#001C82"/>
<path d="M50 61C49.7999 61 49.7 61 49.6 60.9L39.6001 55.9C39.2001 55.6999 39.0001 55.3999 39.0001 55V43.9999C39.0001 43.6999 39.2001 43.3999 39.4 43.1999C39.7 42.9998 40 42.9998 40.3 43.0999L50.3 47.0999C50.6999 47.2999 50.9 47.5999 50.9 47.9999V59.9999C50.9 60.2999 50.6999 60.6998 50.3999 60.8999C50.3999 61 50.2 61 50 61ZM41 54.4L49 58.3999V48.7L41 45.4999V54.4Z" fill="#001C82"/>
<path d="M50 61C49.8 61 49.6001 61 49.5 60.9C49.2 60.7 48.9999 60.3 48.9999 60V48C48.9999 47.6001 49.2 47.2 49.5999 47.1L59.5999 43.1001C59.8999 43.0001 60.2999 43.0001 60.4999 43.2C60.7999 43.4001 60.8999 43.7001 60.8999 44.0001V55.0001C60.8999 55.4001 60.6998 55.7001 60.2999 55.9001L50.2999 60.9002C50.3 61 50.2001 61 50 61ZM51 48.7V58.4L59 54.4V45.5L51 48.7Z" fill="#001C82"/>
<path d="M50 49.0001C49.9 49.0001 49.7 49.0001 49.6 48.9001L39.6001 44.9002C39.3001 44.8002 39.0001 44.4001 39.0001 44.0002C39.0001 43.6002 39.2001 43.2001 39.6001 43.1002L49.6 38.1001C49.9 38.0002 50.2 38.0002 50.5 38.1001L60.5 43.1C60.8999 43.3001 61.1 43.6001 61.1 44C61.1 44.4 60.8 44.7 60.5 44.9L50.5 48.9C50.3 49.0001 50.0999 49.0001 50 49.0001ZM42.4 43.9001L50 46.9001L57.5999 43.9001L50 40.1L42.4 43.9001Z" fill="#001C82"/>
<path d="M35 42C34.7999 42 34.6 41.9 34.4 41.7999L28.4 37.8C27.8999 37.5 27.8 36.9 28.1 36.3999C28.4 35.8999 29 35.7999 29.5 36.0999L35.5 40.0999C36.0001 40.3999 36.1 40.9999 35.8 41.4999C35.6 41.8 35.3 42 35 42Z" fill="#001C82"/>
<path d="M65 42C64.7 42 64.4 41.7999 64.1999 41.6C63.8999 41.1 63.9999 40.5 64.4999 40.2L70.5 36.2C71 35.9 71.6 36 71.9 36.5C72.2 37 72.1 37.6 71.6 37.9L65.6 41.9C65.3999 41.9 65.2 42 65 42Z" fill="#001C82"/>
<path d="M71 63C70.7999 63 70.6 62.9 70.4 62.7999L64.4 58.8C63.8999 58.5 63.8 57.9 64.1 57.3999C64.4 56.8999 65 56.7999 65.5 57.0999L71.5 61.0999C72.0001 61.3999 72.1 61.9999 71.8 62.4999C71.6 62.8 71.3 63 71 63Z" fill="#001C82"/>
<path d="M29 63C28.7 63 28.4 62.7999 28.1999 62.6C27.8999 62.1 27.9999 61.5 28.4999 61.2L34.4999 57.2C35 56.9 35.6 57 35.9 57.5C36.2 58 36.1 58.6 35.6 58.9L29.6 62.9C29.3999 62.9 29.2 63 29 63Z" fill="#001C82"/>
</svg>
