<svg width="100" height="100" viewBox="0 0 100 100" fill="none" xmlns="http://www.w3.org/2000/svg">
<rect width="100" height="100" rx="50" fill="white"/>
<g clip-path="url(#clip0_80_17810)">
<path d="M59.437 44.6878V47.6866C59.437 48.3598 59.9755 48.8984 60.6487 48.8984C61.3219 48.8984 61.8605 48.3598 61.8605 47.6866V44.6878C61.8605 43.6842 61.4198 42.7417 60.6487 42.1174C58.3476 40.2325 55.8997 38.8616 54.7491 38.2619V35.2141C55.3121 34.6266 55.6304 33.8433 55.6304 33.011V28.6291C55.6304 25.7894 53.317 23.4761 50.4774 23.4761H49.5349C46.6952 23.4761 44.3819 25.7894 44.3819 28.6291V33.011C44.3819 33.8433 44.7001 34.6266 45.2632 35.2141V38.2496C44.1126 38.8494 41.6646 40.2203 39.3635 42.1052C38.5924 42.7417 38.1518 43.6719 38.1518 44.6756V47.6744C38.1518 48.3476 38.6903 48.8861 39.3635 48.8861C40.0367 48.8861 40.5753 48.3476 40.5753 47.6744V44.6756C40.5753 44.4063 40.6977 44.1493 40.9058 43.9779C43.5251 41.8237 46.3525 40.3916 46.9033 40.1346C47.3807 39.902 47.6867 39.4002 47.6867 38.8739V34.6511C47.6867 34.2472 47.4786 33.8678 47.1481 33.6474C46.94 33.5006 46.8054 33.268 46.8054 33.011V28.6291C46.8054 27.1236 48.0294 25.8996 49.5349 25.8996H50.4774C51.9829 25.8996 53.2069 27.1236 53.2069 28.6291V33.011C53.2069 33.268 53.0845 33.5006 52.8642 33.6474C52.5214 33.8678 52.3256 34.2472 52.3256 34.6511V38.8739C52.3256 39.4124 52.6316 39.902 53.109 40.1346C53.6475 40.4039 56.4872 41.8237 59.1065 43.9779C59.3146 44.1493 59.437 44.4063 59.437 44.6878Z" fill="#001C82"/>
<path d="M71.0037 61.273C70.661 61.4933 70.4651 61.8727 70.4651 62.2766V66.4994C70.4651 67.0379 70.7711 67.5275 71.2485 67.7601C71.787 68.0294 74.6267 69.4614 77.246 71.6034C77.4541 71.7748 77.5765 72.0318 77.5765 72.3011V75.2999C77.5765 75.9731 78.1151 76.5116 78.7883 76.5116C79.4615 76.5116 80 75.9731 80 75.2999V72.3011C80 71.2974 79.5594 70.355 78.7883 69.7307C76.4872 67.8458 74.0392 66.4749 72.8886 65.8752V62.8274C73.4517 62.2399 73.7699 61.4566 73.7699 60.6242V56.2424C73.7699 53.4027 71.4566 51.0894 68.6169 51.0894H67.6744C64.8348 51.0894 62.5214 53.4027 62.5214 56.2424V60.6242C62.5214 61.4566 62.8397 62.2399 63.4027 62.8274V65.8752C62.2522 66.4749 59.8042 67.8458 57.5031 69.7307C56.732 70.3672 56.2913 71.3097 56.2913 72.3011V75.2999C56.2913 75.9731 56.8299 76.5116 57.5031 76.5116C58.1763 76.5116 58.7148 75.9731 58.7148 75.2999V72.3011C58.7148 72.0318 58.8372 71.7748 59.0453 71.6034C61.6646 69.4492 64.4921 68.0171 65.0429 67.7601C65.5202 67.5275 65.8262 67.0257 65.8262 66.4994V62.2766C65.8262 61.8727 65.6181 61.4933 65.2876 61.273C65.0796 61.1261 64.9449 60.8935 64.9449 60.6365V56.2546C64.9449 54.7491 66.1689 53.5251 67.6744 53.5251H68.6169C70.1224 53.5251 71.3464 54.7491 71.3464 56.2546V60.6365C71.3464 60.8935 71.224 61.1261 71.0037 61.273Z" fill="#001C82"/>
<path d="M41.2852 72.3133V75.3121C41.2852 75.9853 41.8237 76.5238 42.4969 76.5238C43.1701 76.5238 43.7087 75.9853 43.7087 75.3121V72.3133C43.7087 71.3096 43.2681 70.3672 42.4969 69.7429C40.1958 67.858 37.7479 66.4871 36.5973 65.8874V62.8396C37.1603 62.2521 37.4786 61.4688 37.4786 60.6364V56.2546C37.4786 53.4149 35.1652 51.1016 32.3256 51.1016H31.3831C28.5435 51.1016 26.2301 53.4149 26.2301 56.2546V60.6364C26.2301 61.4688 26.5483 62.2521 27.1114 62.8396V65.8874C25.9608 66.4871 23.5129 67.858 21.2118 69.7429C20.4406 70.3794 20 71.3096 20 72.3133V75.3121C20 75.9853 20.5386 76.5238 21.2118 76.5238C21.8849 76.5238 22.4235 75.9853 22.4235 75.3121V72.3133C22.4235 72.044 22.5459 71.787 22.754 71.6156C25.3733 69.4614 28.2007 68.0293 28.7515 67.7723C29.2411 67.5397 29.5349 67.0502 29.5349 66.5116V62.2888C29.5349 61.8849 29.3268 61.5055 28.9963 61.2852C28.7882 61.1383 28.6536 60.9057 28.6536 60.6487V56.2668C28.6536 54.7613 29.8776 53.5373 31.3831 53.5373H32.3256C33.8311 53.5373 35.0551 54.7613 35.0551 56.2668V60.6487C35.0551 60.9057 34.9327 61.1383 34.7124 61.2852C34.3696 61.5055 34.1738 61.8849 34.1738 62.2888V66.5116C34.1738 67.0502 34.4798 67.5397 34.9572 67.7723C35.4957 68.0416 38.3354 69.4614 40.9547 71.6156C41.1628 71.787 41.2852 72.0318 41.2852 72.3133Z" fill="#001C82"/>
<path d="M50 66.3402C50.6732 66.3402 51.2118 65.8017 51.2118 65.1285V63.5006H51.3464C53.6353 63.5006 55.508 61.6401 55.508 59.339C55.508 57.0379 53.6475 55.1774 51.3464 55.1774H48.6536C47.6989 55.1774 46.9156 54.3941 46.9156 53.4394C46.9156 52.4846 47.6989 51.7135 48.6536 51.7135H53.3905C54.0637 51.7135 54.6022 51.175 54.6022 50.5018C54.6022 49.8286 54.0637 49.29 53.3905 49.29H51.1995V47.6866C51.1995 47.0134 50.661 46.4749 49.9878 46.4749C49.3146 46.4749 48.776 47.0134 48.776 47.6866V49.29H48.6536C46.3648 49.29 44.4921 51.1505 44.4921 53.4516C44.4921 55.7405 46.3525 57.6132 48.6536 57.6132H51.3464C52.3011 57.6132 53.0845 58.3965 53.0845 59.3512C53.0845 60.3059 52.3011 61.0893 51.3464 61.0893H46.5116C45.8385 61.0893 45.2999 61.6279 45.2999 62.301C45.2999 62.9742 45.8385 63.5128 46.5116 63.5128H48.7883V65.1407C48.7883 65.8017 49.3268 66.3402 50 66.3402Z" fill="#2C75FB"/>
</g>
<defs>
<clipPath id="clip0_80_17810">
<rect width="60" height="60" fill="white" transform="translate(20 20)"/>
</clipPath>
</defs>
</svg>
