<svg width="100" height="100" viewBox="0 0 100 100" fill="none" xmlns="http://www.w3.org/2000/svg">
<rect width="100" height="100" rx="50" fill="white"/>
<path d="M30.1367 37.8125C28.2969 37.8125 26.7969 39.3125 26.7969 41.1523C26.7969 42.9922 28.2969 44.4922 30.1367 44.4922C31.9766 44.4922 33.4766 42.9922 33.4766 41.1523C33.4766 39.3125 31.9766 37.8125 30.1367 37.8125ZM30.1367 42.8398C29.1992 42.8398 28.4375 42.0781 28.4375 41.1406C28.4375 40.2031 29.1992 39.4531 30.1367 39.4531C31.0742 39.4531 31.8359 40.2148 31.8359 41.1523C31.8359 42.0898 31.0742 42.8398 30.1367 42.8398Z" fill="#001C82"/>
<path d="M48.1836 37.8125C46.3438 37.8125 44.8438 39.3125 44.8438 41.1523C44.8438 42.9922 46.3438 44.4922 48.1836 44.4922C50.0234 44.4922 51.5234 42.9922 51.5234 41.1523C51.5234 39.3125 50.0234 37.8125 48.1836 37.8125ZM48.1836 42.8398C47.2461 42.8398 46.4844 42.0781 46.4844 41.1406C46.4844 40.2031 47.2461 39.4414 48.1836 39.4414C49.1211 39.4414 49.8828 40.2031 49.8828 41.1406C49.8828 42.0781 49.1211 42.8398 48.1836 42.8398Z" fill="#001C82"/>
<path d="M66.2305 29.3281C64.3906 29.3281 62.8906 30.8281 62.8906 32.668C62.8906 34.5078 64.3906 36.0078 66.2305 36.0078C68.0703 36.0078 69.5703 34.5078 69.5703 32.668C69.5703 30.8164 68.0703 29.3281 66.2305 29.3281ZM66.2305 34.3555C65.293 34.3555 64.5312 33.5938 64.5312 32.6563C64.5312 31.7188 65.293 30.957 66.2305 30.957C67.168 30.957 67.9297 31.7188 67.9297 32.6563C67.9297 33.5938 67.168 34.3555 66.2305 34.3555Z" fill="#001C82"/>
<path d="M76.6367 39.2773L72.4063 35.5039C72.8164 34.6133 73.0273 33.6406 73.0273 32.6563C73.0273 28.9063 69.9805 25.8594 66.2305 25.8594C62.4805 25.8594 59.4336 28.9063 59.4336 32.6563C59.4336 33.8867 59.7617 35.0352 60.3359 36.0195L54.8281 39.7109C54.1719 36.6523 51.4414 34.3438 48.1836 34.3438C44.7148 34.3438 41.8438 36.957 41.4336 40.3203H36.875C36.4648 36.957 33.5938 34.3438 30.125 34.3438C26.375 34.3438 23.3281 37.3906 23.3281 41.1406C23.3281 44.8906 26.375 47.9375 30.125 47.9375C33.5938 47.9375 36.4648 45.3242 36.875 41.9609H41.4336C41.8438 45.3242 44.7148 47.9375 48.1836 47.9375C51.7812 47.9375 54.7344 45.125 54.9688 41.5859L61.3203 37.332C62.5625 38.6328 64.3086 39.4414 66.2422 39.4414C67.2266 39.4414 68.2109 39.2305 69.0898 38.8203L72.8633 43.0508C73.3555 43.6016 74.0586 43.9297 74.7852 43.9531C74.8086 43.9531 74.832 43.9531 74.8672 43.9531C75.5703 43.9531 76.2617 43.6719 76.7656 43.168C77.2812 42.6523 77.5742 41.9258 77.5508 41.1992C77.5156 40.4727 77.1875 39.7695 76.6367 39.2773ZM30.1367 46.3086C27.2891 46.3086 24.9805 44 24.9805 41.1523C24.9805 38.3047 27.2891 35.9961 30.1367 35.9961C32.9844 35.9961 35.293 38.3047 35.293 41.1523C35.293 44 32.9844 46.3086 30.1367 46.3086ZM48.1836 46.3086C45.3359 46.3086 43.0273 44 43.0273 41.1523C43.0273 38.3047 45.3359 35.9961 48.1836 35.9961C51.0312 35.9961 53.3398 38.3047 53.3398 41.1523C53.3398 43.9883 51.0312 46.3086 48.1836 46.3086ZM75.5938 42.0195C75.3828 42.2305 75.1133 42.3359 74.832 42.3242C74.5391 42.3125 74.2812 42.1953 74.082 41.9727L69.8867 37.2617C69.7227 37.0859 69.5 36.9922 69.2773 36.9922C69.1367 36.9922 68.9844 37.0273 68.8555 37.1094C68.0703 37.5781 67.1562 37.8242 66.2305 37.8242C63.3828 37.8242 61.0742 35.5156 61.0742 32.668C61.0742 29.8203 63.3828 27.5117 66.2305 27.5117C69.0781 27.5117 71.3867 29.8203 71.3867 32.668C71.3867 33.5938 71.1406 34.4961 70.6719 35.293C70.4727 35.6328 70.543 36.0664 70.8359 36.3242L75.5469 40.5078C75.7578 40.6953 75.8867 40.9648 75.8984 41.2578C75.9102 41.5391 75.793 41.8086 75.5938 42.0195Z" fill="#001C82"/>
<path d="M26.0938 74.1406H34.1797H44.1406H52.2266H62.1875H70.2734H73.0859C73.543 74.1406 73.9062 73.7773 73.9062 73.3203C73.9062 72.8633 73.543 72.5 73.0859 72.5H71.0938V43.7891C71.0938 43.332 70.7305 42.9688 70.2734 42.9688H62.1875C61.7305 42.9688 61.3672 43.332 61.3672 43.7891V72.5H58.625V63.7109C58.625 63.2539 58.2617 62.8906 57.8047 62.8906C57.3477 62.8906 56.9844 63.2539 56.9844 63.7109V72.5H53.0469V52.8125C53.0469 52.3555 52.6836 51.9922 52.2266 51.9922H44.1406C43.6836 51.9922 43.3203 52.3555 43.3203 52.8125V72.5H39.9805V63.7109C39.9805 63.2539 39.6172 62.8906 39.1602 62.8906C38.7031 62.8906 38.3398 63.2539 38.3398 63.7109V72.5H35V52.8125C35 52.3555 34.6367 51.9922 34.1797 51.9922H26.0938C25.6367 51.9922 25.2734 52.3555 25.2734 52.8125V72.5H23.2812C22.8242 72.5 22.4609 72.8633 22.4609 73.3203C22.4609 73.7773 22.8242 74.1406 23.2812 74.1406H26.0938ZM63.0078 44.6094H69.4531V72.5H63.0078V44.6094ZM44.9609 53.6328H51.4062V72.5H44.9609V53.6328ZM26.9141 53.6328H33.3594V72.5H26.9141V53.6328Z" fill="#001C82"/>
</svg>
