<svg width="201" height="59" viewBox="0 0 201 59" fill="none" xmlns="http://www.w3.org/2000/svg">
<path d="M192.265 0H8.90288C4.2621 0 0.5 3.60859 0.5 8.06V50.94C0.5 55.3914 4.2621 59 8.90288 59H192.265C196.906 59 200.668 55.3914 200.668 50.94V8.06C200.668 3.60859 196.906 0 192.265 0Z" fill="#1D1C1D"/>
<path d="M19.3251 13.507C18.8685 13.9914 18.6356 14.6141 18.6739 15.2476V42.7498C18.6267 43.3844 18.8608 44.0099 19.3251 44.4904L19.4221 44.5899L36.59 29.1852V28.8122L19.4221 13.4199L19.3251 13.507Z" fill="url(#paint0_linear_28_399)"/>
<path d="M42.271 34.3198L36.59 29.1849V28.8119L42.271 23.677L42.3957 23.7516L49.1991 27.208C51.139 28.1902 51.139 29.8066 49.1991 30.8012L42.4234 34.2576L42.271 34.3198Z" fill="url(#paint1_linear_28_399)"/>
<path d="M42.4373 34.2453L36.59 28.9985L19.3252 44.4903C19.7167 44.803 20.2179 44.9829 20.7418 44.9988C21.2656 45.0147 21.7792 44.8656 22.1934 44.5773L42.4373 34.2453Z" fill="url(#paint2_linear_28_399)"/>
<path d="M42.4373 23.7518L22.1934 13.4322C21.7819 13.1399 21.2687 12.9872 20.7441 13.0008C20.2195 13.0145 19.7171 13.1937 19.3252 13.5068L36.59 28.9986L42.4373 23.7518Z" fill="url(#paint3_linear_28_399)"/>
<path opacity="0.2" d="M42.2711 34.1333L22.1934 44.3907C21.7943 44.661 21.3078 44.8072 20.8078 44.8072C20.3077 44.8072 19.8213 44.661 19.4222 44.3907L19.3252 44.4777L19.4222 44.5772C19.8213 44.8475 20.3077 44.9937 20.8078 44.9937C21.3078 44.9937 21.7943 44.8475 22.1934 44.5772L42.4373 34.2452L42.2711 34.1333Z" fill="black"/>
<path opacity="0.12" d="M19.3252 44.3163C18.8801 43.8232 18.662 43.196 18.7155 42.5632V42.7497C18.6683 43.3843 18.9024 44.0099 19.3667 44.4904L19.4637 44.4033L19.3252 44.3163Z" fill="black"/>
<path opacity="0.12" d="M49.1992 30.6148L42.2711 34.1334L42.3958 34.2453L49.1992 30.7889C49.6008 30.6365 49.9491 30.3898 50.2076 30.0748C50.4661 29.7597 50.6251 29.3879 50.6679 28.9985C50.5813 29.3523 50.4032 29.6829 50.1481 29.9637C49.893 30.2444 49.568 30.4675 49.1992 30.6148Z" fill="black"/>
<path opacity="0.25" d="M22.1934 13.6062L49.1992 27.3822C49.568 27.5296 49.893 27.7526 50.1481 28.0334C50.4033 28.3141 50.5813 28.6447 50.6679 28.9985C50.6251 28.6092 50.4661 28.2374 50.2076 27.9223C49.9492 27.6072 49.6008 27.3605 49.1992 27.2081L22.1934 13.4322C20.2674 12.4375 18.6739 13.2581 18.6739 15.2474V15.4339C18.7155 13.4446 20.2674 12.624 22.1934 13.6062Z" fill="white"/>
<path d="M73.801 17.812C73.801 20.212 75.733 22.12 78.133 22.12C79.201 22.12 80.233 21.748 81.049 20.956C81.133 20.872 81.157 20.704 81.061 20.632L80.701 20.308C80.629 20.26 80.533 20.248 80.413 20.344C79.777 20.824 79.165 21.244 78.121 21.244C76.225 21.244 74.773 19.648 74.773 17.8C74.773 15.94 76.225 14.344 78.121 14.344C78.937 14.344 79.789 14.704 80.413 15.244C80.533 15.364 80.629 15.376 80.725 15.256L81.049 14.932C81.145 14.836 81.133 14.692 81.037 14.596C80.221 13.9 79.345 13.48 78.133 13.48C75.733 13.48 73.801 15.412 73.801 17.812ZM82.2502 17.812C82.2502 20.212 84.1582 22.12 86.5582 22.12C88.9582 22.12 90.8782 20.212 90.8782 17.812C90.8782 15.412 88.9582 13.48 86.5582 13.48C84.1582 13.48 82.2502 15.412 82.2502 17.812ZM83.0902 17.812C83.0902 15.904 84.6502 14.32 86.5582 14.32C88.4662 14.32 90.0382 15.904 90.0382 17.812C90.0382 19.72 88.4662 21.28 86.5582 21.28C84.6502 21.28 83.0902 19.72 83.0902 17.812ZM92.1177 21.712C92.0817 21.88 92.1537 22 92.3337 22H92.8137C92.9097 22 93.0177 21.916 93.0297 21.832L94.0737 15.652C94.0857 15.652 94.1097 15.652 94.1217 15.652L96.3537 21.988C96.3777 22.06 96.4857 22.12 96.5577 22.12H96.7737C96.8457 22.12 96.9537 22.06 96.9777 21.988L99.1857 15.652C99.1977 15.652 99.2217 15.652 99.2337 15.652L100.302 21.832C100.326 21.916 100.422 22 100.518 22H100.998C101.178 22 101.25 21.88 101.214 21.712L99.6657 13.648C99.6417 13.552 99.5457 13.48 99.4497 13.48H99.2577C99.1737 13.48 99.0777 13.54 99.0537 13.612L96.7137 20.224C96.6897 20.224 96.6777 20.224 96.6537 20.224L94.2777 13.612C94.2537 13.54 94.1577 13.48 94.0737 13.48H93.8817C93.7857 13.48 93.6897 13.552 93.6657 13.648L92.1177 21.712ZM103.065 21.772C103.065 21.892 103.173 22 103.293 22H103.773C103.893 22 104.001 21.892 104.001 21.772V13.828C104.001 13.708 103.893 13.6 103.773 13.6H103.293C103.173 13.6 103.065 13.708 103.065 13.828V21.772ZM106.452 21.772C106.452 21.892 106.56 22 106.68 22H107.1C107.232 22 107.328 21.892 107.328 21.772V15.244H107.34L112.848 22.12H113.064C113.184 22.12 113.292 22.024 113.292 21.904V13.828C113.292 13.708 113.184 13.6 113.064 13.6H112.644C112.512 13.6 112.416 13.708 112.416 13.828V20.224C112.404 20.224 112.404 20.224 112.392 20.224L106.98 13.48H106.68C106.56 13.48 106.452 13.576 106.452 13.696V21.772ZM115.133 17.812C115.133 20.212 117.065 22.12 119.465 22.12C121.205 22.12 122.429 21.328 122.429 21.328C122.477 21.292 122.525 21.196 122.525 21.136V18.388C122.525 18.268 122.429 18.16 122.309 18.16H120.233C120.101 18.16 120.005 18.256 120.005 18.388V18.832C120.005 18.952 120.101 19.048 120.233 19.048H121.613V20.728C121.613 20.728 120.773 21.232 119.453 21.232C117.557 21.232 116.117 19.612 116.117 17.764C116.117 15.904 117.557 14.32 119.453 14.32C120.257 14.32 121.121 14.716 121.733 15.256C121.865 15.376 121.937 15.388 122.045 15.268C122.141 15.16 122.273 15.04 122.381 14.932C122.477 14.836 122.465 14.692 122.369 14.596C121.553 13.9 120.677 13.48 119.465 13.48C117.065 13.48 115.133 15.412 115.133 17.812ZM126.726 21.148C126.882 21.292 127.842 22.12 129.258 22.12C130.662 22.12 131.85 21.208 131.85 19.96C131.85 18.568 130.806 17.956 129.186 17.296C128.178 16.876 127.566 16.408 127.566 15.604C127.566 15.1 127.95 14.284 129.222 14.284C129.954 14.284 130.71 14.788 130.794 14.836C130.986 14.944 131.106 14.896 131.214 14.728C131.262 14.656 131.31 14.572 131.358 14.5C131.502 14.272 131.358 14.128 131.286 14.092C131.286 14.092 130.41 13.48 129.234 13.48C127.326 13.48 126.678 14.8 126.678 15.616C126.678 16.984 127.47 17.524 128.79 18.1C130.17 18.676 130.89 19.168 130.89 19.996C130.89 20.704 130.254 21.316 129.282 21.316C128.214 21.316 127.338 20.476 127.254 20.404C127.086 20.26 126.954 20.356 126.834 20.512C126.774 20.584 126.714 20.668 126.654 20.74C126.51 20.968 126.63 21.064 126.726 21.148ZM132.981 17.812C132.981 20.212 134.889 22.12 137.289 22.12C139.689 22.12 141.609 20.212 141.609 17.812C141.609 15.412 139.689 13.48 137.289 13.48C134.889 13.48 132.981 15.412 132.981 17.812ZM133.821 17.812C133.821 15.904 135.381 14.32 137.289 14.32C139.197 14.32 140.769 15.904 140.769 17.812C140.769 19.72 139.197 21.28 137.289 21.28C135.381 21.28 133.821 19.72 133.821 17.812ZM142.836 17.812C142.836 20.212 144.744 22.12 147.144 22.12C149.544 22.12 151.464 20.212 151.464 17.812C151.464 15.412 149.544 13.48 147.144 13.48C144.744 13.48 142.836 15.412 142.836 17.812ZM143.676 17.812C143.676 15.904 145.236 14.32 147.144 14.32C149.052 14.32 150.624 15.904 150.624 17.812C150.624 19.72 149.052 21.28 147.144 21.28C145.236 21.28 143.676 19.72 143.676 17.812ZM153.304 21.772C153.304 21.892 153.412 22 153.532 22H153.952C154.084 22 154.18 21.892 154.18 21.772V15.244H154.192L159.7 22.12H159.916C160.036 22.12 160.144 22.024 160.144 21.904V13.828C160.144 13.708 160.036 13.6 159.916 13.6H159.496C159.364 13.6 159.268 13.708 159.268 13.828V20.224C159.256 20.224 159.256 20.224 159.244 20.224L153.832 13.48H153.532C153.412 13.48 153.304 13.576 153.304 13.696V21.772ZM163.089 18.736H163.233C163.341 18.736 163.449 18.64 163.461 18.544L163.689 15.172V13.828C163.689 13.708 163.581 13.6 163.461 13.6H162.861C162.741 13.6 162.633 13.708 162.633 13.828V15.196L162.861 18.544C162.873 18.64 162.981 18.736 163.089 18.736ZM162.477 21.436C162.477 21.808 162.789 22.12 163.161 22.12C163.545 22.12 163.845 21.808 163.845 21.436C163.845 21.052 163.545 20.752 163.161 20.752C162.789 20.752 162.477 21.052 162.477 21.436Z" fill="white"/>
<path d="M88.6357 36.27C88.6741 37.1486 88.5256 38.0254 88.1994 38.8472C87.8732 39.669 87.3761 40.4184 86.7382 41.05C86.0325 41.7554 85.1788 42.3091 84.2335 42.6745C83.2882 43.04 82.2728 43.2088 81.2544 43.17C80.23 43.1781 79.2142 42.9899 78.2666 42.6163C77.319 42.2428 76.4587 41.6915 75.7362 40.9947C75.0137 40.298 74.4435 39.4699 74.0592 38.5589C73.6748 37.648 73.484 36.6726 73.4979 35.69C73.4854 34.7083 73.6773 33.734 74.0623 32.8242C74.4472 31.9144 75.0176 31.0875 75.7399 30.3918C76.4623 29.6962 77.3221 29.1458 78.269 28.7728C79.2159 28.3999 80.2309 28.212 81.2544 28.22C82.3252 28.2079 83.388 28.3982 84.3821 28.78C85.2997 29.1186 86.1212 29.6599 86.7799 30.36L85.4038 31.68C84.9225 31.1281 84.3065 30.6987 83.6106 30.43C82.869 30.1277 82.0706 29.9746 81.2649 29.98C80.4909 29.9599 79.721 30.0935 79.0034 30.3722C78.2858 30.651 77.636 31.069 77.0947 31.6C76.013 32.7112 75.4113 34.1748 75.4113 35.695C75.4113 37.2153 76.013 38.6789 77.0947 39.79C77.636 40.3211 78.2858 40.7391 79.0034 41.0178C79.721 41.2966 80.4909 41.4301 81.2649 41.41C82.6129 41.4554 83.932 41.0288 84.9763 40.21C85.4748 39.7958 85.8826 39.2909 86.1761 38.7244C86.4696 38.158 86.6429 37.5412 86.6861 36.91H81.2649V35.2H88.5001C88.5749 35.5527 88.6202 35.9105 88.6357 36.27Z" fill="white"/>
<path d="M89.9493 37.9999C89.9258 37.3136 90.0446 36.6296 90.2987 35.9876C90.5528 35.3456 90.9372 34.7583 91.4297 34.2599C91.9181 33.7772 92.5058 33.3973 93.1555 33.1442C93.8052 32.8912 94.5027 32.7705 95.2037 32.7899C95.9001 32.7691 96.5934 32.8893 97.2382 33.1426C97.8831 33.3959 98.4651 33.7766 98.9464 34.2599C99.444 34.7557 99.8332 35.3421 100.091 35.9844C100.349 36.6267 100.47 37.312 100.448 37.9999C100.474 38.6882 100.354 39.3745 100.096 40.0173C99.838 40.66 99.4469 41.246 98.9464 41.7399C98.4668 42.2261 97.8854 42.6093 97.2403 42.8644C96.5952 43.1195 95.9011 43.2406 95.2037 43.2199C94.5017 43.2398 93.8032 43.1185 93.1531 42.8635C92.5031 42.6086 91.916 42.2258 91.4297 41.7399C90.9353 41.2427 90.5497 40.6557 90.2954 40.0134C90.0412 39.3711 89.9235 38.6865 89.9493 37.9999ZM91.8676 37.9999C91.8435 38.4662 91.9159 38.9324 92.0805 39.3718C92.2451 39.8111 92.4987 40.2149 92.8267 40.5599C93.1317 40.8695 93.4993 41.1161 93.9072 41.2847C94.315 41.4532 94.7544 41.5402 95.1984 41.5402C95.6425 41.5402 96.0819 41.4532 96.4897 41.2847C96.8976 41.1161 97.2652 40.8695 97.5702 40.5599C97.8982 40.2149 98.1518 39.8111 98.3164 39.3718C98.481 38.9324 98.5534 38.4662 98.5294 37.9999C98.5515 37.5383 98.4781 37.0771 98.3135 36.6429C98.1489 36.2087 97.8963 35.81 97.5702 35.4699C97.2685 35.155 96.9019 34.9036 96.4936 34.7317C96.0854 34.5597 95.6443 34.4709 95.1984 34.4709C94.7526 34.4709 94.3115 34.5597 93.9033 34.7317C93.495 34.9036 93.1284 35.155 92.8267 35.4699C92.5006 35.81 92.248 36.2087 92.0834 36.6429C91.9187 37.0771 91.8454 37.5383 91.8676 37.9999Z" fill="white"/>
<path d="M101.616 37.9999C101.573 36.6143 102.106 35.2691 103.096 34.2599C103.585 33.7778 104.173 33.3981 104.823 33.1451C105.472 32.8921 106.17 32.7711 106.87 32.7899C107.568 32.7702 108.263 32.8909 108.909 33.144C109.556 33.3972 110.14 33.7773 110.624 34.2599C111.121 34.7558 111.51 35.3421 111.768 35.9844C112.026 36.6267 112.147 37.312 112.125 37.9999C112.151 38.6882 112.031 39.3745 111.773 40.0173C111.515 40.6601 111.124 41.2461 110.624 41.7399C110.142 42.2258 109.558 42.6088 108.912 42.8638C108.265 43.1188 107.569 43.2402 106.87 43.2199C106.169 43.2392 105.47 43.1176 104.82 42.8627C104.17 42.6078 103.583 42.2254 103.096 41.7399C102.604 41.2411 102.22 40.6538 101.966 40.0119C101.712 39.37 101.593 38.6862 101.616 37.9999ZM103.534 37.9999C103.492 38.9409 103.836 39.8603 104.493 40.5599C104.799 40.8698 105.168 41.1166 105.577 41.2853C105.985 41.4539 106.426 41.5409 106.87 41.5409C107.315 41.5409 107.756 41.4539 108.164 41.2853C108.573 41.1166 108.942 40.8698 109.247 40.5599C109.905 39.8603 110.249 38.9409 110.207 37.9999C110.246 37.0685 109.901 36.1598 109.247 35.4699C108.945 35.1548 108.577 34.9032 108.168 34.7312C107.759 34.5591 107.317 34.4703 106.87 34.4703C106.424 34.4703 105.982 34.5591 105.573 34.7312C105.164 34.9032 104.796 35.1548 104.493 35.4699C103.84 36.1598 103.495 37.0685 103.534 37.9999Z" fill="white"/>
<path d="M118.4 47.4901C117.857 47.4939 117.317 47.4232 116.795 47.2801C116.312 47.1475 115.852 46.9488 115.429 46.6901C115.031 46.4487 114.679 46.1444 114.386 45.7901C114.092 45.4456 113.866 45.0525 113.719 44.6301L115.533 43.9101C115.72 44.4644 116.085 44.9476 116.576 45.2901C117.1 45.6431 117.729 45.8254 118.369 45.8101C118.819 45.8378 119.27 45.7716 119.691 45.6163C120.113 45.4609 120.494 45.22 120.808 44.9101C121.416 44.2197 121.726 43.3324 121.674 42.4301V41.4901H121.59C121.225 42.0195 120.717 42.4444 120.12 42.7201C119.5 43.0211 118.814 43.1754 118.119 43.1701C117.466 43.1734 116.821 43.041 116.227 42.7821C115.633 42.5231 115.105 42.1438 114.678 41.6701C113.763 40.6334 113.26 39.3188 113.26 37.9601C113.26 36.6015 113.763 35.2868 114.678 34.2501C115.103 33.7736 115.631 33.3917 116.225 33.1309C116.819 32.8701 117.465 32.7367 118.119 32.7401C118.814 32.7348 119.5 32.8891 120.12 33.1901C120.717 33.4658 121.225 33.8908 121.59 34.4201H121.674V33.0601H123.509V42.4301C123.549 43.1054 123.446 43.7815 123.206 44.4175C122.965 45.0535 122.593 45.6361 122.112 46.1301C121.622 46.5869 121.04 46.9431 120.402 47.1769C119.764 47.4107 119.083 47.5173 118.4 47.4901ZM118.463 41.4901C118.901 41.5013 119.335 41.4171 119.734 41.2439C120.134 41.0707 120.487 40.813 120.767 40.4901C121.383 39.7736 121.72 38.8738 121.72 37.9451C121.72 37.0164 121.383 36.1166 120.767 35.4001C120.486 35.0784 120.132 34.8215 119.734 34.6484C119.335 34.4753 118.9 34.3904 118.463 34.4001C118.024 34.3932 117.589 34.4792 117.189 34.6521C116.789 34.8249 116.434 35.0804 116.148 35.4001C115.538 36.1151 115.204 37.0108 115.204 37.9351C115.204 38.8594 115.538 39.7552 116.148 40.4701C116.432 40.7935 116.786 41.0527 117.186 41.2291C117.586 41.4055 118.022 41.4946 118.463 41.4901Z" fill="white"/>
<path d="M127.794 28.54V42.85H125.876V28.54H127.794Z" fill="white"/>
<path d="M134.612 43.1701C133.92 43.191 133.23 43.0698 132.59 42.8146C131.95 42.5594 131.374 42.176 130.901 41.6901C129.945 40.6844 129.436 39.3603 129.483 38.0001C129.435 36.6306 129.943 35.2966 130.901 34.2801C131.369 33.8155 131.929 33.4447 132.548 33.189C133.167 32.9333 133.833 32.7978 134.506 32.7904C135.18 32.7829 135.849 32.9037 136.474 33.1457C137.098 33.3876 137.667 33.746 138.147 34.2001C139.104 35.3 139.585 36.7101 139.491 38.1401V38.3401H131.464C131.465 38.7743 131.558 39.2038 131.737 39.6026C131.916 40.0014 132.178 40.3611 132.506 40.6601C132.874 41.0122 133.324 41.2743 133.819 41.4241C134.314 41.5739 134.84 41.607 135.351 41.5207C135.863 41.4343 136.345 41.2311 136.757 40.9281C137.169 40.6251 137.499 40.2313 137.719 39.7801L139.429 40.5801C138.993 41.3838 138.332 42.0555 137.521 42.5201C136.638 43.0042 135.627 43.2302 134.612 43.1701ZM131.568 36.7701H137.427C137.383 36.1193 137.072 35.5117 136.562 35.0801C135.976 34.6198 135.233 34.3846 134.477 34.4201C133.796 34.4066 133.133 34.6304 132.611 35.0501C132.074 35.4965 131.707 36.1016 131.568 36.7701Z" fill="white"/>
<path d="M151.094 43.1701C150.37 43.1845 149.654 43.0264 149.009 42.7101C148.426 42.4366 147.932 42.0146 147.581 41.4901H147.498L147.581 42.8501V47.1701H145.663V33.0601H147.498V34.4201H147.581C147.932 33.8956 148.426 33.4735 149.009 33.2001C149.908 32.7606 150.933 32.6203 151.924 32.8014C152.915 32.9824 153.815 33.4745 154.483 34.2001C155.436 35.2128 155.95 36.5361 155.921 37.9001C155.958 39.2653 155.442 40.5911 154.483 41.6001C154.076 42.0874 153.56 42.4813 152.974 42.753C152.387 43.0246 151.745 43.1671 151.094 43.1701ZM150.782 41.4901C151.22 41.497 151.655 41.411 152.055 41.2381C152.455 41.0653 152.811 40.8098 153.096 40.4901C153.707 39.7751 154.04 38.8794 154.04 37.9551C154.04 37.0308 153.707 36.135 153.096 35.4201C152.803 35.1075 152.444 34.8575 152.044 34.6864C151.643 34.5153 151.21 34.4268 150.771 34.4268C150.333 34.4268 149.899 34.5153 149.499 34.6864C149.098 34.8575 148.74 35.1075 148.446 35.4201C147.823 36.1244 147.495 37.0266 147.529 37.9501C147.492 38.8832 147.819 39.7961 148.446 40.5101C148.738 40.8267 149.098 41.0784 149.501 41.2477C149.904 41.417 150.341 41.4997 150.782 41.4901Z" fill="white"/>
<path d="M159.414 28.54V42.85H157.496V28.54H159.414Z" fill="white"/>
<path d="M165.524 32.7401C166.744 32.6743 167.944 33.065 168.87 33.8301C169.29 34.2147 169.617 34.6822 169.829 35.2002C170.042 35.7183 170.134 36.2744 170.1 36.8301V42.8301H168.266V41.4901H168.182C167.856 42.0046 167.396 42.4295 166.848 42.7239C166.3 43.0182 165.683 43.1719 165.055 43.1701C164.015 43.1918 163.005 42.8345 162.229 42.1701C161.865 41.8765 161.574 41.5087 161.378 41.0935C161.181 40.6782 161.084 40.2261 161.093 39.7701C161.076 39.3041 161.176 38.841 161.385 38.4198C161.593 37.9987 161.904 37.6318 162.292 37.3501C163.221 36.71 164.35 36.3926 165.492 36.4501C166.466 36.4131 167.432 36.6199 168.297 37.0501V36.6301C168.3 36.3189 168.23 36.0111 168.093 35.7291C167.956 35.4471 167.755 35.1981 167.505 35.0001C166.997 34.5668 166.339 34.3313 165.659 34.3401C165.156 34.328 164.657 34.4403 164.212 34.6662C163.766 34.8921 163.389 35.224 163.115 35.6301L161.427 34.6301C161.887 34.0084 162.505 33.509 163.221 33.1785C163.938 32.848 164.73 32.6971 165.524 32.7401ZM163.042 39.8501C163.04 40.0844 163.097 40.3157 163.208 40.5246C163.318 40.7334 163.48 40.9137 163.678 41.0501C164.102 41.3713 164.629 41.541 165.169 41.5301C165.569 41.531 165.965 41.4554 166.333 41.3078C166.702 41.1601 167.037 40.9433 167.317 40.6701C167.614 40.4203 167.852 40.1128 168.016 39.768C168.179 39.4232 168.264 39.0489 168.266 38.6701C167.539 38.1805 166.661 37.9409 165.774 37.9901C165.081 37.9654 164.397 38.1546 163.824 38.5301C163.591 38.6714 163.397 38.8659 163.261 39.0961C163.125 39.3264 163.05 39.5853 163.042 39.8501Z" fill="white"/>
<path d="M181.193 33.0601L174.792 47.1701H172.811L175.188 42.2301L171.018 33.0601H173.103L176.147 40.0601L179.108 33.0601H181.193Z" fill="white"/>
<defs>
<linearGradient id="paint0_linear_28_399" x1="35.0658" y1="14.9616" x2="14.3248" y2="38.0765" gradientUnits="userSpaceOnUse">
<stop stop-color="#00A0FF"/>
<stop offset="0.01" stop-color="#00A1FF"/>
<stop offset="0.26" stop-color="#00BEFF"/>
<stop offset="0.51" stop-color="#00D2FF"/>
<stop offset="0.76" stop-color="#00DFFF"/>
<stop offset="1" stop-color="#00E3FF"/>
</linearGradient>
<linearGradient id="paint1_linear_28_399" x1="51.7348" y1="28.9984" x2="18.2166" y2="28.9984" gradientUnits="userSpaceOnUse">
<stop stop-color="#FFE000"/>
<stop offset="0.41" stop-color="#FFBD00"/>
<stop offset="0.78" stop-color="#FFA500"/>
<stop offset="1" stop-color="#FF9C00"/>
</linearGradient>
<linearGradient id="paint2_linear_28_399" x1="39.2643" y1="31.8582" x2="11.1304" y2="63.1984" gradientUnits="userSpaceOnUse">
<stop stop-color="#FF3A44"/>
<stop offset="1" stop-color="#C31162"/>
</linearGradient>
<linearGradient id="paint3_linear_28_399" x1="14.9743" y1="4.35602" x2="27.5326" y2="18.3517" gradientUnits="userSpaceOnUse">
<stop stop-color="#32A071"/>
<stop offset="0.07" stop-color="#2DA771"/>
<stop offset="0.48" stop-color="#15CF74"/>
<stop offset="0.8" stop-color="#06E775"/>
<stop offset="1" stop-color="#00F076"/>
</linearGradient>
</defs>
</svg>
