<svg width="201" height="60" viewBox="0 0 201 60" fill="none" xmlns="http://www.w3.org/2000/svg">
<path d="M192.097 0.969971H8.73495C4.09416 0.969971 0.332062 4.57856 0.332062 9.02997V51.91C0.332062 56.3614 4.09416 59.97 8.73495 59.97H192.097C196.738 59.97 200.5 56.3614 200.5 51.91V9.02997C200.5 4.57856 196.738 0.969971 192.097 0.969971Z" fill="#1D1C1D"/>
<path d="M72.9441 18.812C72.9441 21.212 74.8761 23.12 77.2761 23.12C78.3441 23.12 79.3761 22.748 80.1921 21.956C80.2761 21.872 80.3001 21.704 80.2041 21.632L79.8441 21.308C79.7721 21.26 79.6761 21.248 79.5561 21.344C78.9201 21.824 78.3081 22.244 77.2641 22.244C75.3681 22.244 73.9161 20.648 73.9161 18.8C73.9161 16.94 75.3681 15.344 77.2641 15.344C78.0801 15.344 78.9321 15.704 79.5561 16.244C79.6761 16.364 79.7721 16.376 79.8681 16.256L80.1921 15.932C80.2881 15.836 80.2761 15.692 80.1801 15.596C79.3641 14.9 78.4881 14.48 77.2761 14.48C74.8761 14.48 72.9441 16.412 72.9441 18.812ZM81.3933 18.812C81.3933 21.212 83.3013 23.12 85.7013 23.12C88.1013 23.12 90.0213 21.212 90.0213 18.812C90.0213 16.412 88.1013 14.48 85.7013 14.48C83.3013 14.48 81.3933 16.412 81.3933 18.812ZM82.2333 18.812C82.2333 16.904 83.7933 15.32 85.7013 15.32C87.6093 15.32 89.1813 16.904 89.1813 18.812C89.1813 20.72 87.6093 22.28 85.7013 22.28C83.7933 22.28 82.2333 20.72 82.2333 18.812ZM91.2607 22.712C91.2247 22.88 91.2967 23 91.4767 23H91.9567C92.0527 23 92.1607 22.916 92.1727 22.832L93.2167 16.652C93.2287 16.652 93.2527 16.652 93.2647 16.652L95.4967 22.988C95.5207 23.06 95.6287 23.12 95.7007 23.12H95.9167C95.9887 23.12 96.0967 23.06 96.1207 22.988L98.3287 16.652C98.3407 16.652 98.3647 16.652 98.3767 16.652L99.4447 22.832C99.4688 22.916 99.5647 23 99.6607 23H100.141C100.321 23 100.393 22.88 100.357 22.712L98.8087 14.648C98.7847 14.552 98.6887 14.48 98.5927 14.48H98.4007C98.3167 14.48 98.2207 14.54 98.1967 14.612L95.8567 21.224C95.8327 21.224 95.8207 21.224 95.7967 21.224L93.4207 14.612C93.3967 14.54 93.3007 14.48 93.2167 14.48H93.0247C92.9287 14.48 92.8327 14.552 92.8087 14.648L91.2607 22.712ZM102.208 22.772C102.208 22.892 102.316 23 102.436 23H102.916C103.036 23 103.144 22.892 103.144 22.772V14.828C103.144 14.708 103.036 14.6 102.916 14.6H102.436C102.316 14.6 102.208 14.708 102.208 14.828V22.772ZM105.595 22.772C105.595 22.892 105.703 23 105.823 23H106.243C106.375 23 106.471 22.892 106.471 22.772V16.244H106.483L111.991 23.12H112.207C112.327 23.12 112.435 23.024 112.435 22.904V14.828C112.435 14.708 112.327 14.6 112.207 14.6H111.787C111.655 14.6 111.559 14.708 111.559 14.828V21.224C111.547 21.224 111.547 21.224 111.535 21.224L106.123 14.48H105.823C105.703 14.48 105.595 14.576 105.595 14.696V22.772ZM114.276 18.812C114.276 21.212 116.208 23.12 118.608 23.12C120.348 23.12 121.572 22.328 121.572 22.328C121.62 22.292 121.668 22.196 121.668 22.136V19.388C121.668 19.268 121.572 19.16 121.452 19.16H119.376C119.244 19.16 119.148 19.256 119.148 19.388V19.832C119.148 19.952 119.244 20.048 119.376 20.048H120.756V21.728C120.756 21.728 119.916 22.232 118.596 22.232C116.7 22.232 115.26 20.612 115.26 18.764C115.26 16.904 116.7 15.32 118.596 15.32C119.4 15.32 120.264 15.716 120.876 16.256C121.008 16.376 121.08 16.388 121.188 16.268C121.284 16.16 121.416 16.04 121.524 15.932C121.62 15.836 121.608 15.692 121.512 15.596C120.696 14.9 119.82 14.48 118.608 14.48C116.208 14.48 114.276 16.412 114.276 18.812ZM125.869 22.148C126.025 22.292 126.985 23.12 128.401 23.12C129.805 23.12 130.993 22.208 130.993 20.96C130.993 19.568 129.949 18.956 128.329 18.296C127.321 17.876 126.709 17.408 126.709 16.604C126.709 16.1 127.093 15.284 128.365 15.284C129.097 15.284 129.853 15.788 129.937 15.836C130.129 15.944 130.249 15.896 130.357 15.728C130.405 15.656 130.453 15.572 130.501 15.5C130.645 15.272 130.501 15.128 130.429 15.092C130.429 15.092 129.553 14.48 128.377 14.48C126.469 14.48 125.821 15.8 125.821 16.616C125.821 17.984 126.613 18.524 127.933 19.1C129.313 19.676 130.033 20.168 130.033 20.996C130.033 21.704 129.397 22.316 128.425 22.316C127.357 22.316 126.481 21.476 126.397 21.404C126.229 21.26 126.097 21.356 125.977 21.512C125.917 21.584 125.857 21.668 125.797 21.74C125.653 21.968 125.773 22.064 125.869 22.148ZM132.124 18.812C132.124 21.212 134.032 23.12 136.432 23.12C138.832 23.12 140.752 21.212 140.752 18.812C140.752 16.412 138.832 14.48 136.432 14.48C134.032 14.48 132.124 16.412 132.124 18.812ZM132.964 18.812C132.964 16.904 134.524 15.32 136.432 15.32C138.34 15.32 139.912 16.904 139.912 18.812C139.912 20.72 138.34 22.28 136.432 22.28C134.524 22.28 132.964 20.72 132.964 18.812ZM141.979 18.812C141.979 21.212 143.887 23.12 146.287 23.12C148.687 23.12 150.607 21.212 150.607 18.812C150.607 16.412 148.687 14.48 146.287 14.48C143.887 14.48 141.979 16.412 141.979 18.812ZM142.819 18.812C142.819 16.904 144.379 15.32 146.287 15.32C148.195 15.32 149.767 16.904 149.767 18.812C149.767 20.72 148.195 22.28 146.287 22.28C144.379 22.28 142.819 20.72 142.819 18.812ZM152.447 22.772C152.447 22.892 152.555 23 152.675 23H153.095C153.227 23 153.323 22.892 153.323 22.772V16.244H153.335L158.843 23.12H159.059C159.179 23.12 159.287 23.024 159.287 22.904V14.828C159.287 14.708 159.179 14.6 159.059 14.6H158.639C158.507 14.6 158.411 14.708 158.411 14.828V21.224C158.399 21.224 158.399 21.224 158.387 21.224L152.975 14.48H152.675C152.555 14.48 152.447 14.576 152.447 14.696V22.772ZM162.232 19.736H162.376C162.484 19.736 162.592 19.64 162.604 19.544L162.832 16.172V14.828C162.832 14.708 162.724 14.6 162.604 14.6H162.004C161.884 14.6 161.776 14.708 161.776 14.828V16.196L162.004 19.544C162.016 19.64 162.124 19.736 162.232 19.736ZM161.62 22.436C161.62 22.808 161.932 23.12 162.304 23.12C162.688 23.12 162.988 22.808 162.988 22.436C162.988 22.052 162.688 21.752 162.304 21.752C161.932 21.752 161.62 22.052 161.62 22.436Z" fill="white"/>
<path d="M79.2464 29.512L75.0004 41.8301H72.4334L77.7822 27.6184H79.422L79.2464 29.512ZM82.7993 41.8301L78.5436 29.512L78.3581 27.6184H80.0077L85.3761 41.8301H82.7993ZM82.5943 36.5593V38.5017H74.8638V36.5593H82.5943ZM88.9193 33.2992V45.8905H86.5669V31.269H88.7338L88.9193 33.2992ZM95.8006 36.4519V36.6569C95.8006 37.4247 95.7095 38.1373 95.5273 38.7945C95.3516 39.4452 95.088 40.0146 94.7367 40.5026C94.3918 40.9841 93.9656 41.3583 93.458 41.6251C92.9504 41.8919 92.3648 42.0253 91.7011 42.0253C91.0438 42.0253 90.468 41.9049 89.9734 41.6641C89.4854 41.4169 89.0722 41.0687 88.7338 40.6197C88.3954 40.1708 88.1221 39.6437 87.9139 39.0385C87.7122 38.4268 87.569 37.7566 87.4844 37.0278V36.2372C87.569 35.4628 87.7122 34.76 87.9139 34.1289C88.1221 33.4977 88.3954 32.9543 88.7338 32.4988C89.0722 32.0433 89.4854 31.6919 89.9734 31.4446C90.4614 31.1974 91.0308 31.0737 91.6815 31.0737C92.3453 31.0737 92.9342 31.2039 93.4482 31.4642C93.9623 31.7179 94.395 32.0824 94.7464 32.5574C95.0978 33.0259 95.3613 33.592 95.537 34.2557C95.7127 34.913 95.8006 35.645 95.8006 36.4519ZM93.4482 36.6569V36.4519C93.4482 35.9639 93.4027 35.5116 93.3116 35.0952C93.2205 34.6722 93.0773 34.3013 92.8821 33.9824C92.6869 33.6636 92.4364 33.4163 92.1305 33.2406C91.8312 33.0584 91.4701 32.9673 91.0471 32.9673C90.6306 32.9673 90.2727 33.0389 89.9734 33.1821C89.6741 33.3187 89.4236 33.5107 89.2218 33.7579C89.0201 34.0052 88.8639 34.2948 88.7533 34.6267C88.6427 34.952 88.5646 35.3066 88.5191 35.6906V37.5842C88.5971 38.0527 88.7305 38.4821 88.9193 38.8726C89.108 39.263 89.3748 39.5753 89.7196 39.8096C90.071 40.0374 90.52 40.1512 91.0666 40.1512C91.4896 40.1512 91.8507 40.0601 92.1501 39.8779C92.4494 39.6957 92.6934 39.4452 92.8821 39.1264C93.0773 38.801 93.2205 38.4268 93.3116 38.0039C93.4027 37.5809 93.4482 37.1319 93.4482 36.6569ZM100.164 33.2992V45.8905H97.8113V31.269H99.9782L100.164 33.2992ZM107.045 36.4519V36.6569C107.045 37.4247 106.954 38.1373 106.772 38.7945C106.596 39.4452 106.332 40.0146 105.981 40.5026C105.636 40.9841 105.21 41.3583 104.702 41.6251C104.195 41.8919 103.609 42.0253 102.945 42.0253C102.288 42.0253 101.712 41.9049 101.218 41.6641C100.73 41.4169 100.317 41.0687 99.9782 40.6197C99.6398 40.1708 99.3665 39.6437 99.1583 39.0385C98.9565 38.4268 98.8134 37.7566 98.7288 37.0278V36.2372C98.8134 35.4628 98.9565 34.76 99.1583 34.1289C99.3665 33.4977 99.6398 32.9543 99.9782 32.4988C100.317 32.0433 100.73 31.6919 101.218 31.4446C101.706 31.1974 102.275 31.0737 102.926 31.0737C103.59 31.0737 104.179 31.2039 104.693 31.4642C105.207 31.7179 105.639 32.0824 105.991 32.5574C106.342 33.0259 106.606 33.592 106.781 34.2557C106.957 34.913 107.045 35.645 107.045 36.4519ZM104.693 36.6569V36.4519C104.693 35.9639 104.647 35.5116 104.556 35.0952C104.465 34.6722 104.322 34.3013 104.126 33.9824C103.931 33.6636 103.681 33.4163 103.375 33.2406C103.076 33.0584 102.714 32.9673 102.291 32.9673C101.875 32.9673 101.517 33.0389 101.218 33.1821C100.918 33.3187 100.668 33.5107 100.466 33.7579C100.264 34.0052 100.108 34.2948 99.9977 34.6267C99.8871 34.952 99.809 35.3066 99.7634 35.6906V37.5842C99.8415 38.0527 99.9749 38.4821 100.164 38.8726C100.352 39.263 100.619 39.5753 100.964 39.8096C101.315 40.0374 101.764 40.1512 102.311 40.1512C102.734 40.1512 103.095 40.0601 103.394 39.8779C103.694 39.6957 103.938 39.4452 104.126 39.1264C104.322 38.801 104.465 38.4268 104.556 38.0039C104.647 37.5809 104.693 37.1319 104.693 36.6569ZM121.735 38.1698C121.735 37.877 121.689 37.6167 121.598 37.3889C121.514 37.1612 121.361 36.953 121.139 36.7643C120.918 36.5755 120.606 36.3933 120.202 36.2177C119.805 36.0355 119.298 35.85 118.68 35.6613C118.003 35.4531 117.378 35.2221 116.806 34.9683C116.24 34.708 115.745 34.4087 115.322 34.0703C114.899 33.7254 114.57 33.3317 114.336 32.8892C114.102 32.4402 113.985 31.9229 113.985 31.3373C113.985 30.7581 114.105 30.2311 114.346 29.756C114.593 29.281 114.941 28.8711 115.39 28.5262C115.846 28.1748 116.383 27.9048 117.001 27.716C117.619 27.5208 118.302 27.4232 119.051 27.4232C120.105 27.4232 121.013 27.6184 121.774 28.0089C122.542 28.3993 123.131 28.9231 123.541 29.5803C123.957 30.2376 124.165 30.9631 124.165 31.757H121.735C121.735 31.2885 121.634 30.8753 121.432 30.5174C121.237 30.153 120.938 29.8667 120.534 29.6584C120.137 29.4502 119.633 29.3461 119.021 29.3461C118.442 29.3461 117.961 29.4339 117.577 29.6096C117.193 29.7853 116.907 30.0228 116.718 30.3222C116.529 30.6215 116.435 30.9599 116.435 31.3373C116.435 31.6041 116.497 31.8481 116.62 32.0693C116.744 32.2841 116.933 32.4858 117.186 32.6745C117.44 32.8567 117.759 33.0291 118.143 33.1918C118.527 33.3545 118.979 33.5107 119.5 33.6603C120.287 33.8946 120.974 34.1549 121.559 34.4412C122.145 34.721 122.633 35.0399 123.023 35.3977C123.414 35.7556 123.707 36.1623 123.902 36.6178C124.097 37.0668 124.195 37.5776 124.195 38.1503C124.195 38.7489 124.074 39.289 123.833 39.7706C123.593 40.2456 123.248 40.6523 122.799 40.9907C122.356 41.3225 121.823 41.5796 121.198 41.7618C120.58 41.9374 119.89 42.0253 119.129 42.0253C118.445 42.0253 117.772 41.9342 117.108 41.752C116.451 41.5698 115.852 41.2932 115.312 40.9223C114.772 40.5449 114.343 40.0764 114.024 39.5168C113.705 38.9507 113.546 38.2902 113.546 37.5354H115.996C115.996 37.9974 116.074 38.391 116.23 38.7164C116.392 39.0418 116.617 39.3086 116.903 39.5168C117.19 39.7185 117.521 39.8682 117.899 39.9658C118.283 40.0634 118.693 40.1122 119.129 40.1122C119.701 40.1122 120.18 40.0308 120.564 39.8682C120.954 39.7055 121.247 39.4777 121.442 39.1849C121.637 38.8921 121.735 38.5537 121.735 38.1698ZM130.969 31.269V32.9868H125.014V31.269H130.969ZM126.732 28.6824H129.085V38.9116C129.085 39.237 129.13 39.4875 129.221 39.6632C129.319 39.8324 129.452 39.9463 129.622 40.0048C129.791 40.0634 129.989 40.0927 130.217 40.0927C130.38 40.0927 130.536 40.0829 130.685 40.0634C130.835 40.0439 130.956 40.0243 131.047 40.0048L131.056 41.8008C130.861 41.8594 130.633 41.9114 130.373 41.957C130.119 42.0025 129.827 42.0253 129.495 42.0253C128.955 42.0253 128.476 41.9309 128.06 41.7422C127.643 41.547 127.318 41.2314 127.084 40.7954C126.849 40.3595 126.732 39.7803 126.732 39.058V28.6824ZM132.101 36.6666V36.4421C132.101 35.6808 132.211 34.9748 132.433 34.3241C132.654 33.6668 132.973 33.0975 133.389 32.6159C133.812 32.1279 134.326 31.7505 134.931 31.4837C135.543 31.2104 136.233 31.0737 137.001 31.0737C137.775 31.0737 138.465 31.2104 139.07 31.4837C139.682 31.7505 140.199 32.1279 140.622 32.6159C141.045 33.0975 141.367 33.6668 141.588 34.3241C141.809 34.9748 141.92 35.6808 141.92 36.4421V36.6666C141.92 37.428 141.809 38.134 141.588 38.7847C141.367 39.4354 141.045 40.0048 140.622 40.4929C140.199 40.9744 139.685 41.3518 139.08 41.6251C138.475 41.8919 137.788 42.0253 137.02 42.0253C136.246 42.0253 135.553 41.8919 134.941 41.6251C134.336 41.3518 133.822 40.9744 133.399 40.4929C132.976 40.0048 132.654 39.4354 132.433 38.7847C132.211 38.134 132.101 37.428 132.101 36.6666ZM134.453 36.4421V36.6666C134.453 37.1417 134.502 37.5907 134.6 38.0136C134.697 38.4366 134.85 38.8075 135.058 39.1264C135.267 39.4452 135.533 39.6957 135.859 39.8779C136.184 40.0601 136.571 40.1512 137.02 40.1512C137.456 40.1512 137.834 40.0601 138.152 39.8779C138.478 39.6957 138.745 39.4452 138.953 39.1264C139.161 38.8075 139.314 38.4366 139.412 38.0136C139.516 37.5907 139.568 37.1417 139.568 36.6666V36.4421C139.568 35.9736 139.516 35.5311 139.412 35.1147C139.314 34.6917 139.158 34.3176 138.943 33.9922C138.735 33.6668 138.468 33.4131 138.143 33.2309C137.824 33.0422 137.443 32.9478 137.001 32.9478C136.558 32.9478 136.174 33.0422 135.849 33.2309C135.53 33.4131 135.267 33.6668 135.058 33.9922C134.85 34.3176 134.697 34.6917 134.6 35.1147C134.502 35.5311 134.453 35.9736 134.453 36.4421ZM146.254 33.2797V41.8301H143.902V31.269H146.146L146.254 33.2797ZM149.485 31.2006L149.465 33.387C149.322 33.361 149.166 33.3415 148.997 33.3285C148.834 33.3155 148.671 33.309 148.509 33.309C148.105 33.309 147.75 33.3675 147.445 33.4846C147.139 33.5953 146.882 33.7579 146.674 33.9727C146.472 34.1809 146.316 34.4347 146.205 34.734C146.094 35.0333 146.029 35.3685 146.01 35.7394L145.473 35.7784C145.473 35.1147 145.538 34.4998 145.668 33.9336C145.798 33.3675 145.994 32.8697 146.254 32.4402C146.521 32.0108 146.853 31.6757 147.249 31.4349C147.653 31.1941 148.118 31.0737 148.645 31.0737C148.788 31.0737 148.941 31.0868 149.104 31.1128C149.273 31.1388 149.4 31.1681 149.485 31.2006ZM155.419 42.0253C154.638 42.0253 153.932 41.8984 153.301 41.6446C152.676 41.3843 152.143 41.0232 151.7 40.5612C151.264 40.0992 150.929 39.5558 150.695 38.9311C150.461 38.3065 150.344 37.633 150.344 36.9107V36.5202C150.344 35.6938 150.464 34.9455 150.705 34.2753C150.946 33.605 151.281 33.0324 151.71 32.5574C152.14 32.0758 152.647 31.7082 153.233 31.4544C153.818 31.2006 154.453 31.0737 155.136 31.0737C155.891 31.0737 156.551 31.2006 157.118 31.4544C157.684 31.7082 158.152 32.0661 158.523 32.5281C158.901 32.9836 159.18 33.5269 159.363 34.1581C159.551 34.7893 159.646 35.4856 159.646 36.2469V37.2523H151.486V35.5637H157.323V35.3782C157.31 34.9553 157.225 34.5583 157.069 34.1874C156.919 33.8165 156.688 33.5172 156.376 33.2894C156.063 33.0617 155.647 32.9478 155.126 32.9478C154.736 32.9478 154.388 33.0324 154.082 33.2016C153.783 33.3643 153.532 33.6018 153.33 33.9141C153.129 34.2265 152.972 34.6039 152.862 35.0464C152.758 35.4823 152.706 35.9736 152.706 36.5202V36.9107C152.706 37.3727 152.768 37.8021 152.891 38.1991C153.021 38.5895 153.21 38.9311 153.457 39.224C153.705 39.5168 154.004 39.7478 154.355 39.917C154.707 40.0797 155.107 40.161 155.556 40.161C156.122 40.161 156.626 40.0471 157.069 39.8194C157.511 39.5916 157.895 39.2695 158.221 38.8531L159.46 40.0536C159.232 40.3855 158.936 40.7043 158.572 41.0102C158.208 41.3095 157.762 41.5535 157.235 41.7422C156.714 41.9309 156.109 42.0253 155.419 42.0253Z" fill="white"/>
<path d="M48.4553 22.25C42.6171 28.25 46.7143 33.08 49.4978 34.75C48.9766 37.75 47.4128 39.75 45.3277 42.25C43.2426 44.75 39.5937 43.75 38.0299 42.75C37.4667 42.4678 36.8408 42.3205 36.2054 42.3205C35.5701 42.3205 34.9441 42.4678 34.381 42.75C32.2959 44.75 28.647 42.92 27.0832 41.75C21.3492 37.75 20.3067 25.25 24.4768 20.75C27.813 17.15 33.5053 18.92 35.9448 20.25C42.6171 16.25 47.0583 19.92 48.4553 22.25Z" fill="white"/>
<path d="M35.4242 18.75C37.6865 19.08 42.2007 18.05 42.2007 11.25C39.9488 11.08 35.4242 12.35 35.4242 18.75Z" fill="white"/>
</svg>
