<svg width="227" height="50" viewBox="0 0 227 50" fill="none" xmlns="http://www.w3.org/2000/svg">
<g clip-path="url(#clip0_7_3670)">
<path d="M51.4822 11.0556C51.4822 10.7683 51.7035 10.5099 52.0082 10.5099H58.3144C61.7166 10.5099 64.5093 13.3799 64.5093 16.8505C64.5093 20.3211 61.7166 23.3066 58.3423 23.3066H54.332V30.0499C54.332 30.3372 54.0829 30.5956 53.806 30.5956H52.0082C51.7035 30.5956 51.4822 30.3372 51.4822 30.0499V11.0556ZM58.1475 20.4957C60.0552 20.4957 61.6596 18.8889 61.6596 16.823C61.6596 14.8712 60.0552 13.3799 58.1475 13.3799H54.3306V20.4957H58.1475Z" fill="#001C82"/>
<path d="M66.36 19.6628C66.36 19.3755 66.6091 19.1171 66.886 19.1171H67.6889C67.8823 19.1171 68.1036 19.2889 68.1592 19.5185L68.464 20.4944C68.6574 20.2071 69.6801 18.8298 71.6992 18.8298C72.7497 18.8298 74.0216 19.1171 73.7182 19.8909L73.0545 21.2971C72.9167 21.6132 72.6398 21.6695 72.3907 21.5555C72.2252 21.4689 71.8105 21.3548 71.4501 21.3548C69.8457 21.3548 69.0721 22.5603 68.9607 22.7609V30.0486C68.9607 30.5365 68.656 30.5943 68.2135 30.5943H66.886C66.6091 30.5943 66.36 30.3359 66.36 30.0486V19.6614V19.6628Z" fill="#001C82"/>
<path d="M80.2986 18.8312C83.1748 18.8312 85.3873 21.0689 85.3873 24.1395C85.3873 24.3402 85.3594 24.7141 85.3316 24.9148C85.3038 25.2021 85.0825 25.4028 84.8335 25.4028H77.3111C77.3946 26.9518 78.6942 28.4734 80.492 28.4734C81.4883 28.4734 82.3998 28.0143 82.9536 27.6419C83.2861 27.4412 83.4795 27.3257 83.7008 27.613L84.4745 28.703C84.6679 28.9325 84.7514 29.1621 84.4188 29.4494C83.6173 30.1669 82.1785 30.8844 80.3264 30.8844C76.9799 30.8844 74.7675 28.1587 74.7675 24.8585C74.7675 21.5583 76.9799 18.8326 80.2986 18.8326V18.8312ZM82.8158 23.5938C82.7323 22.2166 81.6261 21.04 80.2708 21.04C78.7777 21.04 77.6158 22.1588 77.4502 23.5938H82.8158Z" fill="#001C82"/>
<path d="M87.3771 29.1029L87.9574 27.984C88.0687 27.7545 88.3721 27.6679 88.649 27.8411C88.649 27.8411 89.8665 28.5875 91.2218 28.5875C92.0511 28.5875 92.5771 28.2424 92.5771 27.6116C92.5771 26.8363 91.969 26.4638 90.4481 25.7463C88.7338 24.9711 87.295 23.8811 87.295 21.987C87.295 20.552 88.4291 18.8312 91.0841 18.8312C92.6328 18.8312 93.7947 19.348 94.3471 19.7205C94.5962 19.8923 94.7339 20.2662 94.5683 20.552L94.0702 21.5279C93.9324 21.7864 93.572 21.873 93.3508 21.7575C93.3508 21.7575 92.1346 21.1555 91.0827 21.1555C90.142 21.1555 89.8387 21.5857 89.8387 22.0159C89.8387 22.7623 90.5302 23.077 91.6086 23.565C93.6277 24.4831 95.2863 25.3724 95.2863 27.5249C95.2863 29.3035 93.6541 30.8815 91.1926 30.8815C89.3391 30.8815 88.123 30.1928 87.5427 29.7049C87.3771 29.5894 87.2658 29.3324 87.3771 29.1029Z" fill="#001C82"/>
<path d="M98.6592 21.4992H97.4973C97.1926 21.4992 96.9713 21.2407 96.9713 20.9534V19.6628C96.9713 19.3466 97.1926 19.1171 97.4973 19.1171H98.6592V15.9324C98.6592 15.6451 98.9083 15.3867 99.1852 15.3867L100.762 15.3578C101.039 15.3578 101.26 15.6162 101.26 15.9035V19.1171H104.08C104.385 19.1171 104.606 19.3466 104.606 19.6628V20.9534C104.606 21.2407 104.385 21.4992 104.08 21.4992H101.26V27.18C101.26 28.1559 101.619 28.3277 102.145 28.3277C102.725 28.3277 103.5 27.9841 103.831 27.8109C104.19 27.6391 104.357 27.8109 104.467 28.0693L104.965 29.3311C105.103 29.6472 104.993 29.8768 104.716 30.0197C104.439 30.1915 102.809 30.8801 101.481 30.8801C99.2965 30.8801 98.6606 29.5028 98.6606 27.4658V21.4977L98.6592 21.4992Z" fill="#001C82"/>
<path d="M107.204 12.7764C107.204 11.8294 107.896 11.083 108.781 11.083C109.666 11.083 110.412 11.8294 110.412 12.7764C110.412 13.7235 109.694 14.441 108.781 14.441C107.868 14.441 107.204 13.6946 107.204 12.7764ZM107.509 19.6627C107.509 19.3754 107.758 19.117 108.035 19.117H109.612C109.887 19.117 110.138 19.3754 110.138 19.6627V30.0499C110.138 30.3372 109.889 30.5956 109.612 30.5956H108.035C107.758 30.5956 107.509 30.3372 107.509 30.0499V19.6627Z" fill="#001C82"/>
<path d="M114.588 26.6356C114.588 26.6356 113.73 25.5746 113.73 23.8523C113.73 21.1844 115.666 18.8312 118.488 18.8312H123.328C123.631 18.8312 123.854 19.0607 123.854 19.3769V20.0944C123.854 20.2951 123.742 20.5535 123.549 20.5823L122.028 21.0126C122.028 21.0126 123.218 21.9307 123.218 24.0832C123.218 26.5216 121.392 28.7607 118.516 28.7607C117.105 28.7607 116.331 28.3016 116.109 28.3016C115.915 28.3016 114.976 28.7896 114.976 29.7078C114.976 30.3675 115.474 30.8844 116.303 30.8844H120.064C122.47 30.8844 124.406 32.2327 124.406 34.7288C124.406 37.225 122.193 39.4915 118.516 39.4915C114.617 39.4915 113.04 37.4256 113.04 35.5604C113.04 33.8396 114.396 33.0354 114.672 32.8636V32.777C114.092 32.6052 112.626 31.83 112.626 29.907C112.626 27.6982 114.589 26.6356 114.589 26.6356H114.588ZM118.487 37.1369C120.173 37.1369 121.64 36.2476 121.64 34.8703C121.64 34.4112 121.364 33.2347 119.565 33.2347C118.763 33.2347 117.933 33.2347 117.131 33.2924C116.964 33.3501 115.61 33.8092 115.61 35.0999C115.61 36.2765 116.8 37.1369 118.487 37.1369ZM120.865 23.91C120.865 22.3609 119.924 21.2695 118.542 21.2695C117.16 21.2695 116.109 22.3595 116.109 23.91C116.109 25.4605 117.133 26.5505 118.542 26.5505C119.952 26.5505 120.865 25.4605 120.865 23.91Z" fill="#001C82"/>
<path d="M131.18 18.8312C134.056 18.8312 136.268 21.0689 136.268 24.1395C136.268 24.3402 136.24 24.7141 136.213 24.9148C136.185 25.2021 135.963 25.4028 135.714 25.4028H128.192C128.276 26.9518 129.575 28.4734 131.373 28.4734C132.369 28.4734 133.281 28.0143 133.835 27.6419C134.166 27.4412 134.361 27.3257 134.58 27.613L135.354 28.703C135.547 28.9325 135.631 29.1621 135.298 29.4494C134.495 30.1669 133.058 30.8844 131.205 30.8844C127.858 30.8844 125.646 28.1587 125.646 24.8585C125.646 21.5583 127.858 18.8326 131.177 18.8326L131.18 18.8312ZM133.697 23.5938C133.613 22.2166 132.507 21.04 131.152 21.04C129.659 21.04 128.497 22.1588 128.331 23.5938H133.697Z" fill="#001C82"/>
<path d="M145.89 11.0556C145.89 10.7683 146.112 10.5099 146.416 10.5099H157.479C157.782 10.5099 158.005 10.7683 158.005 11.0556V12.6624C158.005 12.9497 157.784 13.2081 157.479 13.2081H148.739V19.836H156.123C156.399 19.836 156.649 20.0944 156.649 20.3817V21.9596C156.649 22.2469 156.4 22.5053 156.123 22.5053H148.739V30.0514C148.739 30.3387 148.49 30.5971 148.213 30.5971H146.415C146.112 30.5971 145.889 30.3387 145.889 30.0514V11.0556H145.89Z" fill="#001C82"/>
<path d="M159.911 12.7764C159.911 11.8294 160.603 11.083 161.487 11.083C162.372 11.083 163.12 11.8294 163.12 12.7764C163.12 13.7235 162.4 14.441 161.487 14.441C160.575 14.441 159.911 13.6946 159.911 12.7764ZM160.214 19.6627C160.214 19.3754 160.463 19.117 160.74 19.117H162.317C162.594 19.117 162.843 19.3754 162.843 19.6627V30.0499C162.843 30.3372 162.594 30.5956 162.317 30.5956H160.74C160.465 30.5956 160.214 30.3372 160.214 30.0499V19.6627Z" fill="#001C82"/>
<path d="M166.436 19.6627C166.436 19.3754 166.685 19.117 166.962 19.117H167.765C167.986 19.117 168.151 19.2599 168.207 19.4621L168.54 20.438C168.733 20.2084 170.198 18.8312 172.411 18.8312C175.785 18.8312 177.029 21.2984 177.029 24.2825V30.0499C177.029 30.3372 176.78 30.5956 176.503 30.5956H174.927C174.622 30.5956 174.401 30.3372 174.401 30.0499V24.1684C174.401 22.3321 173.543 21.3273 172.105 21.3273C170.363 21.3273 169.173 22.6468 169.035 23.0481V30.0499C169.035 30.4224 168.869 30.5956 168.399 30.5956H166.962C166.685 30.5956 166.436 30.3372 166.436 30.0499V19.6627Z" fill="#001C82"/>
<path d="M184.108 23.3354C185.269 23.3354 186.292 23.6805 186.292 23.6805C186.32 21.873 185.987 21.1555 184.578 21.1555C183.305 21.1555 182.061 21.4991 181.48 21.6723C181.149 21.759 180.954 21.5294 180.872 21.2133L180.651 20.1522C180.568 19.7797 180.762 19.579 181.01 19.4924C181.204 19.4058 182.78 18.8326 184.827 18.8326C188.367 18.8326 188.698 21.0703 188.698 23.9403V30.0514C188.698 30.3387 188.449 30.5971 188.172 30.5971H187.398C187.149 30.5971 187.039 30.4816 186.928 30.1958L186.653 29.4205C186.045 30.0225 184.965 30.8844 183.25 30.8844C181.176 30.8844 179.683 29.4205 179.683 27.0399C179.683 24.9451 181.287 23.3383 184.108 23.3383V23.3354ZM183.776 28.8445C184.883 28.8445 185.933 27.9841 186.266 27.4095V25.5731C186.1 25.4576 185.325 25.114 184.33 25.114C183.003 25.114 182.09 25.8315 182.09 27.0081C182.09 28.0418 182.754 28.8445 183.778 28.8445H183.776Z" fill="#001C82"/>
<path d="M192.181 19.6627C192.181 19.3754 192.43 19.117 192.707 19.117H193.51C193.731 19.117 193.897 19.2599 193.952 19.4621L194.283 20.438C194.477 20.2084 195.944 18.8312 198.155 18.8312C201.529 18.8312 202.773 21.2984 202.773 24.2825V30.0499C202.773 30.3372 202.524 30.5956 202.247 30.5956H200.67C200.367 30.5956 200.144 30.3372 200.144 30.0499V24.1684C200.144 22.3321 199.287 21.3273 197.85 21.3273C196.108 21.3273 194.918 22.6468 194.78 23.0481V30.0499C194.78 30.4224 194.615 30.5956 194.144 30.5956H192.706C192.43 30.5956 192.18 30.3372 192.18 30.0499V19.6627H192.181Z" fill="#001C82"/>
<path d="M211.207 18.8313C212.895 18.8313 214.194 19.5488 215.217 20.8683C215.41 21.1267 215.355 21.4703 215.106 21.671L214.193 22.5314C213.862 22.8475 213.667 22.618 213.446 22.4159C212.948 21.8427 212.146 21.3259 211.233 21.3259C209.435 21.3259 208.024 22.9038 208.024 24.8557C208.024 26.8075 209.408 28.4143 211.205 28.4143C212.616 28.4143 213.197 27.6679 213.777 27.0948C214.026 26.8364 214.275 26.8364 214.524 27.0371L215.27 27.6679C215.547 27.8975 215.657 28.1848 215.463 28.4706C214.578 29.9345 213.084 30.8801 211.178 30.8801C208.08 30.8801 205.397 28.3263 205.397 24.8831C205.397 21.44 208.136 18.8284 211.204 18.8284L211.207 18.8313Z" fill="#001C82"/>
<path d="M222.959 18.8312C225.835 18.8312 228.048 21.0689 228.048 24.1395C228.048 24.3402 228.02 24.7141 227.992 24.9148C227.964 25.2021 227.743 25.4028 227.494 25.4028H219.972C220.055 26.9518 221.355 28.4734 223.153 28.4734C224.149 28.4734 225.06 28.0143 225.614 27.6419C225.945 27.4412 226.14 27.3257 226.36 27.613L227.134 28.703C227.327 28.9325 227.411 29.1621 227.078 29.4494C226.275 30.1669 224.838 30.8844 222.984 30.8844C219.638 30.8844 217.425 28.1587 217.425 24.8585C217.425 21.5583 219.638 18.8326 222.956 18.8326L222.959 18.8312ZM225.476 23.5938C225.393 22.2166 224.287 21.04 222.931 21.04C221.438 21.04 220.276 22.1588 220.111 23.5938H225.476Z" fill="#001C82"/>
<path d="M1.04773 49.2175V27.4889H11.5423V38.6225L2.37103 49.7257C1.91741 50.2772 1.04773 49.9437 1.04773 49.2175Z" fill="#2C75FB"/>
<path d="M14.8123 38.1114V24.0963H1.04907V14.4049H24.1505V38.1114H14.8123Z" fill="#001C82"/>
<path d="M27.4206 38.1114V11.0123H1.04913V6.33193C1.04913 2.84114 3.78758 0 7.15358 0H31.6799C35.0459 0 37.7844 2.84114 37.7844 6.33193V31.778C37.7844 35.2703 35.0459 38.11 31.6799 38.11H27.4206V38.1114Z" fill="#001C82"/>
</g>
<defs>
<clipPath id="clip0_7_3670">
<rect width="227" height="50" fill="white"/>
</clipPath>
</defs>
</svg>
